<svg width="1306" height="921" viewBox="0 0 1306 921" fill="none" xmlns="http://www.w3.org/2000/svg">
<g filter="url(#filter0_d_9_71)">
<rect x="84" y="4" width="1118" height="230" rx="88" fill="url(#paint0_linear_9_71)"/>
</g>
<path d="M341.034 88.244C343.702 92.108 347.658 98.732 349.774 102.964L341.494 106.552C338.826 100.756 336.434 96.34 333.03 91.556L341.034 88.244ZM353.362 83.184C356.122 86.864 360.262 93.396 362.378 97.536L354.282 101.4C351.338 95.604 348.854 91.464 345.45 86.864L353.362 83.184ZM279.118 125.872C281.786 123.572 283.81 121.64 286.662 118.788C290.802 114.648 297.978 105.632 304.326 98.088C309.846 91.556 315.274 90.544 322.358 97.26C328.614 103.148 335.606 110.416 341.126 116.396C347.29 123.02 356.766 133.14 363.85 140.684L353.638 151.632C347.474 143.996 339.746 134.428 334.318 128.08C328.89 121.732 320.794 112.808 317.482 109.404C314.446 106.46 312.514 106.644 309.938 109.956C306.258 114.648 299.818 123.664 296.046 128.724C293.93 131.576 291.814 134.888 290.158 137.28L279.118 125.872ZM376.27 109.404C379.674 109.68 386.298 110.048 391.082 110.048C401.938 110.048 432.298 110.048 440.486 110.048C444.81 110.048 448.858 109.588 451.342 109.404V123.94C449.134 123.848 444.442 123.388 440.578 123.388C432.206 123.388 401.938 123.388 391.082 123.388C385.93 123.388 379.766 123.664 376.27 123.94V109.404ZM486.438 79.228C492.51 82.54 502.63 88.98 507.414 92.384L500.606 102.504C495.454 98.916 485.886 92.752 479.814 89.348L486.438 79.228ZM469.418 144.548C479.722 142.8 490.67 139.672 500.698 134.152C516.338 125.412 529.218 112.808 536.486 99.652L543.57 112.164C535.106 124.952 522.042 136.544 507.046 145.284C497.662 150.528 484.414 155.128 476.318 156.6L469.418 144.548ZM472.27 100.204C478.434 103.516 488.554 109.772 493.338 113.176L486.53 123.48C481.378 119.8 471.81 113.636 465.646 110.324L472.27 100.204ZM596.47 97.444C598.218 101.308 602.726 113.36 604.014 117.592L593.066 121.364C591.87 116.948 587.822 105.816 585.614 101.032L596.47 97.444ZM630.418 104.068C629.406 107.104 628.854 109.036 628.302 110.876C625.91 120.168 621.954 129.736 615.698 137.74C607.142 148.872 595.734 156.508 584.97 160.648L575.31 150.804C585.338 148.044 598.218 141.052 605.762 131.484C612.018 123.756 616.526 111.52 617.538 99.928L630.418 104.068ZM575.126 102.228C577.426 106.92 581.934 118.144 583.682 123.296L572.458 127.436C570.986 122.56 566.294 110.232 564.086 106.276L575.126 102.228ZM724.81 94.868C723.798 96.616 722.51 99.1 721.774 101.4C719.29 109.68 714.046 121.916 705.674 132.128C696.934 142.8 685.894 151.264 668.598 158.072L657.742 148.412C676.51 142.708 686.722 134.704 694.818 125.596C701.074 118.42 706.41 107.38 707.882 100.572H676.878L681.11 90.084C685.158 90.084 704.478 90.084 707.33 90.084C710.182 90.084 713.31 89.716 715.334 88.98L724.81 94.868ZM694.818 80.24C692.61 83.46 690.218 87.692 689.206 89.624C682.95 100.756 672.002 113.728 658.754 122.744L648.45 115.108C664.55 105.264 672.646 93.396 677.154 85.484C678.534 83.276 680.466 79.044 681.294 75.824L694.818 80.24ZM807.978 84.564C807.978 87.508 810.37 89.9 813.314 89.9C816.258 89.9 818.65 87.508 818.65 84.564C818.65 81.62 816.258 79.228 813.314 79.228C810.37 79.228 807.978 81.62 807.978 84.564ZM802.274 84.564C802.274 78.492 807.242 73.524 813.314 73.524C819.386 73.524 824.354 78.492 824.354 84.564C824.354 90.636 819.386 95.604 813.314 95.604C807.242 95.604 802.274 90.636 802.274 84.564ZM813.498 91.832C812.578 93.58 811.934 96.248 811.474 98.18C809.358 107.196 805.31 121.548 797.582 131.76C789.302 142.8 777.066 151.908 760.598 157.152L750.57 146.112C768.878 141.88 779.274 133.876 786.634 124.584C792.798 116.948 796.294 106.46 797.49 98.548C791.878 98.548 761.518 98.548 754.618 98.548C750.386 98.548 746.062 98.824 743.67 99.008V85.944C746.43 86.312 751.582 86.772 754.618 86.772C761.518 86.772 792.062 86.772 797.214 86.772C799.054 86.772 801.998 86.68 804.39 86.036L813.498 91.832ZM846.618 81.436C849.102 81.804 853.058 81.988 856.186 81.988C861.982 81.988 886.178 81.988 891.514 81.988C894.458 81.988 898.966 81.804 901.45 81.436V93.396C899.058 93.212 894.734 93.028 891.33 93.028C886.27 93.028 861.614 93.028 856.186 93.028C853.15 93.028 849.286 93.12 846.618 93.396V81.436ZM909.27 108.208C908.626 109.404 907.798 111.06 907.522 111.98C904.67 120.904 900.714 129.92 893.906 137.464C884.614 147.86 872.838 154.024 861.062 157.428L851.862 147.032C865.754 144.088 876.702 138.108 883.786 130.84C888.662 125.872 891.606 120.076 893.17 115.016C888.57 115.016 857.014 115.016 848.826 115.016C846.526 115.016 841.926 115.108 838.062 115.384V103.424C842.018 103.792 845.882 104.068 848.826 104.068C855.082 104.068 888.018 104.068 894.274 104.068C897.31 104.068 899.794 103.7 901.082 103.056L909.27 108.208ZM940.274 82.08C946.622 86.404 958.582 95.972 964.01 101.584L954.626 111.152C949.842 106 938.25 95.972 931.534 91.372L940.274 82.08ZM928.682 143.352C943.126 141.328 954.994 136.636 963.918 131.392C979.65 122.008 991.61 108.024 997.498 95.604L1004.58 108.484C997.682 120.996 985.446 133.692 970.634 142.616C961.25 148.228 949.382 153.288 936.502 155.496L928.682 143.352Z" fill="white"/>
<g filter="url(#filter1_d_9_71)">
<rect x="3" y="605" width="1280" height="123" rx="37" fill="url(#paint1_linear_9_71)"/>
</g>
<path d="M189.401 683.752H214.777V688.328H189.401V683.752ZM196.837 651.772H202.869V658.012H196.837V651.772ZM177.649 655.36H222.889V665.708H216.805V660.04H183.525V665.708H177.649V655.36ZM189.193 662.224H214.673V673.872H189.193V669.4H208.433V666.696H189.193V662.224ZM189.453 676.212H218.625V689.732H212.385V680.788H189.453V676.212ZM185.761 662.224H191.689V689.784H185.761V662.224ZM182.901 644.492H199.281V649.38H182.901V644.492ZM203.961 644.492H224.137V649.38H203.961V644.492ZM183.109 640.436L188.933 641.996C186.905 646.676 183.577 651.408 180.509 654.372C179.313 653.436 176.817 651.772 175.413 651.044C178.533 648.444 181.497 644.388 183.109 640.436ZM204.273 640.436L210.201 641.892C208.329 646.364 205.105 650.68 201.985 653.384C200.737 652.448 198.085 651.096 196.525 650.42C199.853 648.028 202.765 644.232 204.273 640.436ZM184.825 648.288L190.129 646.884C191.429 648.652 192.885 651.148 193.509 652.812L187.893 654.424C187.425 652.812 186.073 650.16 184.825 648.288ZM208.069 648.444L213.529 646.988C215.037 648.704 216.857 651.2 217.689 652.864L211.917 654.476C211.241 652.916 209.525 650.264 208.069 648.444ZM252.737 657.596V662.068H268.493V657.596H252.737ZM252.737 648.34V652.708H268.493V648.34H252.737ZM247.121 643.036H274.421V667.32H247.121V643.036ZM246.757 671.792H274.993V677.408H246.757V671.792ZM243.117 682.4H276.709V688.016H243.117V682.4ZM227.881 643.816H245.145V649.64H227.881V643.816ZM228.401 658.792H244.261V664.564H228.401V658.792ZM227.309 678.552C231.781 677.408 238.437 675.328 244.677 673.3L245.769 679.28C239.945 681.256 233.705 683.284 228.713 684.896L227.309 678.552ZM233.653 646.104H239.581V678.084L233.653 679.02V646.104ZM258.093 645.272H263.345V664.876H263.917V685.052H257.521V664.876H258.093V645.272ZM315.085 646.052H321.637V681.828C321.637 685.572 320.753 687.444 318.257 688.432C315.657 689.524 311.861 689.628 306.505 689.628C306.141 687.756 304.893 684.688 303.905 682.972C307.649 683.232 312.173 683.18 313.421 683.18C314.669 683.128 315.085 682.764 315.085 681.672V646.052ZM285.341 656.452H291.425V680.684H285.341V656.452ZM287.941 656.452H307.545V676.68H287.941V670.752H301.357V662.38H287.941V656.452ZM280.557 644.336H327.669V650.628H280.557V644.336ZM339.473 640.592L345.973 641.996C344.101 646.78 341.761 651.876 339.785 655.204L334.377 653.8C336.249 650.264 338.381 644.752 339.473 640.592ZM331.621 651.252C337.237 651.096 345.661 650.732 353.721 650.368L353.669 655.776C346.025 656.348 338.017 656.816 332.089 657.18L331.621 651.252ZM334.689 659.624H351.225V664.772H340.461V689.628H334.689V659.624ZM348.261 659.624H354.449V683.388C354.449 686.04 353.929 687.6 352.161 688.536C350.341 689.472 348.001 689.576 344.829 689.576C344.517 687.912 343.633 685.52 342.853 684.012C344.673 684.116 346.753 684.116 347.429 684.064C348.053 684.064 348.261 683.908 348.261 683.232V659.624ZM337.341 667.476H351.745V672.104H337.341V667.476ZM337.341 675.12H351.745V679.748H337.341V675.12ZM358.505 641.06H364.745V656.66C364.745 658.48 365.057 658.74 367.033 658.74C367.865 658.74 371.609 658.74 372.701 658.74C374.417 658.74 374.729 657.96 374.937 653.384C376.237 654.372 378.785 655.308 380.501 655.672C379.825 662.432 378.161 664.304 373.325 664.304C372.025 664.304 367.345 664.304 366.149 664.304C360.013 664.304 358.505 662.536 358.505 656.764V641.06ZM374.105 644.128L378.057 648.652C373.429 650.888 367.397 652.864 362.249 654.268C361.989 653.02 361.157 651.148 360.481 649.952C365.317 648.444 370.673 646.104 374.105 644.128ZM358.505 665.344H364.693V681.724C364.693 683.648 365.057 683.856 367.085 683.856C367.969 683.856 371.869 683.856 373.013 683.856C374.833 683.856 375.145 682.92 375.405 677.616C376.705 678.552 379.201 679.54 380.917 679.904C380.241 687.236 378.577 689.316 373.585 689.316C372.285 689.316 367.449 689.316 366.201 689.316C360.065 689.316 358.505 687.548 358.505 681.776V665.344ZM374.521 667.528L378.577 672.104C373.845 674.652 367.553 676.836 362.197 678.344C361.885 677.148 361.001 675.172 360.377 673.976C365.421 672.364 370.985 669.816 374.521 667.528ZM346.545 646.312L351.849 644.336C354.397 648.08 357.101 653.02 358.089 656.452L352.421 658.74C351.537 655.412 349.041 650.212 346.545 646.312ZM431.669 649.848C431.149 650.524 430.161 651.772 429.693 652.5C427.249 656.556 422.309 663.16 417.161 666.8L411.753 662.484C415.965 659.936 420.021 655.36 421.373 652.812C418.201 652.812 397.505 652.812 394.229 652.812C392.097 652.812 390.329 652.916 387.885 653.176V645.896C389.913 646.208 392.097 646.468 394.229 646.468C397.505 646.468 419.553 646.468 422.257 646.468C423.713 646.468 426.573 646.26 427.561 646L431.669 649.848ZM410.505 656.816C410.505 669.712 410.193 680.32 396.049 687.964L389.965 683.024C391.681 682.452 393.553 681.568 395.477 680.112C402.029 675.536 403.277 670.076 403.277 661.548C403.277 659.884 403.225 658.532 402.965 656.816H410.505ZM461.725 643.296C461.569 644.544 461.413 646.728 461.361 647.976C460.789 668.62 455.901 679.176 444.409 687.34L438.325 682.452C440.509 681.256 443.109 679.54 445.189 677.408C452.001 670.648 454.393 661.808 454.445 648.08C454.445 646.936 454.237 644.544 454.029 643.296H461.725ZM479.353 654.476C479.197 655.308 479.041 656.608 479.041 657.18C478.833 662.848 478.157 677.356 475.921 682.66C474.829 685.26 472.801 686.664 469.265 686.664C466.249 686.664 463.181 686.404 460.633 686.196L459.801 679.28C462.401 679.696 465.053 680.008 467.133 680.008C468.797 680.008 469.525 679.436 470.045 678.136C471.553 674.86 472.281 664.46 472.281 658.844H446.905C445.137 658.844 442.225 658.896 440.041 659.104V652.24C442.225 652.5 444.877 652.604 446.853 652.604H470.929C472.281 652.604 473.633 652.5 474.881 652.24L479.353 654.476ZM515.805 642.568C515.493 644.804 515.441 645.844 515.441 647.352C515.441 648.704 515.441 652.864 515.441 654.84H508.161C508.161 652.552 508.161 648.704 508.161 647.352C508.161 645.844 508.109 644.804 507.797 642.568H515.805ZM533.277 653.54C532.913 654.684 532.497 656.66 532.289 657.648C531.353 662.64 530.001 667.684 527.401 672.416C523.293 680.06 515.441 685.572 506.185 688.016L500.777 681.776C503.169 681.36 505.977 680.58 508.161 679.696C512.425 678.084 517.001 675.016 519.965 670.856C522.565 667.008 523.917 662.068 524.541 657.44H498.749C498.749 659.26 498.749 663.472 498.749 665.084C498.749 666.228 498.801 667.892 498.957 668.932H491.781C491.937 667.632 491.989 665.968 491.989 664.564C491.989 662.848 491.989 657.492 491.989 655.516C491.989 654.372 491.989 652.292 491.781 651.096C493.549 651.252 495.109 651.304 497.085 651.304H524.489C526.621 651.304 527.869 651.096 528.805 650.784L533.277 653.54ZM550.593 645.48C554.181 647.924 560.941 653.332 564.009 656.504L558.705 661.912C556.001 659 549.449 653.332 545.653 650.732L550.593 645.48ZM544.041 680.112C552.205 678.968 558.913 676.316 563.957 673.352C572.849 668.048 579.609 660.144 582.937 653.124L586.941 660.404C583.041 667.476 576.125 674.652 567.753 679.696C562.449 682.868 555.741 685.728 548.461 686.976L544.041 680.112ZM606.337 680.06C606.337 676.056 606.337 654.528 606.337 650.16C606.337 648.288 606.181 645.74 605.817 643.868H613.929C613.721 645.74 613.461 647.976 613.461 650.16C613.461 655.88 613.513 676.212 613.513 680.06C613.513 681.516 613.721 685.156 613.981 687.288H605.817C606.181 685.26 606.337 682.088 606.337 680.06ZM611.953 657.336C618.869 659.26 630.101 663.368 635.197 665.864L632.285 673.092C626.357 670.024 617.621 666.696 611.953 664.824V657.336ZM643.569 667.996H669.881V672.988H643.569V667.996ZM644.193 649.64H669.725V654.528H644.193V649.64ZM652.929 664.252L658.701 665.5C656.153 670.856 652.773 677.2 650.277 681.36L644.817 679.696C647.261 675.692 650.693 669.192 652.929 664.252ZM660.313 671.48L666.033 671.948C664.161 682.868 658.701 687.236 646.325 689.732C645.961 688.016 644.817 685.832 643.777 684.584C654.125 683.284 658.649 680.008 660.313 671.48ZM664.005 641.476L669.257 643.556C667.541 645.896 665.877 648.288 664.525 649.9L660.521 648.08C661.717 646.26 663.173 643.452 664.005 641.476ZM654.073 640.8H659.793V664.98H654.073V640.8ZM645.441 643.556L649.913 641.684C651.317 643.66 652.617 646.312 653.085 648.184L648.301 650.264C647.937 648.444 646.741 645.688 645.441 643.556ZM654.229 652.084L658.285 654.528C655.685 658.636 650.693 663.16 646.325 665.604C645.597 664.252 644.245 662.172 643.101 661.028C647.313 659.312 651.993 655.62 654.229 652.084ZM659.273 653.592C661.145 654.476 667.073 657.96 668.529 658.948L665.201 663.264C663.277 661.34 658.649 657.648 656.361 656.036L659.273 653.592ZM673.313 650.264H692.397V656.036H673.313V650.264ZM673.885 640.8L680.177 641.684C678.565 652.448 675.445 662.432 670.661 668.776C669.673 667.632 667.125 665.396 665.721 664.356C670.089 659.052 672.637 650.108 673.885 640.8ZM683.297 653.8L689.693 654.372C687.457 672.156 682.101 683.284 668.945 689.888C668.321 688.38 666.501 685.52 665.357 684.168C677.213 678.968 681.737 669.192 683.297 653.8ZM676.849 654.892C678.929 668.048 683.505 679.28 693.073 684.168C691.617 685.416 689.641 687.912 688.705 689.628C678.253 683.388 673.729 671.324 671.181 655.776L676.849 654.892ZM649.393 679.748L652.721 675.484C658.857 677.824 665.357 681.464 668.893 684.272L664.577 688.692C661.249 685.78 655.217 682.14 649.393 679.748ZM720.061 658.22C717.305 658.22 715.069 656.14 715.069 653.332C715.069 650.472 717.305 648.392 720.061 648.392C722.765 648.392 725.001 650.472 725.001 653.332C725.001 656.14 722.765 658.22 720.061 658.22ZM720.061 683.024C717.305 683.024 715.069 680.944 715.069 678.136C715.069 675.276 717.305 673.196 720.061 673.196C722.765 673.196 725.001 675.276 725.001 678.136C725.001 680.944 722.765 683.024 720.061 683.024ZM763.105 685.517C760.347 685.517 757.891 685.043 755.737 684.095C753.595 683.135 751.902 681.818 750.659 680.143C749.427 678.457 748.794 676.512 748.757 674.308H756.808C756.857 675.232 757.159 676.044 757.713 676.746C758.279 677.435 759.03 677.971 759.965 678.352C760.901 678.734 761.954 678.925 763.123 678.925C764.342 678.925 765.419 678.709 766.355 678.278C767.29 677.848 768.023 677.25 768.552 676.487C769.081 675.724 769.346 674.844 769.346 673.847C769.346 672.837 769.063 671.945 768.497 671.169C767.943 670.381 767.142 669.766 766.096 669.322C765.062 668.879 763.831 668.658 762.403 668.658H758.876V662.786H762.403C763.609 662.786 764.674 662.576 765.597 662.158C766.533 661.739 767.259 661.161 767.776 660.422C768.294 659.671 768.552 658.797 768.552 657.8C768.552 656.852 768.324 656.021 767.869 655.307C767.426 654.58 766.798 654.014 765.985 653.608C765.185 653.202 764.249 652.999 763.178 652.999C762.095 652.999 761.104 653.196 760.205 653.589C759.307 653.971 758.587 654.519 758.045 655.233C757.503 655.947 757.214 656.784 757.177 657.744H749.514C749.551 655.565 750.172 653.645 751.379 651.983C752.585 650.321 754.21 649.022 756.254 648.087C758.31 647.139 760.63 646.665 763.215 646.665C765.825 646.665 768.109 647.139 770.066 648.087C772.024 649.035 773.544 650.315 774.627 651.928C775.723 653.528 776.265 655.325 776.252 657.32C776.265 659.437 775.606 661.204 774.276 662.619C772.959 664.035 771.242 664.934 769.124 665.315V665.611C771.907 665.968 774.024 666.934 775.477 668.51C776.942 670.073 777.668 672.031 777.656 674.382C777.668 676.536 777.046 678.451 775.791 680.125C774.547 681.799 772.83 683.116 770.639 684.077C768.447 685.037 765.936 685.517 763.105 685.517ZM798.231 685.831C795.055 685.819 792.322 685.037 790.032 683.486C787.755 681.935 786.001 679.688 784.77 676.746C783.551 673.804 782.948 670.264 782.96 666.128C782.96 662.004 783.569 658.489 784.788 655.584C786.019 652.679 787.773 650.469 790.051 648.955C792.341 647.428 795.068 646.665 798.231 646.665C801.395 646.665 804.116 647.428 806.393 648.955C808.683 650.481 810.443 652.697 811.675 655.602C812.906 658.495 813.515 662.004 813.503 666.128C813.503 670.277 812.887 673.822 811.656 676.764C810.437 679.706 808.689 681.953 806.412 683.504C804.134 685.055 801.407 685.831 798.231 685.831ZM798.231 679.202C800.398 679.202 802.128 678.112 803.42 675.933C804.713 673.754 805.353 670.486 805.341 666.128C805.341 663.259 805.045 660.871 804.454 658.963C803.876 657.055 803.051 655.621 801.98 654.661C800.921 653.7 799.672 653.22 798.231 653.22C796.077 653.22 794.354 654.297 793.061 656.452C791.768 658.606 791.116 661.831 791.104 666.128C791.104 669.033 791.393 671.458 791.971 673.403C792.562 675.336 793.393 676.789 794.464 677.761C795.535 678.722 796.791 679.202 798.231 679.202ZM834.032 685.831C830.856 685.819 828.123 685.037 825.833 683.486C823.556 681.935 821.802 679.688 820.57 676.746C819.352 673.804 818.749 670.264 818.761 666.128C818.761 662.004 819.37 658.489 820.589 655.584C821.82 652.679 823.574 650.469 825.852 648.955C828.142 647.428 830.868 646.665 834.032 646.665C837.196 646.665 839.917 647.428 842.194 648.955C844.484 650.481 846.244 652.697 847.475 655.602C848.706 658.495 849.316 662.004 849.303 666.128C849.303 670.277 848.688 673.822 847.457 676.764C846.238 679.706 844.49 681.953 842.213 683.504C839.935 685.055 837.208 685.831 834.032 685.831ZM834.032 679.202C836.199 679.202 837.928 678.112 839.221 675.933C840.514 673.754 841.154 670.486 841.142 666.128C841.142 663.259 840.846 660.871 840.255 658.963C839.677 657.055 838.852 655.621 837.781 654.661C836.722 653.7 835.472 653.22 834.032 653.22C831.878 653.22 830.154 654.297 828.862 656.452C827.569 658.606 826.917 661.831 826.904 666.128C826.904 669.033 827.194 671.458 827.772 673.403C828.363 675.336 829.194 676.789 830.265 677.761C831.336 678.722 832.592 679.202 834.032 679.202ZM901.547 649.848C901.027 650.524 900.039 651.772 899.571 652.5C897.127 656.556 892.187 663.16 887.039 666.8L881.631 662.484C885.843 659.936 889.899 655.36 891.251 652.812C888.079 652.812 867.383 652.812 864.107 652.812C861.975 652.812 860.207 652.916 857.763 653.176V645.896C859.791 646.208 861.975 646.468 864.107 646.468C867.383 646.468 889.431 646.468 892.135 646.468C893.591 646.468 896.451 646.26 897.439 646L901.547 649.848ZM880.383 656.816C880.383 669.712 880.071 680.32 865.927 687.964L859.843 683.024C861.559 682.452 863.431 681.568 865.355 680.112C871.907 675.536 873.155 670.076 873.155 661.548C873.155 659.884 873.103 658.532 872.843 656.816H880.383ZM931.603 643.296C931.447 644.544 931.291 646.728 931.239 647.976C930.667 668.62 925.779 679.176 914.287 687.34L908.203 682.452C910.387 681.256 912.987 679.54 915.067 677.408C921.879 670.648 924.271 661.808 924.323 648.08C924.323 646.936 924.115 644.544 923.907 643.296H931.603ZM949.231 654.476C949.075 655.308 948.919 656.608 948.919 657.18C948.711 662.848 948.035 677.356 945.799 682.66C944.707 685.26 942.679 686.664 939.143 686.664C936.127 686.664 933.059 686.404 930.511 686.196L929.679 679.28C932.279 679.696 934.931 680.008 937.011 680.008C938.675 680.008 939.403 679.436 939.923 678.136C941.431 674.86 942.159 664.46 942.159 658.844H916.783C915.015 658.844 912.103 658.896 909.919 659.104V652.24C912.103 652.5 914.755 652.604 916.731 652.604H940.807C942.159 652.604 943.511 652.5 944.759 652.24L949.231 654.476ZM985.683 642.568C985.371 644.804 985.319 645.844 985.319 647.352C985.319 648.704 985.319 652.864 985.319 654.84H978.039C978.039 652.552 978.039 648.704 978.039 647.352C978.039 645.844 977.987 644.804 977.675 642.568H985.683ZM1003.16 653.54C1002.79 654.684 1002.38 656.66 1002.17 657.648C1001.23 662.64 999.879 667.684 997.279 672.416C993.171 680.06 985.319 685.572 976.063 688.016L970.655 681.776C973.047 681.36 975.855 680.58 978.039 679.696C982.303 678.084 986.879 675.016 989.843 670.856C992.443 667.008 993.795 662.068 994.419 657.44H968.627C968.627 659.26 968.627 663.472 968.627 665.084C968.627 666.228 968.679 667.892 968.835 668.932H961.659C961.815 667.632 961.867 665.968 961.867 664.564C961.867 662.848 961.867 657.492 961.867 655.516C961.867 654.372 961.867 652.292 961.659 651.096C963.427 651.252 964.987 651.304 966.963 651.304H994.367C996.499 651.304 997.747 651.096 998.683 650.784L1003.16 653.54ZM1020.47 645.48C1024.06 647.924 1030.82 653.332 1033.89 656.504L1028.58 661.912C1025.88 659 1019.33 653.332 1015.53 650.732L1020.47 645.48ZM1013.92 680.112C1022.08 678.968 1028.79 676.316 1033.84 673.352C1042.73 668.048 1049.49 660.144 1052.82 653.124L1056.82 660.404C1052.92 667.476 1046 674.652 1037.63 679.696C1032.33 682.868 1025.62 685.728 1018.34 686.976L1013.92 680.112ZM1076.22 680.06C1076.22 676.056 1076.22 654.528 1076.22 650.16C1076.22 648.288 1076.06 645.74 1075.7 643.868H1083.81C1083.6 645.74 1083.34 647.976 1083.34 650.16C1083.34 655.88 1083.39 676.212 1083.39 680.06C1083.39 681.516 1083.6 685.156 1083.86 687.288H1075.7C1076.06 685.26 1076.22 682.088 1076.22 680.06ZM1081.83 657.336C1088.75 659.26 1099.98 663.368 1105.08 665.864L1102.16 673.092C1096.24 670.024 1087.5 666.696 1081.83 664.824V657.336Z" fill="white"/>
<g filter="url(#filter2_d_9_71)">
<rect x="3" y="776" width="1280" height="123" rx="37" fill="url(#paint2_linear_9_71)"/>
</g>
<path d="M356.293 825.736H375.533V830.936H356.293V825.736ZM343.501 854.544H388.429V859.64H343.501V854.544ZM346.517 813.776H361.077V818.82H346.517V813.776ZM359.101 813.776H360.141L361.233 813.516L365.289 815.544C361.441 825.736 353.225 833.172 344.489 837.384C343.657 836.084 341.993 833.952 340.745 832.86C348.493 829.584 356.241 822.512 359.101 814.816V813.776ZM370.957 812.008C374.545 820.484 381.825 828.024 390.873 831.456C389.417 832.704 387.597 835.044 386.661 836.656C377.093 832.288 369.969 823.968 365.653 813.672L370.957 812.008ZM344.021 823.136L347.349 819.704C349.689 821.004 352.549 823.032 353.901 824.592L350.417 828.388C349.065 826.828 346.257 824.592 344.021 823.136ZM378.965 812.32L383.645 815.648C380.785 818.092 377.405 820.64 374.805 822.304L371.061 819.392C373.557 817.624 376.989 814.608 378.965 812.32ZM384.841 818.404L389.417 821.628C386.453 824.228 382.865 826.932 380.109 828.648L376.365 825.736C379.069 823.864 382.709 820.796 384.841 818.404ZM356.761 838.892V843.468H374.545V838.892H356.761ZM350.677 833.9H380.993V848.408H350.677V833.9ZM353.693 849.084L359.413 847.628C360.765 849.5 361.909 852.152 362.377 853.92L356.397 855.636C356.033 853.868 354.889 851.112 353.693 849.084ZM372.257 847.576L378.289 848.876C376.989 851.424 375.793 853.764 374.753 855.428L369.293 854.18C370.333 852.36 371.633 849.552 372.257 847.576ZM437.413 835.252L442.301 838.216C440.117 840.608 437.829 843.104 435.957 844.768L432.057 842.168C433.773 840.348 436.113 837.384 437.413 835.252ZM414.273 838.632L418.329 835.98C420.461 837.904 422.749 840.608 423.737 842.584L419.369 845.496C418.537 843.52 416.301 840.66 414.273 838.632ZM416.509 813.62H437.985V831.872H432.213V818.716H416.509V813.62ZM417.653 821.472H435.489V826.256H417.653V821.472ZM414.013 828.908H441.885V834.212H414.013V828.908ZM424.725 831.612H430.497V854.804C430.497 857.352 430.185 858.86 428.521 859.744C426.961 860.628 424.881 860.68 422.021 860.68C421.865 859.12 421.189 856.884 420.513 855.324C421.969 855.376 423.529 855.376 424.049 855.376C424.569 855.376 424.725 855.22 424.725 854.648V831.612ZM412.505 852.152C415.157 850.644 419.057 848.2 422.905 845.704L424.777 850.384C421.709 852.724 418.329 855.168 415.365 857.144L412.505 852.152ZM430.341 835.304C432.005 841.492 435.957 849.24 443.081 852.88C441.833 853.972 439.961 856.416 439.077 857.976C432.265 853.608 428.521 844.664 426.909 838.632L430.341 835.304ZM397.061 824.8H412.453V830H397.061V824.8ZM394.565 833.796H413.545V839.1H394.565V833.796ZM395.085 842.012L399.037 841.024C399.921 843.936 400.649 847.576 400.909 850.072L396.697 851.164C396.593 848.668 395.865 844.924 395.085 842.012ZM393.993 853.92C398.933 853.192 406.317 851.84 413.337 850.592L413.805 855.74C407.305 857.092 400.441 858.548 395.189 859.588L393.993 853.92ZM409.489 840.608L413.961 841.7C413.025 844.664 412.193 847.94 411.413 850.124L407.669 849.084C408.345 846.744 409.125 843.104 409.489 840.608ZM401.689 826.88H407.045V854.908L401.689 855.844V826.88ZM401.429 811.852H404.705V812.996H406.473V814.608C404.445 818.56 401.273 823.916 396.125 828.596C395.293 827.348 393.525 825.372 392.381 824.54C396.749 820.796 399.817 815.908 401.429 811.852ZM402.209 811.852H406.577C409.593 814.452 413.441 818.196 415.313 820.848L411.309 825.632C409.645 822.98 406.109 818.612 403.301 816.272H402.209V811.852ZM480.885 817.052H487.437V852.828C487.437 856.572 486.553 858.444 484.057 859.432C481.457 860.524 477.661 860.628 472.305 860.628C471.941 858.756 470.693 855.688 469.705 853.972C473.449 854.232 477.973 854.18 479.221 854.18C480.469 854.128 480.885 853.764 480.885 852.672V817.052ZM451.141 827.452H457.225V851.684H451.141V827.452ZM453.741 827.452H473.345V847.68H453.741V841.752H467.157V833.38H453.741V827.452ZM446.357 815.336H493.469V821.628H446.357V815.336ZM505.273 811.592L511.773 812.996C509.901 817.78 507.561 822.876 505.585 826.204L500.177 824.8C502.049 821.264 504.181 815.752 505.273 811.592ZM497.421 822.252C503.037 822.096 511.461 821.732 519.521 821.368L519.469 826.776C511.825 827.348 503.817 827.816 497.889 828.18L497.421 822.252ZM500.489 830.624H517.025V835.772H506.261V860.628H500.489V830.624ZM514.061 830.624H520.249V854.388C520.249 857.04 519.729 858.6 517.961 859.536C516.141 860.472 513.801 860.576 510.629 860.576C510.317 858.912 509.433 856.52 508.653 855.012C510.473 855.116 512.553 855.116 513.229 855.064C513.853 855.064 514.061 854.908 514.061 854.232V830.624ZM503.141 838.476H517.545V843.104H503.141V838.476ZM503.141 846.12H517.545V850.748H503.141V846.12ZM524.305 812.06H530.545V827.66C530.545 829.48 530.857 829.74 532.833 829.74C533.665 829.74 537.409 829.74 538.501 829.74C540.217 829.74 540.529 828.96 540.737 824.384C542.037 825.372 544.585 826.308 546.301 826.672C545.625 833.432 543.961 835.304 539.125 835.304C537.825 835.304 533.145 835.304 531.949 835.304C525.813 835.304 524.305 833.536 524.305 827.764V812.06ZM539.905 815.128L543.857 819.652C539.229 821.888 533.197 823.864 528.049 825.268C527.789 824.02 526.957 822.148 526.281 820.952C531.117 819.444 536.473 817.104 539.905 815.128ZM524.305 836.344H530.493V852.724C530.493 854.648 530.857 854.856 532.885 854.856C533.769 854.856 537.669 854.856 538.813 854.856C540.633 854.856 540.945 853.92 541.205 848.616C542.505 849.552 545.001 850.54 546.717 850.904C546.041 858.236 544.377 860.316 539.385 860.316C538.085 860.316 533.249 860.316 532.001 860.316C525.865 860.316 524.305 858.548 524.305 852.776V836.344ZM540.321 838.528L544.377 843.104C539.645 845.652 533.353 847.836 527.997 849.344C527.685 848.148 526.801 846.172 526.177 844.976C531.221 843.364 536.785 840.816 540.321 838.528ZM512.345 817.312L517.649 815.336C520.197 819.08 522.901 824.02 523.889 827.452L518.221 829.74C517.337 826.412 514.841 821.212 512.345 817.312ZM570.429 814.504H597.417V820.432H570.429V814.504ZM568.973 853.036H598.405V858.912H568.973V853.036ZM585.561 832.756H597.105V838.684H585.561V832.756ZM581.973 816.948H588.109V856.468H581.973V816.948ZM572.197 828.284H578.021V855.688H572.197V828.284ZM551.917 828.18H566.945V832.86H551.917V828.18ZM552.229 813.464H566.997V818.196H552.229V813.464ZM551.917 835.46H566.945V840.14H551.917V835.46ZM549.369 820.692H568.817V825.58H549.369V820.692ZM554.777 842.792H567.309V858.6H554.777V853.712H561.953V847.732H554.777V842.792ZM551.761 842.792H557.013V860.68H551.761V842.792ZM606.725 814.712H621.649V846.64H606.725V840.92H615.877V820.328H606.725V814.712ZM606.777 827.712H618.165V833.276H606.777V827.712ZM628.981 813.932H644.945V819.704H628.981V813.932ZM628.981 826.36H644.945V831.976H628.981V826.36ZM628.877 838.684H644.893V844.248H628.877V838.684ZM603.397 814.712H609.169V851.164H603.397V814.712ZM642.605 813.932H648.793V853.556C648.793 856.78 648.117 858.496 646.089 859.484C644.009 860.472 641.045 860.628 636.625 860.628C636.365 858.912 635.377 856.208 634.493 854.596C637.301 854.752 640.473 854.7 641.357 854.7C642.293 854.7 642.605 854.388 642.605 853.452V813.932ZM625.237 813.932H631.373V832.808C631.373 841.804 629.969 854.024 620.349 861.096C619.413 859.848 617.021 857.716 615.669 856.884C624.457 850.488 625.237 840.712 625.237 832.756V813.932ZM660.909 843.884H695.541V860.784H689.249V847.784H666.941V860.836H660.909V843.884ZM664.081 849.708H691.485V853.348H664.081V849.708ZM664.081 855.376H691.485V859.328H664.081V855.376ZM674.481 811.696H680.773V840.712H674.481V811.696ZM659.713 814.972H695.281V830.416H659.141V826.776H689.093V818.612H659.713V814.972ZM654.409 820.484H701.313V824.8H654.409V820.484ZM657.997 832.236H697.465V836.032H657.997V832.236ZM654.305 837.904H701.261V842.22H654.305V837.904ZM705.369 838.996H731.681V843.988H705.369V838.996ZM705.993 820.64H731.525V825.528H705.993V820.64ZM714.729 835.252L720.501 836.5C717.953 841.856 714.573 848.2 712.077 852.36L706.617 850.696C709.061 846.692 712.493 840.192 714.729 835.252ZM722.113 842.48L727.833 842.948C725.961 853.868 720.501 858.236 708.125 860.732C707.761 859.016 706.617 856.832 705.577 855.584C715.925 854.284 720.449 851.008 722.113 842.48ZM725.805 812.476L731.057 814.556C729.341 816.896 727.677 819.288 726.325 820.9L722.321 819.08C723.517 817.26 724.973 814.452 725.805 812.476ZM715.873 811.8H721.593V835.98H715.873V811.8ZM707.241 814.556L711.713 812.684C713.117 814.66 714.417 817.312 714.885 819.184L710.101 821.264C709.737 819.444 708.541 816.688 707.241 814.556ZM716.029 823.084L720.085 825.528C717.485 829.636 712.493 834.16 708.125 836.604C707.397 835.252 706.045 833.172 704.901 832.028C709.113 830.312 713.793 826.62 716.029 823.084ZM721.073 824.592C722.945 825.476 728.873 828.96 730.329 829.948L727.001 834.264C725.077 832.34 720.449 828.648 718.161 827.036L721.073 824.592ZM735.113 821.264H754.197V827.036H735.113V821.264ZM735.685 811.8L741.977 812.684C740.365 823.448 737.245 833.432 732.461 839.776C731.473 838.632 728.925 836.396 727.521 835.356C731.889 830.052 734.437 821.108 735.685 811.8ZM745.097 824.8L751.493 825.372C749.257 843.156 743.901 854.284 730.745 860.888C730.121 859.38 728.301 856.52 727.157 855.168C739.013 849.968 743.537 840.192 745.097 824.8ZM738.649 825.892C740.729 839.048 745.305 850.28 754.873 855.168C753.417 856.416 751.441 858.912 750.505 860.628C740.053 854.388 735.529 842.324 732.981 826.776L738.649 825.892ZM711.193 850.748L714.521 846.484C720.657 848.824 727.157 852.464 730.693 855.272L726.377 859.692C723.049 856.78 717.017 853.14 711.193 850.748ZM781.861 829.22C779.105 829.22 776.869 827.14 776.869 824.332C776.869 821.472 779.105 819.392 781.861 819.392C784.565 819.392 786.801 821.472 786.801 824.332C786.801 827.14 784.565 829.22 781.861 829.22ZM781.861 854.024C779.105 854.024 776.869 851.944 776.869 849.136C776.869 846.276 779.105 844.196 781.861 844.196C784.565 844.196 786.801 846.276 786.801 849.136C786.801 851.944 784.565 854.024 781.861 854.024ZM824.905 856.517C822.148 856.517 819.692 856.043 817.537 855.095C815.395 854.135 813.703 852.818 812.459 851.143C811.228 849.457 810.594 847.512 810.557 845.308H818.608C818.658 846.232 818.959 847.044 819.513 847.746C820.08 848.435 820.831 848.971 821.766 849.352C822.702 849.734 823.754 849.925 824.924 849.925C826.143 849.925 827.22 849.709 828.155 849.278C829.091 848.848 829.823 848.25 830.353 847.487C830.882 846.724 831.147 845.844 831.147 844.847C831.147 843.837 830.864 842.945 830.297 842.169C829.743 841.381 828.943 840.766 827.897 840.322C826.863 839.879 825.632 839.658 824.204 839.658H820.677V833.786H824.204C825.41 833.786 826.475 833.576 827.398 833.158C828.334 832.739 829.06 832.161 829.577 831.422C830.094 830.671 830.353 829.797 830.353 828.8C830.353 827.852 830.125 827.021 829.67 826.307C829.226 825.58 828.599 825.014 827.786 824.608C826.986 824.202 826.05 823.999 824.979 823.999C823.896 823.999 822.905 824.196 822.006 824.589C821.108 824.971 820.387 825.519 819.846 826.233C819.304 826.947 819.015 827.784 818.978 828.744H811.314C811.351 826.565 811.973 824.645 813.18 822.983C814.386 821.321 816.011 820.022 818.055 819.087C820.11 818.139 822.431 817.665 825.016 817.665C827.626 817.665 829.91 818.139 831.867 819.087C833.824 820.035 835.345 821.315 836.428 822.928C837.524 824.528 838.065 826.325 838.053 828.32C838.065 830.437 837.407 832.204 836.077 833.619C834.76 835.035 833.043 835.934 830.925 836.315V836.611C833.707 836.968 835.825 837.934 837.278 839.51C838.742 841.073 839.469 843.031 839.456 845.382C839.469 847.536 838.847 849.451 837.591 851.125C836.348 852.799 834.631 854.116 832.439 855.077C830.248 856.037 827.737 856.517 824.905 856.517ZM874.327 816.272H880.307V857.456H874.327V816.272ZM862.627 820.952H891.591V825.788H862.627V820.952ZM861.067 854.908H892.683V859.848H861.067V854.908ZM863.979 847.784H890.759V852.516H863.979V847.784ZM887.951 812.268L891.539 816.896C883.999 818.352 873.339 818.976 864.499 819.08C864.395 817.728 863.719 815.648 863.147 814.4C871.727 814.14 881.815 813.464 887.951 812.268ZM869.751 838.476V841.128H885.091V838.476H869.751ZM869.751 832.236V834.836H885.091V832.236H869.751ZM864.343 827.92H890.759V845.444H864.343V827.92ZM851.707 816.688H857.791V860.628H851.707V816.688ZM844.219 826.464H863.303V832.288H844.219V826.464ZM852.071 828.804L855.711 830.416C853.735 837.852 850.043 847.108 846.039 852.256C845.467 850.436 844.115 847.836 843.127 846.276C846.767 842.116 850.407 834.576 852.071 828.804ZM859.819 812.372L863.979 817.208C858.675 819.236 851.447 820.64 845.363 821.42C845.103 820.068 844.323 817.988 843.595 816.688C849.367 815.7 855.815 814.192 859.819 812.372ZM857.635 833.692C858.935 834.784 863.459 839.464 864.447 840.66L860.911 845.548C859.663 843.052 856.543 838.32 854.931 836.136L857.635 833.692ZM896.479 840.4H918.995V845.756H896.479V840.4ZM896.479 820.744H918.579V825.58H896.479V820.744ZM913.691 812.736L918.839 814.088C917.539 816.48 916.291 818.82 915.303 820.432L911.299 819.132C912.183 817.312 913.171 814.608 913.691 812.736ZM904.799 812.476H910.207V835.72H904.799V812.476ZM896.895 814.504L901.055 812.944C902.251 814.816 903.395 817.26 903.759 818.924L899.339 820.64C899.079 818.976 898.039 816.428 896.895 814.504ZM905.371 849.916L909.011 846.172C912.183 848.148 916.603 851.216 918.787 853.192L914.939 857.404C912.911 855.376 908.543 852.1 905.371 849.916ZM909.947 825.424C911.819 826.308 917.851 829.896 919.255 830.884L916.031 835.252C914.003 833.328 909.219 829.636 906.879 828.076L909.947 825.424ZM904.435 823.5L908.439 824.956C906.359 829.376 902.615 834.056 898.923 836.552C898.143 835.356 896.479 833.484 895.335 832.548C898.819 830.624 902.511 826.932 904.435 823.5ZM919.203 813.88H944.007V819.236H919.203V813.88ZM926.275 834.68V837.852H936.727V834.68H926.275ZM926.275 842.168V845.444H936.727V842.168H926.275ZM926.275 827.192V830.364H936.727V827.192H926.275ZM920.659 822.512H942.603V850.072H920.659V822.512ZM928.355 816.74L935.219 817.52C934.023 820.744 932.671 823.968 931.631 826.152L926.431 825.112C927.211 822.72 927.991 819.236 928.355 816.74ZM925.131 850.124L930.227 853.4C927.575 856.104 923.207 859.068 919.463 860.732C918.475 859.536 916.759 857.768 915.407 856.728C918.995 855.22 923.103 852.36 925.131 850.124ZM932.151 853.556L936.571 850.488C939.431 852.412 943.331 855.324 945.307 857.3L940.523 860.628C938.807 858.704 935.011 855.636 932.151 853.556ZM904.643 836.812H910.259V842.48C910.259 848.408 908.751 855.584 898.455 860.004C897.831 858.652 896.219 856.416 895.127 855.376C903.603 851.892 904.643 846.588 904.643 842.324V836.812Z" fill="white"/>
<path d="M271.092 400.545L289.568 445.622L276.77 455.319L251.698 400.545H271.092ZM280.92 445.185L299.177 400.545H318.571L293.368 455.319L280.92 445.185ZM294.242 442.914V490H275.547V442.914H294.242ZM311.888 443.875V454.664H256.503V443.875H311.888ZM311.888 461.172V471.961H256.503V461.172H311.888ZM366.509 400.545V490H347.596V418.498H347.071L326.586 431.339V414.566L348.731 400.545H366.509ZM420.135 399.322C424.736 399.322 429.162 400.094 433.414 401.637C437.694 403.181 441.509 405.641 444.858 409.019C448.236 412.397 450.9 416.881 452.851 422.472C454.831 428.034 455.836 434.863 455.865 442.958C455.865 450.558 455.006 457.343 453.288 463.312C451.599 469.252 449.167 474.305 445.993 478.469C442.819 482.633 438.99 485.807 434.506 487.991C430.021 490.146 425.013 491.223 419.48 491.223C413.511 491.223 408.24 490.073 403.668 487.772C399.097 485.443 395.413 482.283 392.618 478.294C389.851 474.276 388.177 469.762 387.595 464.754H406.245C406.973 468.015 408.502 470.548 410.832 472.354C413.161 474.13 416.044 475.018 419.48 475.018C425.304 475.018 429.73 472.485 432.759 467.418C435.787 462.322 437.316 455.348 437.345 446.496H436.733C435.394 449.116 433.589 451.373 431.317 453.266C429.046 455.13 426.44 456.571 423.499 457.59C420.587 458.609 417.486 459.119 414.195 459.119C408.924 459.119 404.222 457.881 400.087 455.406C395.952 452.931 392.69 449.524 390.303 445.185C387.915 440.847 386.721 435.896 386.721 430.335C386.692 424.336 388.075 418.993 390.87 414.304C393.666 409.616 397.568 405.947 402.576 403.297C407.614 400.618 413.467 399.293 420.135 399.322ZM420.266 414.173C417.325 414.173 414.705 414.872 412.404 416.27C410.133 417.668 408.328 419.546 406.988 421.904C405.678 424.263 405.037 426.898 405.066 429.81C405.066 432.751 405.707 435.401 406.988 437.76C408.298 440.089 410.075 441.953 412.317 443.351C414.588 444.719 417.18 445.404 420.092 445.404C422.276 445.404 424.299 444.996 426.163 444.181C428.027 443.365 429.643 442.244 431.011 440.817C432.409 439.362 433.501 437.687 434.287 435.794C435.074 433.902 435.467 431.892 435.467 429.767C435.438 426.942 434.768 424.35 433.457 421.992C432.147 419.633 430.342 417.74 428.041 416.314C425.741 414.887 423.149 414.173 420.266 414.173ZM485.763 477.77L485.283 482.575C484.904 486.418 484.176 490.248 483.099 494.062C482.05 497.906 480.944 501.386 479.779 504.501C478.643 507.617 477.726 510.063 477.027 511.839H464.972C465.409 510.121 466.006 507.719 466.763 504.632C467.52 501.575 468.233 498.139 468.903 494.324C469.573 490.51 469.995 486.622 470.17 482.662L470.388 477.77H485.763ZM532.369 491.223C525.642 491.223 519.658 490.131 514.416 487.947C509.204 485.734 505.113 482.72 502.143 478.906C499.172 475.091 497.687 470.767 497.687 465.933C497.687 462.206 498.532 458.784 500.221 455.668C501.939 452.523 504.268 449.917 507.209 447.85C510.15 445.753 513.441 444.414 517.081 443.831V443.22C512.305 442.259 508.432 439.944 505.462 436.275C502.492 432.577 501.007 428.282 501.007 423.39C501.007 418.76 502.361 414.639 505.069 411.028C507.777 407.388 511.49 404.535 516.207 402.467C520.954 400.371 526.341 399.322 532.369 399.322C538.396 399.322 543.769 400.371 548.486 402.467C553.233 404.564 556.96 407.432 559.668 411.072C562.376 414.683 563.745 418.789 563.774 423.39C563.745 428.311 562.23 432.606 559.231 436.275C556.232 439.944 552.388 442.259 547.7 443.22V443.831C551.282 444.414 554.528 445.753 557.44 447.85C560.381 449.917 562.711 452.523 564.429 455.668C566.176 458.784 567.064 462.206 567.093 465.933C567.064 470.767 565.565 475.091 562.594 478.906C559.624 482.72 555.518 485.734 550.277 487.947C545.065 490.131 539.095 491.223 532.369 491.223ZM532.369 477.333C535.368 477.333 537.989 476.794 540.231 475.717C542.473 474.61 544.22 473.096 545.472 471.174C546.753 469.223 547.394 466.981 547.394 464.448C547.394 461.856 546.739 459.57 545.429 457.59C544.118 455.581 542.342 454.009 540.1 452.873C537.858 451.708 535.28 451.126 532.369 451.126C529.486 451.126 526.909 451.708 524.637 452.873C522.366 454.009 520.575 455.581 519.265 457.59C517.984 459.57 517.343 461.856 517.343 464.448C517.343 466.981 517.969 469.223 519.221 471.174C520.473 473.096 522.235 474.61 524.506 475.717C526.778 476.794 529.398 477.333 532.369 477.333ZM532.369 437.367C534.873 437.367 537.1 436.857 539.051 435.838C541.002 434.819 542.531 433.407 543.638 431.601C544.744 429.796 545.297 427.714 545.297 425.355C545.297 423.026 544.744 420.987 543.638 419.24C542.531 417.464 541.017 416.081 539.095 415.091C537.173 414.071 534.931 413.562 532.369 413.562C529.835 413.562 527.593 414.071 525.642 415.091C523.691 416.081 522.162 417.464 521.056 419.24C519.978 420.987 519.44 423.026 519.44 425.355C519.44 427.714 519.993 429.796 521.099 431.601C522.206 433.407 523.735 434.819 525.686 435.838C527.637 436.857 529.864 437.367 532.369 437.367ZM615.391 491.966C607.879 491.936 601.414 490.087 595.998 486.418C590.611 482.749 586.461 477.435 583.549 470.475C580.667 463.516 579.24 455.144 579.269 445.36C579.269 435.605 580.71 427.292 583.593 420.419C586.505 413.547 590.654 408.32 596.042 404.739C601.458 401.128 607.908 399.322 615.391 399.322C622.875 399.322 629.31 401.128 634.697 404.739C640.114 408.349 644.278 413.591 647.19 420.463C650.102 427.306 651.543 435.605 651.514 445.36C651.514 455.173 650.058 463.56 647.146 470.519C644.263 477.479 640.128 482.793 634.741 486.462C629.354 490.131 622.904 491.966 615.391 491.966ZM615.391 476.285C620.516 476.285 624.608 473.708 627.665 468.554C630.723 463.4 632.237 455.668 632.208 445.36C632.208 438.575 631.509 432.926 630.111 428.413C628.743 423.899 626.792 420.507 624.258 418.235C621.754 415.964 618.798 414.828 615.391 414.828C610.295 414.828 606.219 417.376 603.161 422.472C600.104 427.568 598.56 435.197 598.531 445.36C598.531 452.232 599.216 457.969 600.584 462.57C601.982 467.141 603.947 470.577 606.481 472.878C609.014 475.149 611.984 476.285 615.391 476.285ZM700.074 491.966C692.561 491.936 686.097 490.087 680.68 486.418C675.293 482.749 671.144 477.435 668.232 470.475C665.349 463.516 663.922 455.144 663.951 445.36C663.951 435.605 665.393 427.292 668.276 420.419C671.188 413.547 675.337 408.32 680.724 404.739C686.14 401.128 692.59 399.322 700.074 399.322C707.558 399.322 713.993 401.128 719.38 404.739C724.796 408.349 728.96 413.591 731.872 420.463C734.784 427.306 736.226 435.605 736.196 445.36C736.196 455.173 734.741 463.56 731.829 470.519C728.946 477.479 724.811 482.793 719.424 486.462C714.037 490.131 707.587 491.966 700.074 491.966ZM700.074 476.285C705.199 476.285 709.29 473.708 712.348 468.554C715.405 463.4 716.919 455.668 716.89 445.36C716.89 438.575 716.191 432.926 714.794 428.413C713.425 423.899 711.474 420.507 708.941 418.235C706.437 415.964 703.481 414.828 700.074 414.828C694.978 414.828 690.901 417.376 687.844 422.472C684.786 427.568 683.243 435.197 683.214 445.36C683.214 452.232 683.898 457.969 685.267 462.57C686.665 467.141 688.63 470.577 691.163 472.878C693.697 475.149 696.667 476.285 700.074 476.285ZM821 459.824H793.032V487.792H783.74V459.824H755.772V450.532H783.74V422.564H793.032V450.532H821V459.824ZM875.004 416.032L884.204 412.076C887.608 416.86 891.196 423.208 892.576 427.624L882.824 432.04C881.72 427.716 878.316 421 875.004 416.032ZM908.768 411.8L920.084 415.572C916.864 421.276 913.368 427.164 910.516 431.12L901.132 427.624C903.892 423.3 907.112 416.768 908.768 411.8ZM882.732 459.916H893.588C892.392 476.752 889.08 490.552 871.692 498.464C870.496 495.704 867.46 491.748 865.16 489.724C879.788 483.652 881.812 472.888 882.732 459.916ZM898.464 458.628H909.136V484.112C909.136 486.872 909.32 487.24 910.424 487.24C910.976 487.24 912.908 487.24 913.46 487.24C914.84 487.24 915.208 485.768 915.392 476.2C917.416 477.856 921.924 479.696 924.776 480.432C923.856 493.496 921.188 497.084 914.656 497.084C913.092 497.084 910.056 497.084 908.492 497.084C900.212 497.084 898.464 493.864 898.464 484.204V458.628ZM885.676 439.952V452.464H908.492V439.952H885.676ZM875.188 430.292H919.532V462.032H875.188V430.292ZM851.36 420.448H862.124V498.188H851.36V420.448ZM838.112 437.744H871.876V448.048H838.112V437.744ZM852.004 441.884L858.444 444.736C854.948 457.892 848.416 474.268 841.332 483.376C840.32 480.156 837.928 475.556 836.18 472.796C842.62 465.436 849.06 452.096 852.004 441.884ZM865.712 412.812L873.072 421.368C863.688 424.956 850.9 427.44 840.136 428.82C839.676 426.428 838.296 422.748 837.008 420.448C847.22 418.7 858.628 416.032 865.712 412.812ZM861.848 450.532C864.148 452.464 872.152 460.744 873.9 462.86L867.644 471.508C865.436 467.092 859.916 458.72 857.064 454.856L861.848 450.532Z" fill="#DE4833"/>
<path d="M960.223 416.148L937.489 500.609H928.292L951.026 416.148H960.223ZM980.771 431.762H1019.4V437.164H980.771V431.762ZM980.771 449.596H1019.69V454.924H980.771V449.596ZM980.179 467.504H1019.32V472.832H980.179V467.504ZM977.367 431.762H982.991V454.628C982.991 467.43 981.141 484.894 968.413 495.994C967.599 494.81 965.379 492.812 964.195 491.998C976.109 481.564 977.367 466.542 977.367 454.628V431.762ZM1016.96 431.762H1022.73V487.78C1022.73 491.702 1021.69 493.626 1018.88 494.588C1015.99 495.55 1011.11 495.624 1003.12 495.624C1002.75 493.996 1001.71 491.332 1000.75 489.778C1006.89 490 1012.96 489.926 1014.66 489.926C1016.36 489.852 1016.96 489.334 1016.96 487.706V431.762Z" fill="black"/>
<line x1="140" y1="532" x2="1146" y2="532" stroke="black" stroke-width="6"/>
<defs>
<filter id="filter0_d_9_71" x="81" y="0" width="1144" height="256" filterUnits="userSpaceOnUse" color-interpolation-filters="sRGB">
<feFlood flood-opacity="0" result="BackgroundImageFix"/>
<feColorMatrix in="SourceAlpha" type="matrix" values="0 0 0 0 0 0 0 0 0 0 0 0 0 0 0 0 0 0 127 0" result="hardAlpha"/>
<feOffset dx="10" dy="9"/>
<feGaussianBlur stdDeviation="6.5"/>
<feComposite in2="hardAlpha" operator="out"/>
<feColorMatrix type="matrix" values="0 0 0 0 0 0 0 0 0 0 0 0 0 0 0 0 0 0 0.25 0"/>
<feBlend mode="normal" in2="BackgroundImageFix" result="effect1_dropShadow_9_71"/>
<feBlend mode="normal" in="SourceGraphic" in2="effect1_dropShadow_9_71" result="shape"/>
</filter>
<filter id="filter1_d_9_71" x="0" y="601" width="1306" height="149" filterUnits="userSpaceOnUse" color-interpolation-filters="sRGB">
<feFlood flood-opacity="0" result="BackgroundImageFix"/>
<feColorMatrix in="SourceAlpha" type="matrix" values="0 0 0 0 0 0 0 0 0 0 0 0 0 0 0 0 0 0 127 0" result="hardAlpha"/>
<feOffset dx="10" dy="9"/>
<feGaussianBlur stdDeviation="6.5"/>
<feComposite in2="hardAlpha" operator="out"/>
<feColorMatrix type="matrix" values="0 0 0 0 0 0 0 0 0 0 0 0 0 0 0 0 0 0 0.25 0"/>
<feBlend mode="normal" in2="BackgroundImageFix" result="effect1_dropShadow_9_71"/>
<feBlend mode="normal" in="SourceGraphic" in2="effect1_dropShadow_9_71" result="shape"/>
</filter>
<filter id="filter2_d_9_71" x="0" y="772" width="1306" height="149" filterUnits="userSpaceOnUse" color-interpolation-filters="sRGB">
<feFlood flood-opacity="0" result="BackgroundImageFix"/>
<feColorMatrix in="SourceAlpha" type="matrix" values="0 0 0 0 0 0 0 0 0 0 0 0 0 0 0 0 0 0 127 0" result="hardAlpha"/>
<feOffset dx="10" dy="9"/>
<feGaussianBlur stdDeviation="6.5"/>
<feComposite in2="hardAlpha" operator="out"/>
<feColorMatrix type="matrix" values="0 0 0 0 0 0 0 0 0 0 0 0 0 0 0 0 0 0 0.25 0"/>
<feBlend mode="normal" in2="BackgroundImageFix" result="effect1_dropShadow_9_71"/>
<feBlend mode="normal" in="SourceGraphic" in2="effect1_dropShadow_9_71" result="shape"/>
</filter>
<linearGradient id="paint0_linear_9_71" x1="84" y1="119" x2="1202" y2="119" gradientUnits="userSpaceOnUse">
<stop stop-color="#E6E653"/>
</linearGradient>
<linearGradient id="paint1_linear_9_71" x1="3" y1="666.5" x2="1283" y2="666.5" gradientUnits="userSpaceOnUse">
<stop stop-color="#6770E6"/>
</linearGradient>
<linearGradient id="paint2_linear_9_71" x1="3" y1="837.5" x2="1283" y2="837.5" gradientUnits="userSpaceOnUse">
<stop stop-color="#6770E6"/>
</linearGradient>
</defs>
</svg>
