<svg width="1306" height="921" viewBox="0 0 1306 921" fill="none" xmlns="http://www.w3.org/2000/svg">
<g filter="url(#filter0_d_9_57)">
<rect x="84" y="4" width="1118" height="230" rx="88" fill="url(#paint0_linear_9_57)"/>
</g>
<path d="M387.516 81.436C390 81.804 393.956 81.988 397.084 81.988C402.88 81.988 427.076 81.988 432.412 81.988C435.356 81.988 439.864 81.804 442.348 81.436V93.396C439.956 93.212 435.632 93.028 432.228 93.028C427.168 93.028 402.512 93.028 397.084 93.028C394.048 93.028 390.184 93.12 387.516 93.396V81.436ZM450.168 108.208C449.524 109.404 448.696 111.06 448.42 111.98C445.568 120.904 441.612 129.92 434.804 137.464C425.512 147.86 413.736 154.024 401.96 157.428L392.76 147.032C406.652 144.088 417.6 138.108 424.684 130.84C429.56 125.872 432.504 120.076 434.068 115.016C429.468 115.016 397.912 115.016 389.724 115.016C387.424 115.016 382.824 115.108 378.96 115.384V103.424C382.916 103.792 386.78 104.068 389.724 104.068C395.98 104.068 428.916 104.068 435.172 104.068C438.208 104.068 440.692 103.7 441.98 103.056L450.168 108.208ZM464.704 116.304C481.172 112.072 494.604 106.092 504.908 99.744C514.292 93.948 524.78 84.748 530.76 77.48L540.696 86.864C532.324 95.328 521.1 103.976 510.244 110.508C499.848 116.672 484.944 123.572 470.408 127.896L464.704 116.304ZM502.976 105.724L516.04 102.596V144.088C516.04 148.136 516.224 153.84 516.868 156.14H502.24C502.608 153.932 502.976 148.136 502.976 144.088V105.724ZM579.796 143.26C579.796 136.176 579.796 98.088 579.796 90.36C579.796 87.048 579.52 82.54 578.876 79.228H593.228C592.86 82.54 592.4 86.496 592.4 90.36C592.4 100.48 592.492 136.452 592.492 143.26C592.492 145.836 592.86 152.276 593.32 156.048H578.876C579.52 152.46 579.796 146.848 579.796 143.26ZM589.732 103.056C601.968 106.46 621.84 113.728 630.856 118.144L625.704 130.932C615.216 125.504 599.76 119.616 589.732 116.304V103.056ZM716.876 84.564C716.876 87.508 719.268 89.9 722.212 89.9C725.156 89.9 727.548 87.508 727.548 84.564C727.548 81.62 725.156 79.228 722.212 79.228C719.268 79.228 716.876 81.62 716.876 84.564ZM711.172 84.564C711.172 78.492 716.14 73.524 722.212 73.524C728.284 73.524 733.252 78.492 733.252 84.564C733.252 90.636 728.284 95.604 722.212 95.604C716.14 95.604 711.172 90.636 711.172 84.564ZM722.396 91.832C721.476 93.58 720.832 96.248 720.372 98.18C718.256 107.196 714.208 121.548 706.48 131.76C698.2 142.8 685.964 151.908 669.496 157.152L659.468 146.112C677.776 141.88 688.172 133.876 695.532 124.584C701.696 116.948 705.192 106.46 706.388 98.548C700.776 98.548 670.416 98.548 663.516 98.548C659.284 98.548 654.96 98.824 652.568 99.008V85.944C655.328 86.312 660.48 86.772 663.516 86.772C670.416 86.772 700.96 86.772 706.112 86.772C707.952 86.772 710.896 86.68 713.288 86.036L722.396 91.832ZM755.516 81.436C758 81.804 761.956 81.988 765.084 81.988C770.88 81.988 795.076 81.988 800.412 81.988C803.356 81.988 807.864 81.804 810.348 81.436V93.396C807.956 93.212 803.632 93.028 800.228 93.028C795.168 93.028 770.512 93.028 765.084 93.028C762.048 93.028 758.184 93.12 755.516 93.396V81.436ZM818.168 108.208C817.524 109.404 816.696 111.06 816.42 111.98C813.568 120.904 809.612 129.92 802.804 137.464C793.512 147.86 781.736 154.024 769.96 157.428L760.76 147.032C774.652 144.088 785.6 138.108 792.684 130.84C797.56 125.872 800.504 120.076 802.068 115.016C797.468 115.016 765.912 115.016 757.724 115.016C755.424 115.016 750.824 115.108 746.96 115.384V103.424C750.916 103.792 754.78 104.068 757.724 104.068C763.98 104.068 796.916 104.068 803.172 104.068C806.208 104.068 808.692 103.7 809.98 103.056L818.168 108.208ZM849.172 82.08C855.52 86.404 867.48 95.972 872.908 101.584L863.524 111.152C858.74 106 847.148 95.972 840.432 91.372L849.172 82.08ZM837.58 143.352C852.024 141.328 863.892 136.636 872.816 131.392C888.548 122.008 900.508 108.024 906.396 95.604L913.48 108.484C906.58 120.996 894.344 133.692 879.532 142.616C870.148 148.228 858.28 153.288 845.4 155.496L837.58 143.352Z" fill="white"/>
<g filter="url(#filter1_d_9_57)">
<rect x="3" y="605" width="1280" height="123" rx="37" fill="url(#paint1_linear_9_57)"/>
</g>
<path d="M193.819 683.752H219.195V688.328H193.819V683.752ZM201.255 651.772H207.287V658.012H201.255V651.772ZM182.067 655.36H227.307V665.708H221.223V660.04H187.943V665.708H182.067V655.36ZM193.611 662.224H219.091V673.872H193.611V669.4H212.851V666.696H193.611V662.224ZM193.871 676.212H223.043V689.732H216.803V680.788H193.871V676.212ZM190.179 662.224H196.107V689.784H190.179V662.224ZM187.319 644.492H203.699V649.38H187.319V644.492ZM208.379 644.492H228.555V649.38H208.379V644.492ZM187.527 640.436L193.351 641.996C191.323 646.676 187.995 651.408 184.927 654.372C183.731 653.436 181.235 651.772 179.831 651.044C182.951 648.444 185.915 644.388 187.527 640.436ZM208.691 640.436L214.619 641.892C212.747 646.364 209.523 650.68 206.403 653.384C205.155 652.448 202.503 651.096 200.943 650.42C204.271 648.028 207.183 644.232 208.691 640.436ZM189.243 648.288L194.547 646.884C195.847 648.652 197.303 651.148 197.927 652.812L192.311 654.424C191.843 652.812 190.491 650.16 189.243 648.288ZM212.487 648.444L217.947 646.988C219.455 648.704 221.275 651.2 222.107 652.864L216.335 654.476C215.659 652.916 213.943 650.264 212.487 648.444ZM257.155 657.596V662.068H272.911V657.596H257.155ZM257.155 648.34V652.708H272.911V648.34H257.155ZM251.539 643.036H278.839V667.32H251.539V643.036ZM251.175 671.792H279.411V677.408H251.175V671.792ZM247.535 682.4H281.127V688.016H247.535V682.4ZM232.299 643.816H249.563V649.64H232.299V643.816ZM232.819 658.792H248.679V664.564H232.819V658.792ZM231.727 678.552C236.199 677.408 242.855 675.328 249.095 673.3L250.187 679.28C244.363 681.256 238.123 683.284 233.131 684.896L231.727 678.552ZM238.071 646.104H243.999V678.084L238.071 679.02V646.104ZM262.511 645.272H267.763V664.876H268.335V685.052H261.939V664.876H262.511V645.272ZM319.503 646.052H326.055V681.828C326.055 685.572 325.171 687.444 322.675 688.432C320.075 689.524 316.279 689.628 310.923 689.628C310.559 687.756 309.311 684.688 308.323 682.972C312.067 683.232 316.591 683.18 317.839 683.18C319.087 683.128 319.503 682.764 319.503 681.672V646.052ZM289.759 656.452H295.843V680.684H289.759V656.452ZM292.359 656.452H311.963V676.68H292.359V670.752H305.775V662.38H292.359V656.452ZM284.975 644.336H332.087V650.628H284.975V644.336ZM343.891 640.592L350.391 641.996C348.519 646.78 346.179 651.876 344.203 655.204L338.795 653.8C340.667 650.264 342.799 644.752 343.891 640.592ZM336.039 651.252C341.655 651.096 350.079 650.732 358.139 650.368L358.087 655.776C350.443 656.348 342.435 656.816 336.507 657.18L336.039 651.252ZM339.107 659.624H355.643V664.772H344.879V689.628H339.107V659.624ZM352.679 659.624H358.867V683.388C358.867 686.04 358.347 687.6 356.579 688.536C354.759 689.472 352.419 689.576 349.247 689.576C348.935 687.912 348.051 685.52 347.271 684.012C349.091 684.116 351.171 684.116 351.847 684.064C352.471 684.064 352.679 683.908 352.679 683.232V659.624ZM341.759 667.476H356.163V672.104H341.759V667.476ZM341.759 675.12H356.163V679.748H341.759V675.12ZM362.923 641.06H369.163V656.66C369.163 658.48 369.475 658.74 371.451 658.74C372.283 658.74 376.027 658.74 377.119 658.74C378.835 658.74 379.147 657.96 379.355 653.384C380.655 654.372 383.203 655.308 384.919 655.672C384.243 662.432 382.579 664.304 377.743 664.304C376.443 664.304 371.763 664.304 370.567 664.304C364.431 664.304 362.923 662.536 362.923 656.764V641.06ZM378.523 644.128L382.475 648.652C377.847 650.888 371.815 652.864 366.667 654.268C366.407 653.02 365.575 651.148 364.899 649.952C369.735 648.444 375.091 646.104 378.523 644.128ZM362.923 665.344H369.111V681.724C369.111 683.648 369.475 683.856 371.503 683.856C372.387 683.856 376.287 683.856 377.431 683.856C379.251 683.856 379.563 682.92 379.823 677.616C381.123 678.552 383.619 679.54 385.335 679.904C384.659 687.236 382.995 689.316 378.003 689.316C376.703 689.316 371.867 689.316 370.619 689.316C364.483 689.316 362.923 687.548 362.923 681.776V665.344ZM378.939 667.528L382.995 672.104C378.263 674.652 371.971 676.836 366.615 678.344C366.303 677.148 365.419 675.172 364.795 673.976C369.839 672.364 375.403 669.816 378.939 667.528ZM350.963 646.312L356.267 644.336C358.815 648.08 361.519 653.02 362.507 656.452L356.839 658.74C355.955 655.412 353.459 650.212 350.963 646.312ZM436.087 649.848C435.567 650.524 434.579 651.772 434.111 652.5C431.667 656.556 426.727 663.16 421.579 666.8L416.171 662.484C420.383 659.936 424.439 655.36 425.791 652.812C422.619 652.812 401.923 652.812 398.647 652.812C396.515 652.812 394.747 652.916 392.303 653.176V645.896C394.331 646.208 396.515 646.468 398.647 646.468C401.923 646.468 423.971 646.468 426.675 646.468C428.131 646.468 430.991 646.26 431.979 646L436.087 649.848ZM414.923 656.816C414.923 669.712 414.611 680.32 400.467 687.964L394.383 683.024C396.099 682.452 397.971 681.568 399.895 680.112C406.447 675.536 407.695 670.076 407.695 661.548C407.695 659.884 407.643 658.532 407.383 656.816H414.923ZM466.143 643.296C465.987 644.544 465.831 646.728 465.779 647.976C465.207 668.62 460.319 679.176 448.827 687.34L442.743 682.452C444.927 681.256 447.527 679.54 449.607 677.408C456.419 670.648 458.811 661.808 458.863 648.08C458.863 646.936 458.655 644.544 458.447 643.296H466.143ZM483.771 654.476C483.615 655.308 483.459 656.608 483.459 657.18C483.251 662.848 482.575 677.356 480.339 682.66C479.247 685.26 477.219 686.664 473.683 686.664C470.667 686.664 467.599 686.404 465.051 686.196L464.219 679.28C466.819 679.696 469.471 680.008 471.551 680.008C473.215 680.008 473.943 679.436 474.463 678.136C475.971 674.86 476.699 664.46 476.699 658.844H451.323C449.555 658.844 446.643 658.896 444.459 659.104V652.24C446.643 652.5 449.295 652.604 451.271 652.604H475.347C476.699 652.604 478.051 652.5 479.299 652.24L483.771 654.476ZM520.223 642.568C519.911 644.804 519.859 645.844 519.859 647.352C519.859 648.704 519.859 652.864 519.859 654.84H512.579C512.579 652.552 512.579 648.704 512.579 647.352C512.579 645.844 512.527 644.804 512.215 642.568H520.223ZM537.695 653.54C537.331 654.684 536.915 656.66 536.707 657.648C535.771 662.64 534.419 667.684 531.819 672.416C527.711 680.06 519.859 685.572 510.603 688.016L505.195 681.776C507.587 681.36 510.395 680.58 512.579 679.696C516.843 678.084 521.419 675.016 524.383 670.856C526.983 667.008 528.335 662.068 528.959 657.44H503.167C503.167 659.26 503.167 663.472 503.167 665.084C503.167 666.228 503.219 667.892 503.375 668.932H496.199C496.355 667.632 496.407 665.968 496.407 664.564C496.407 662.848 496.407 657.492 496.407 655.516C496.407 654.372 496.407 652.292 496.199 651.096C497.967 651.252 499.527 651.304 501.503 651.304H528.907C531.039 651.304 532.287 651.096 533.223 650.784L537.695 653.54ZM555.011 645.48C558.599 647.924 565.359 653.332 568.427 656.504L563.123 661.912C560.419 659 553.867 653.332 550.071 650.732L555.011 645.48ZM548.459 680.112C556.623 678.968 563.331 676.316 568.375 673.352C577.267 668.048 584.027 660.144 587.355 653.124L591.359 660.404C587.459 667.476 580.543 674.652 572.171 679.696C566.867 682.868 560.159 685.728 552.879 686.976L548.459 680.112ZM610.755 680.06C610.755 676.056 610.755 654.528 610.755 650.16C610.755 648.288 610.599 645.74 610.235 643.868H618.347C618.139 645.74 617.879 647.976 617.879 650.16C617.879 655.88 617.931 676.212 617.931 680.06C617.931 681.516 618.139 685.156 618.399 687.288H610.235C610.599 685.26 610.755 682.088 610.755 680.06ZM616.371 657.336C623.287 659.26 634.519 663.368 639.615 665.864L636.703 673.092C630.775 670.024 622.039 666.696 616.371 664.824V657.336ZM647.987 667.996H674.299V672.988H647.987V667.996ZM648.611 649.64H674.143V654.528H648.611V649.64ZM657.347 664.252L663.119 665.5C660.571 670.856 657.191 677.2 654.695 681.36L649.235 679.696C651.679 675.692 655.111 669.192 657.347 664.252ZM664.731 671.48L670.451 671.948C668.579 682.868 663.119 687.236 650.743 689.732C650.379 688.016 649.235 685.832 648.195 684.584C658.543 683.284 663.067 680.008 664.731 671.48ZM668.423 641.476L673.675 643.556C671.959 645.896 670.295 648.288 668.943 649.9L664.939 648.08C666.135 646.26 667.591 643.452 668.423 641.476ZM658.491 640.8H664.211V664.98H658.491V640.8ZM649.859 643.556L654.331 641.684C655.735 643.66 657.035 646.312 657.503 648.184L652.719 650.264C652.355 648.444 651.159 645.688 649.859 643.556ZM658.647 652.084L662.703 654.528C660.103 658.636 655.111 663.16 650.743 665.604C650.015 664.252 648.663 662.172 647.519 661.028C651.731 659.312 656.411 655.62 658.647 652.084ZM663.691 653.592C665.563 654.476 671.491 657.96 672.947 658.948L669.619 663.264C667.695 661.34 663.067 657.648 660.779 656.036L663.691 653.592ZM677.731 650.264H696.815V656.036H677.731V650.264ZM678.303 640.8L684.595 641.684C682.983 652.448 679.863 662.432 675.079 668.776C674.091 667.632 671.543 665.396 670.139 664.356C674.507 659.052 677.055 650.108 678.303 640.8ZM687.715 653.8L694.111 654.372C691.875 672.156 686.519 683.284 673.363 689.888C672.739 688.38 670.919 685.52 669.775 684.168C681.631 678.968 686.155 669.192 687.715 653.8ZM681.267 654.892C683.347 668.048 687.923 679.28 697.491 684.168C696.035 685.416 694.059 687.912 693.123 689.628C682.671 683.388 678.147 671.324 675.599 655.776L681.267 654.892ZM653.811 679.748L657.139 675.484C663.275 677.824 669.775 681.464 673.311 684.272L668.995 688.692C665.667 685.78 659.635 682.14 653.811 679.748ZM724.479 658.22C721.723 658.22 719.487 656.14 719.487 653.332C719.487 650.472 721.723 648.392 724.479 648.392C727.183 648.392 729.419 650.472 729.419 653.332C729.419 656.14 727.183 658.22 724.479 658.22ZM724.479 683.024C721.723 683.024 719.487 680.944 719.487 678.136C719.487 675.276 721.723 673.196 724.479 673.196C727.183 673.196 729.419 675.276 729.419 678.136C729.419 680.944 727.183 683.024 724.479 683.024ZM769.997 647.182V685H762.001V654.771H761.78L753.119 660.2V653.109L762.481 647.182H769.997ZM793.813 685.831C790.637 685.819 787.904 685.037 785.615 683.486C783.337 681.935 781.583 679.688 780.352 676.746C779.133 673.804 778.53 670.264 778.542 666.128C778.542 662.004 779.151 658.489 780.37 655.584C781.601 652.679 783.356 650.469 785.633 648.955C787.923 647.428 790.65 646.665 793.813 646.665C796.977 646.665 799.698 647.428 801.975 648.955C804.265 650.481 806.026 652.697 807.257 655.602C808.488 658.495 809.097 662.004 809.085 666.128C809.085 670.277 808.469 673.822 807.238 676.764C806.019 679.706 804.271 681.953 801.994 683.504C799.716 685.055 796.99 685.831 793.813 685.831ZM793.813 679.202C795.98 679.202 797.71 678.112 799.002 675.933C800.295 673.754 800.935 670.486 800.923 666.128C800.923 663.259 800.627 660.871 800.036 658.963C799.458 657.055 798.633 655.621 797.562 654.661C796.503 653.7 795.254 653.22 793.813 653.22C791.659 653.22 789.936 654.297 788.643 656.452C787.35 658.606 786.698 661.831 786.686 666.128C786.686 669.033 786.975 671.458 787.553 673.403C788.144 675.336 788.975 676.789 790.046 677.761C791.117 678.722 792.373 679.202 793.813 679.202ZM829.614 685.831C826.438 685.819 823.705 685.037 821.415 683.486C819.138 681.935 817.384 679.688 816.153 676.746C814.934 673.804 814.331 670.264 814.343 666.128C814.343 662.004 814.952 658.489 816.171 655.584C817.402 652.679 819.156 650.469 821.434 648.955C823.724 647.428 826.45 646.665 829.614 646.665C832.778 646.665 835.499 647.428 837.776 648.955C840.066 650.481 841.826 652.697 843.057 655.602C844.288 658.495 844.898 662.004 844.885 666.128C844.885 670.277 844.27 673.822 843.039 676.764C841.82 679.706 840.072 681.953 837.795 683.504C835.517 685.055 832.79 685.831 829.614 685.831ZM829.614 679.202C831.781 679.202 833.51 678.112 834.803 675.933C836.096 673.754 836.736 670.486 836.724 666.128C836.724 663.259 836.428 660.871 835.837 658.963C835.259 657.055 834.434 655.621 833.363 654.661C832.304 653.7 831.055 653.22 829.614 653.22C827.46 653.22 825.736 654.297 824.444 656.452C823.151 658.606 822.499 661.831 822.486 666.128C822.486 669.033 822.776 671.458 823.354 673.403C823.945 675.336 824.776 676.789 825.847 677.761C826.918 678.722 828.174 679.202 829.614 679.202ZM897.129 649.848C896.609 650.524 895.621 651.772 895.153 652.5C892.709 656.556 887.769 663.16 882.621 666.8L877.213 662.484C881.425 659.936 885.481 655.36 886.833 652.812C883.661 652.812 862.965 652.812 859.689 652.812C857.557 652.812 855.789 652.916 853.345 653.176V645.896C855.373 646.208 857.557 646.468 859.689 646.468C862.965 646.468 885.013 646.468 887.717 646.468C889.173 646.468 892.033 646.26 893.021 646L897.129 649.848ZM875.965 656.816C875.965 669.712 875.653 680.32 861.509 687.964L855.425 683.024C857.141 682.452 859.013 681.568 860.937 680.112C867.489 675.536 868.737 670.076 868.737 661.548C868.737 659.884 868.685 658.532 868.425 656.816H875.965ZM927.185 643.296C927.029 644.544 926.873 646.728 926.821 647.976C926.249 668.62 921.361 679.176 909.869 687.34L903.785 682.452C905.969 681.256 908.569 679.54 910.649 677.408C917.461 670.648 919.853 661.808 919.905 648.08C919.905 646.936 919.697 644.544 919.489 643.296H927.185ZM944.813 654.476C944.657 655.308 944.501 656.608 944.501 657.18C944.293 662.848 943.617 677.356 941.381 682.66C940.289 685.26 938.261 686.664 934.725 686.664C931.709 686.664 928.641 686.404 926.093 686.196L925.261 679.28C927.861 679.696 930.513 680.008 932.593 680.008C934.257 680.008 934.985 679.436 935.505 678.136C937.013 674.86 937.741 664.46 937.741 658.844H912.365C910.597 658.844 907.685 658.896 905.501 659.104V652.24C907.685 652.5 910.337 652.604 912.313 652.604H936.389C937.741 652.604 939.093 652.5 940.341 652.24L944.813 654.476ZM981.265 642.568C980.953 644.804 980.901 645.844 980.901 647.352C980.901 648.704 980.901 652.864 980.901 654.84H973.621C973.621 652.552 973.621 648.704 973.621 647.352C973.621 645.844 973.569 644.804 973.257 642.568H981.265ZM998.737 653.54C998.373 654.684 997.957 656.66 997.749 657.648C996.813 662.64 995.461 667.684 992.861 672.416C988.753 680.06 980.901 685.572 971.645 688.016L966.237 681.776C968.629 681.36 971.437 680.58 973.621 679.696C977.885 678.084 982.461 675.016 985.425 670.856C988.025 667.008 989.377 662.068 990.001 657.44H964.209C964.209 659.26 964.209 663.472 964.209 665.084C964.209 666.228 964.261 667.892 964.417 668.932H957.241C957.397 667.632 957.449 665.968 957.449 664.564C957.449 662.848 957.449 657.492 957.449 655.516C957.449 654.372 957.449 652.292 957.241 651.096C959.009 651.252 960.569 651.304 962.545 651.304H989.949C992.081 651.304 993.329 651.096 994.265 650.784L998.737 653.54ZM1016.05 645.48C1019.64 647.924 1026.4 653.332 1029.47 656.504L1024.17 661.912C1021.46 659 1014.91 653.332 1011.11 650.732L1016.05 645.48ZM1009.5 680.112C1017.67 678.968 1024.37 676.316 1029.42 673.352C1038.31 668.048 1045.07 660.144 1048.4 653.124L1052.4 660.404C1048.5 667.476 1041.59 674.652 1033.21 679.696C1027.91 682.868 1021.2 685.728 1013.92 686.976L1009.5 680.112ZM1071.8 680.06C1071.8 676.056 1071.8 654.528 1071.8 650.16C1071.8 648.288 1071.64 645.74 1071.28 643.868H1079.39C1079.18 645.74 1078.92 647.976 1078.92 650.16C1078.92 655.88 1078.97 676.212 1078.97 680.06C1078.97 681.516 1079.18 685.156 1079.44 687.288H1071.28C1071.64 685.26 1071.8 682.088 1071.8 680.06ZM1077.41 657.336C1084.33 659.26 1095.56 663.368 1100.66 665.864L1097.75 673.092C1091.82 670.024 1083.08 666.696 1077.41 664.824V657.336Z" fill="white"/>
<g filter="url(#filter2_d_9_57)">
<rect x="3" y="776" width="1280" height="123" rx="37" fill="url(#paint2_linear_9_57)"/>
</g>
<path d="M360.711 825.736H379.951V830.936H360.711V825.736ZM347.919 854.544H392.847V859.64H347.919V854.544ZM350.935 813.776H365.495V818.82H350.935V813.776ZM363.519 813.776H364.559L365.651 813.516L369.707 815.544C365.859 825.736 357.643 833.172 348.907 837.384C348.075 836.084 346.411 833.952 345.163 832.86C352.911 829.584 360.659 822.512 363.519 814.816V813.776ZM375.375 812.008C378.963 820.484 386.243 828.024 395.291 831.456C393.835 832.704 392.015 835.044 391.079 836.656C381.511 832.288 374.387 823.968 370.071 813.672L375.375 812.008ZM348.439 823.136L351.767 819.704C354.107 821.004 356.967 823.032 358.319 824.592L354.835 828.388C353.483 826.828 350.675 824.592 348.439 823.136ZM383.383 812.32L388.063 815.648C385.203 818.092 381.823 820.64 379.223 822.304L375.479 819.392C377.975 817.624 381.407 814.608 383.383 812.32ZM389.259 818.404L393.835 821.628C390.871 824.228 387.283 826.932 384.527 828.648L380.783 825.736C383.487 823.864 387.127 820.796 389.259 818.404ZM361.179 838.892V843.468H378.963V838.892H361.179ZM355.095 833.9H385.411V848.408H355.095V833.9ZM358.111 849.084L363.831 847.628C365.183 849.5 366.327 852.152 366.795 853.92L360.815 855.636C360.451 853.868 359.307 851.112 358.111 849.084ZM376.675 847.576L382.707 848.876C381.407 851.424 380.211 853.764 379.171 855.428L373.711 854.18C374.751 852.36 376.051 849.552 376.675 847.576ZM441.831 835.252L446.719 838.216C444.535 840.608 442.247 843.104 440.375 844.768L436.475 842.168C438.191 840.348 440.531 837.384 441.831 835.252ZM418.691 838.632L422.747 835.98C424.879 837.904 427.167 840.608 428.155 842.584L423.787 845.496C422.955 843.52 420.719 840.66 418.691 838.632ZM420.927 813.62H442.403V831.872H436.631V818.716H420.927V813.62ZM422.071 821.472H439.907V826.256H422.071V821.472ZM418.431 828.908H446.303V834.212H418.431V828.908ZM429.143 831.612H434.915V854.804C434.915 857.352 434.603 858.86 432.939 859.744C431.379 860.628 429.299 860.68 426.439 860.68C426.283 859.12 425.607 856.884 424.931 855.324C426.387 855.376 427.947 855.376 428.467 855.376C428.987 855.376 429.143 855.22 429.143 854.648V831.612ZM416.923 852.152C419.575 850.644 423.475 848.2 427.323 845.704L429.195 850.384C426.127 852.724 422.747 855.168 419.783 857.144L416.923 852.152ZM434.759 835.304C436.423 841.492 440.375 849.24 447.499 852.88C446.251 853.972 444.379 856.416 443.495 857.976C436.683 853.608 432.939 844.664 431.327 838.632L434.759 835.304ZM401.479 824.8H416.871V830H401.479V824.8ZM398.983 833.796H417.963V839.1H398.983V833.796ZM399.503 842.012L403.455 841.024C404.339 843.936 405.067 847.576 405.327 850.072L401.115 851.164C401.011 848.668 400.283 844.924 399.503 842.012ZM398.411 853.92C403.351 853.192 410.735 851.84 417.755 850.592L418.223 855.74C411.723 857.092 404.859 858.548 399.607 859.588L398.411 853.92ZM413.907 840.608L418.379 841.7C417.443 844.664 416.611 847.94 415.831 850.124L412.087 849.084C412.763 846.744 413.543 843.104 413.907 840.608ZM406.107 826.88H411.463V854.908L406.107 855.844V826.88ZM405.847 811.852H409.123V812.996H410.891V814.608C408.863 818.56 405.691 823.916 400.543 828.596C399.711 827.348 397.943 825.372 396.799 824.54C401.167 820.796 404.235 815.908 405.847 811.852ZM406.627 811.852H410.995C414.011 814.452 417.859 818.196 419.731 820.848L415.727 825.632C414.063 822.98 410.527 818.612 407.719 816.272H406.627V811.852ZM485.303 817.052H491.855V852.828C491.855 856.572 490.971 858.444 488.475 859.432C485.875 860.524 482.079 860.628 476.723 860.628C476.359 858.756 475.111 855.688 474.123 853.972C477.867 854.232 482.391 854.18 483.639 854.18C484.887 854.128 485.303 853.764 485.303 852.672V817.052ZM455.559 827.452H461.643V851.684H455.559V827.452ZM458.159 827.452H477.763V847.68H458.159V841.752H471.575V833.38H458.159V827.452ZM450.775 815.336H497.887V821.628H450.775V815.336ZM509.691 811.592L516.191 812.996C514.319 817.78 511.979 822.876 510.003 826.204L504.595 824.8C506.467 821.264 508.599 815.752 509.691 811.592ZM501.839 822.252C507.455 822.096 515.879 821.732 523.939 821.368L523.887 826.776C516.243 827.348 508.235 827.816 502.307 828.18L501.839 822.252ZM504.907 830.624H521.443V835.772H510.679V860.628H504.907V830.624ZM518.479 830.624H524.667V854.388C524.667 857.04 524.147 858.6 522.379 859.536C520.559 860.472 518.219 860.576 515.047 860.576C514.735 858.912 513.851 856.52 513.071 855.012C514.891 855.116 516.971 855.116 517.647 855.064C518.271 855.064 518.479 854.908 518.479 854.232V830.624ZM507.559 838.476H521.963V843.104H507.559V838.476ZM507.559 846.12H521.963V850.748H507.559V846.12ZM528.723 812.06H534.963V827.66C534.963 829.48 535.275 829.74 537.251 829.74C538.083 829.74 541.827 829.74 542.919 829.74C544.635 829.74 544.947 828.96 545.155 824.384C546.455 825.372 549.003 826.308 550.719 826.672C550.043 833.432 548.379 835.304 543.543 835.304C542.243 835.304 537.563 835.304 536.367 835.304C530.231 835.304 528.723 833.536 528.723 827.764V812.06ZM544.323 815.128L548.275 819.652C543.647 821.888 537.615 823.864 532.467 825.268C532.207 824.02 531.375 822.148 530.699 820.952C535.535 819.444 540.891 817.104 544.323 815.128ZM528.723 836.344H534.911V852.724C534.911 854.648 535.275 854.856 537.303 854.856C538.187 854.856 542.087 854.856 543.231 854.856C545.051 854.856 545.363 853.92 545.623 848.616C546.923 849.552 549.419 850.54 551.135 850.904C550.459 858.236 548.795 860.316 543.803 860.316C542.503 860.316 537.667 860.316 536.419 860.316C530.283 860.316 528.723 858.548 528.723 852.776V836.344ZM544.739 838.528L548.795 843.104C544.063 845.652 537.771 847.836 532.415 849.344C532.103 848.148 531.219 846.172 530.595 844.976C535.639 843.364 541.203 840.816 544.739 838.528ZM516.763 817.312L522.067 815.336C524.615 819.08 527.319 824.02 528.307 827.452L522.639 829.74C521.755 826.412 519.259 821.212 516.763 817.312ZM574.847 814.504H601.835V820.432H574.847V814.504ZM573.391 853.036H602.823V858.912H573.391V853.036ZM589.979 832.756H601.523V838.684H589.979V832.756ZM586.391 816.948H592.527V856.468H586.391V816.948ZM576.615 828.284H582.439V855.688H576.615V828.284ZM556.335 828.18H571.363V832.86H556.335V828.18ZM556.647 813.464H571.415V818.196H556.647V813.464ZM556.335 835.46H571.363V840.14H556.335V835.46ZM553.787 820.692H573.235V825.58H553.787V820.692ZM559.195 842.792H571.727V858.6H559.195V853.712H566.371V847.732H559.195V842.792ZM556.179 842.792H561.431V860.68H556.179V842.792ZM611.143 814.712H626.067V846.64H611.143V840.92H620.295V820.328H611.143V814.712ZM611.195 827.712H622.583V833.276H611.195V827.712ZM633.399 813.932H649.363V819.704H633.399V813.932ZM633.399 826.36H649.363V831.976H633.399V826.36ZM633.295 838.684H649.311V844.248H633.295V838.684ZM607.815 814.712H613.587V851.164H607.815V814.712ZM647.023 813.932H653.211V853.556C653.211 856.78 652.535 858.496 650.507 859.484C648.427 860.472 645.463 860.628 641.043 860.628C640.783 858.912 639.795 856.208 638.911 854.596C641.719 854.752 644.891 854.7 645.775 854.7C646.711 854.7 647.023 854.388 647.023 853.452V813.932ZM629.655 813.932H635.791V832.808C635.791 841.804 634.387 854.024 624.767 861.096C623.831 859.848 621.439 857.716 620.087 856.884C628.875 850.488 629.655 840.712 629.655 832.756V813.932ZM665.327 843.884H699.959V860.784H693.667V847.784H671.359V860.836H665.327V843.884ZM668.499 849.708H695.903V853.348H668.499V849.708ZM668.499 855.376H695.903V859.328H668.499V855.376ZM678.899 811.696H685.191V840.712H678.899V811.696ZM664.131 814.972H699.699V830.416H663.559V826.776H693.511V818.612H664.131V814.972ZM658.827 820.484H705.731V824.8H658.827V820.484ZM662.415 832.236H701.883V836.032H662.415V832.236ZM658.723 837.904H705.679V842.22H658.723V837.904ZM709.787 838.996H736.099V843.988H709.787V838.996ZM710.411 820.64H735.943V825.528H710.411V820.64ZM719.147 835.252L724.919 836.5C722.371 841.856 718.991 848.2 716.495 852.36L711.035 850.696C713.479 846.692 716.911 840.192 719.147 835.252ZM726.531 842.48L732.251 842.948C730.379 853.868 724.919 858.236 712.543 860.732C712.179 859.016 711.035 856.832 709.995 855.584C720.343 854.284 724.867 851.008 726.531 842.48ZM730.223 812.476L735.475 814.556C733.759 816.896 732.095 819.288 730.743 820.9L726.739 819.08C727.935 817.26 729.391 814.452 730.223 812.476ZM720.291 811.8H726.011V835.98H720.291V811.8ZM711.659 814.556L716.131 812.684C717.535 814.66 718.835 817.312 719.303 819.184L714.519 821.264C714.155 819.444 712.959 816.688 711.659 814.556ZM720.447 823.084L724.503 825.528C721.903 829.636 716.911 834.16 712.543 836.604C711.815 835.252 710.463 833.172 709.319 832.028C713.531 830.312 718.211 826.62 720.447 823.084ZM725.491 824.592C727.363 825.476 733.291 828.96 734.747 829.948L731.419 834.264C729.495 832.34 724.867 828.648 722.579 827.036L725.491 824.592ZM739.531 821.264H758.615V827.036H739.531V821.264ZM740.103 811.8L746.395 812.684C744.783 823.448 741.663 833.432 736.879 839.776C735.891 838.632 733.343 836.396 731.939 835.356C736.307 830.052 738.855 821.108 740.103 811.8ZM749.515 824.8L755.911 825.372C753.675 843.156 748.319 854.284 735.163 860.888C734.539 859.38 732.719 856.52 731.575 855.168C743.431 849.968 747.955 840.192 749.515 824.8ZM743.067 825.892C745.147 839.048 749.723 850.28 759.291 855.168C757.835 856.416 755.859 858.912 754.923 860.628C744.471 854.388 739.947 842.324 737.399 826.776L743.067 825.892ZM715.611 850.748L718.939 846.484C725.075 848.824 731.575 852.464 735.111 855.272L730.795 859.692C727.467 856.78 721.435 853.14 715.611 850.748ZM786.279 829.22C783.523 829.22 781.287 827.14 781.287 824.332C781.287 821.472 783.523 819.392 786.279 819.392C788.983 819.392 791.219 821.472 791.219 824.332C791.219 827.14 788.983 829.22 786.279 829.22ZM786.279 854.024C783.523 854.024 781.287 851.944 781.287 849.136C781.287 846.276 783.523 844.196 786.279 844.196C788.983 844.196 791.219 846.276 791.219 849.136C791.219 851.944 788.983 854.024 786.279 854.024ZM831.798 818.182V856H823.802V825.771H823.58L814.92 831.2V824.109L824.282 818.182H831.798ZM869.909 816.272H875.889V857.456H869.909V816.272ZM858.209 820.952H887.173V825.788H858.209V820.952ZM856.649 854.908H888.265V859.848H856.649V854.908ZM859.561 847.784H886.341V852.516H859.561V847.784ZM883.533 812.268L887.121 816.896C879.581 818.352 868.921 818.976 860.081 819.08C859.977 817.728 859.301 815.648 858.729 814.4C867.309 814.14 877.397 813.464 883.533 812.268ZM865.333 838.476V841.128H880.673V838.476H865.333ZM865.333 832.236V834.836H880.673V832.236H865.333ZM859.925 827.92H886.341V845.444H859.925V827.92ZM847.289 816.688H853.373V860.628H847.289V816.688ZM839.801 826.464H858.885V832.288H839.801V826.464ZM847.653 828.804L851.293 830.416C849.317 837.852 845.625 847.108 841.621 852.256C841.049 850.436 839.697 847.836 838.709 846.276C842.349 842.116 845.989 834.576 847.653 828.804ZM855.401 812.372L859.561 817.208C854.257 819.236 847.029 820.64 840.945 821.42C840.685 820.068 839.905 817.988 839.177 816.688C844.949 815.7 851.397 814.192 855.401 812.372ZM853.217 833.692C854.517 834.784 859.041 839.464 860.029 840.66L856.493 845.548C855.245 843.052 852.125 838.32 850.513 836.136L853.217 833.692ZM892.061 840.4H914.577V845.756H892.061V840.4ZM892.061 820.744H914.161V825.58H892.061V820.744ZM909.273 812.736L914.421 814.088C913.121 816.48 911.873 818.82 910.885 820.432L906.881 819.132C907.765 817.312 908.753 814.608 909.273 812.736ZM900.381 812.476H905.789V835.72H900.381V812.476ZM892.477 814.504L896.637 812.944C897.833 814.816 898.977 817.26 899.341 818.924L894.921 820.64C894.661 818.976 893.621 816.428 892.477 814.504ZM900.953 849.916L904.593 846.172C907.765 848.148 912.185 851.216 914.369 853.192L910.521 857.404C908.493 855.376 904.125 852.1 900.953 849.916ZM905.529 825.424C907.401 826.308 913.433 829.896 914.837 830.884L911.613 835.252C909.585 833.328 904.801 829.636 902.461 828.076L905.529 825.424ZM900.017 823.5L904.021 824.956C901.941 829.376 898.197 834.056 894.505 836.552C893.725 835.356 892.061 833.484 890.917 832.548C894.401 830.624 898.093 826.932 900.017 823.5ZM914.785 813.88H939.589V819.236H914.785V813.88ZM921.857 834.68V837.852H932.309V834.68H921.857ZM921.857 842.168V845.444H932.309V842.168H921.857ZM921.857 827.192V830.364H932.309V827.192H921.857ZM916.241 822.512H938.185V850.072H916.241V822.512ZM923.937 816.74L930.801 817.52C929.605 820.744 928.253 823.968 927.213 826.152L922.013 825.112C922.793 822.72 923.573 819.236 923.937 816.74ZM920.713 850.124L925.809 853.4C923.157 856.104 918.789 859.068 915.045 860.732C914.057 859.536 912.341 857.768 910.989 856.728C914.577 855.22 918.685 852.36 920.713 850.124ZM927.733 853.556L932.153 850.488C935.013 852.412 938.913 855.324 940.889 857.3L936.105 860.628C934.389 858.704 930.593 855.636 927.733 853.556ZM900.225 836.812H905.841V842.48C905.841 848.408 904.333 855.584 894.037 860.004C893.413 858.652 891.801 856.416 890.709 855.376C899.185 851.892 900.225 846.588 900.225 842.324V836.812Z" fill="white"/>
<path d="M301.181 400.545L319.657 445.622L306.859 455.319L281.788 400.545H301.181ZM311.009 445.185L329.267 400.545H348.66L323.457 455.319L311.009 445.185ZM324.331 442.914V490H305.636V442.914H324.331ZM341.977 443.875V454.664H286.592V443.875H341.977ZM341.977 461.172V471.961H286.592V461.172H341.977ZM390.046 399.322C394.647 399.322 399.073 400.094 403.324 401.637C407.605 403.181 411.42 405.641 414.768 409.019C418.146 412.397 420.811 416.881 422.762 422.472C424.742 428.034 425.746 434.863 425.775 442.958C425.775 450.558 424.916 457.343 423.198 463.312C421.509 469.252 419.078 474.305 415.904 478.469C412.73 482.633 408.901 485.807 404.416 487.991C399.932 490.146 394.924 491.223 389.391 491.223C383.421 491.223 378.151 490.073 373.579 487.772C369.007 485.443 365.324 482.283 362.528 478.294C359.762 474.276 358.088 469.762 357.505 464.754H376.156C376.884 468.015 378.413 470.548 380.742 472.354C383.072 474.13 385.955 475.018 389.391 475.018C395.215 475.018 399.641 472.485 402.669 467.418C405.698 462.322 407.226 455.348 407.256 446.496H406.644C405.305 449.116 403.499 451.373 401.228 453.266C398.957 455.13 396.35 456.571 393.409 457.59C390.497 458.609 387.396 459.119 384.106 459.119C378.835 459.119 374.132 457.881 369.997 455.406C365.862 452.931 362.601 449.524 360.213 445.185C357.826 440.847 356.632 435.896 356.632 430.335C356.602 424.336 357.986 418.993 360.781 414.304C363.577 409.616 367.479 405.947 372.487 403.297C377.525 400.618 383.378 399.293 390.046 399.322ZM390.177 414.173C387.236 414.173 384.615 414.872 382.315 416.27C380.044 417.668 378.238 419.546 376.899 421.904C375.588 424.263 374.948 426.898 374.977 429.81C374.977 432.751 375.617 435.401 376.899 437.76C378.209 440.089 379.985 441.953 382.227 443.351C384.499 444.719 387.09 445.404 390.002 445.404C392.186 445.404 394.21 444.996 396.074 444.181C397.937 443.365 399.553 442.244 400.922 440.817C402.32 439.362 403.412 437.687 404.198 435.794C404.984 433.902 405.377 431.892 405.377 429.767C405.348 426.942 404.678 424.35 403.368 421.992C402.058 419.633 400.252 417.74 397.952 416.314C395.652 414.887 393.06 414.173 390.177 414.173ZM455.674 477.77L455.193 482.575C454.815 486.418 454.087 490.248 453.009 494.062C451.961 497.906 450.854 501.386 449.69 504.501C448.554 507.617 447.637 510.063 446.938 511.839H434.883C435.319 510.121 435.916 507.719 436.673 504.632C437.43 501.575 438.144 498.139 438.814 494.324C439.483 490.51 439.906 486.622 440.08 482.662L440.299 477.77H455.674ZM502.279 491.223C495.553 491.223 489.569 490.131 484.327 487.947C479.115 485.734 475.023 482.72 472.053 478.906C469.083 475.091 467.598 470.767 467.598 465.933C467.598 462.206 468.443 458.784 470.131 455.668C471.849 452.523 474.179 449.917 477.12 447.85C480.061 445.753 483.352 444.414 486.992 443.831V443.22C482.216 442.259 478.343 439.944 475.373 436.275C472.403 432.577 470.918 428.282 470.918 423.39C470.918 418.76 472.272 414.639 474.98 411.028C477.688 407.388 481.401 404.535 486.118 402.467C490.864 400.371 496.251 399.322 502.279 399.322C508.307 399.322 513.679 400.371 518.397 402.467C523.143 404.564 526.87 407.432 529.579 411.072C532.287 414.683 533.655 418.789 533.684 423.39C533.655 428.311 532.141 432.606 529.142 436.275C526.142 439.944 522.299 442.259 517.61 443.22V443.831C521.192 444.414 524.439 445.753 527.351 447.85C530.292 449.917 532.621 452.523 534.34 455.668C536.087 458.784 536.975 462.206 537.004 465.933C536.975 470.767 535.475 475.091 532.505 478.906C529.535 482.72 525.429 485.734 520.188 487.947C514.975 490.131 509.006 491.223 502.279 491.223ZM502.279 477.333C505.278 477.333 507.899 476.794 510.141 475.717C512.384 474.61 514.131 473.096 515.383 471.174C516.664 469.223 517.305 466.981 517.305 464.448C517.305 461.856 516.65 459.57 515.339 457.59C514.029 455.581 512.253 454.009 510.01 452.873C507.768 451.708 505.191 451.126 502.279 451.126C499.396 451.126 496.819 451.708 494.548 452.873C492.277 454.009 490.486 455.581 489.175 457.59C487.894 459.57 487.254 461.856 487.254 464.448C487.254 466.981 487.88 469.223 489.132 471.174C490.384 473.096 492.146 474.61 494.417 475.717C496.688 476.794 499.309 477.333 502.279 477.333ZM502.279 437.367C504.783 437.367 507.011 436.857 508.962 435.838C510.913 434.819 512.442 433.407 513.548 431.601C514.655 429.796 515.208 427.714 515.208 425.355C515.208 423.026 514.655 420.987 513.548 419.24C512.442 417.464 510.928 416.081 509.006 415.091C507.084 414.071 504.842 413.562 502.279 413.562C499.746 413.562 497.504 414.071 495.553 415.091C493.602 416.081 492.073 417.464 490.966 419.24C489.889 420.987 489.35 423.026 489.35 425.355C489.35 427.714 489.903 429.796 491.01 431.601C492.117 433.407 493.645 434.819 495.596 435.838C497.547 436.857 499.775 437.367 502.279 437.367ZM585.302 491.966C577.789 491.936 571.325 490.087 565.909 486.418C560.521 482.749 556.372 477.435 553.46 470.475C550.577 463.516 549.15 455.144 549.179 445.36C549.179 435.605 550.621 427.292 553.504 420.419C556.416 413.547 560.565 408.32 565.952 404.739C571.368 401.128 577.818 399.322 585.302 399.322C592.786 399.322 599.221 401.128 604.608 404.739C610.024 408.349 614.188 413.591 617.1 420.463C620.012 427.306 621.454 435.605 621.424 445.36C621.424 455.173 619.969 463.56 617.057 470.519C614.174 477.479 610.039 482.793 604.652 486.462C599.265 490.131 592.815 491.966 585.302 491.966ZM585.302 476.285C590.427 476.285 594.518 473.708 597.576 468.554C600.633 463.4 602.148 455.668 602.118 445.36C602.118 438.575 601.42 432.926 600.022 428.413C598.653 423.899 596.702 420.507 594.169 418.235C591.665 415.964 588.709 414.828 585.302 414.828C580.206 414.828 576.129 417.376 573.072 422.472C570.014 427.568 568.471 435.197 568.442 445.36C568.442 452.232 569.126 457.969 570.495 462.57C571.893 467.141 573.858 470.577 576.391 472.878C578.925 475.149 581.895 476.285 585.302 476.285ZM669.985 491.966C662.472 491.936 656.007 490.087 650.591 486.418C645.204 482.749 641.055 477.435 638.143 470.475C635.26 463.516 633.833 455.144 633.862 445.36C633.862 435.605 635.303 427.292 638.186 420.419C641.098 413.547 645.248 408.32 650.635 404.739C656.051 401.128 662.501 399.322 669.985 399.322C677.468 399.322 683.904 401.128 689.291 404.739C694.707 408.349 698.871 413.591 701.783 420.463C704.695 427.306 706.136 435.605 706.107 445.36C706.107 455.173 704.651 463.56 701.739 470.519C698.856 477.479 694.721 482.793 689.334 486.462C683.947 490.131 677.497 491.966 669.985 491.966ZM669.985 476.285C675.11 476.285 679.201 473.708 682.258 468.554C685.316 463.4 686.83 455.668 686.801 445.36C686.801 438.575 686.102 432.926 684.704 428.413C683.336 423.899 681.385 420.507 678.851 418.235C676.347 415.964 673.392 414.828 669.985 414.828C664.889 414.828 660.812 417.376 657.754 422.472C654.697 427.568 653.154 435.197 653.125 445.36C653.125 452.232 653.809 457.969 655.177 462.57C656.575 467.141 658.541 470.577 661.074 472.878C663.607 475.149 666.578 476.285 669.985 476.285ZM790.91 459.824H762.942V487.792H753.65V459.824H725.682V450.532H753.65V422.564H762.942V450.532H790.91V459.824ZM844.914 416.032L854.114 412.076C857.518 416.86 861.106 423.208 862.486 427.624L852.734 432.04C851.63 427.716 848.226 421 844.914 416.032ZM878.678 411.8L889.994 415.572C886.774 421.276 883.278 427.164 880.426 431.12L871.042 427.624C873.802 423.3 877.022 416.768 878.678 411.8ZM852.642 459.916H863.498C862.302 476.752 858.99 490.552 841.602 498.464C840.406 495.704 837.37 491.748 835.07 489.724C849.698 483.652 851.722 472.888 852.642 459.916ZM868.374 458.628H879.046V484.112C879.046 486.872 879.23 487.24 880.334 487.24C880.886 487.24 882.818 487.24 883.37 487.24C884.75 487.24 885.118 485.768 885.302 476.2C887.326 477.856 891.834 479.696 894.686 480.432C893.766 493.496 891.098 497.084 884.566 497.084C883.002 497.084 879.966 497.084 878.402 497.084C870.122 497.084 868.374 493.864 868.374 484.204V458.628ZM855.586 439.952V452.464H878.402V439.952H855.586ZM845.098 430.292H889.442V462.032H845.098V430.292ZM821.27 420.448H832.034V498.188H821.27V420.448ZM808.022 437.744H841.786V448.048H808.022V437.744ZM821.914 441.884L828.354 444.736C824.858 457.892 818.326 474.268 811.242 483.376C810.23 480.156 807.838 475.556 806.09 472.796C812.53 465.436 818.97 452.096 821.914 441.884ZM835.622 412.812L842.982 421.368C833.598 424.956 820.81 427.44 810.046 428.82C809.586 426.428 808.206 422.748 806.918 420.448C817.13 418.7 828.538 416.032 835.622 412.812ZM831.758 450.532C834.058 452.464 842.062 460.744 843.81 462.86L837.554 471.508C835.346 467.092 829.826 458.72 826.974 454.856L831.758 450.532Z" fill="#DE4833"/>
<path d="M930.134 416.148L907.399 500.609H898.202L920.937 416.148H930.134ZM950.681 431.762H989.309V437.164H950.681V431.762ZM950.681 449.596H989.605V454.924H950.681V449.596ZM950.089 467.504H989.235V472.832H950.089V467.504ZM947.277 431.762H952.901V454.628C952.901 467.43 951.051 484.894 938.323 495.994C937.509 494.81 935.289 492.812 934.105 491.998C946.019 481.564 947.277 466.542 947.277 454.628V431.762ZM986.867 431.762H992.639V487.78C992.639 491.702 991.603 493.626 988.791 494.588C985.905 495.55 981.021 495.624 973.029 495.624C972.659 493.996 971.623 491.332 970.661 489.778C976.803 490 982.871 489.926 984.573 489.926C986.275 489.852 986.867 489.334 986.867 487.706V431.762Z" fill="black"/>
<line x1="140" y1="532" x2="1146" y2="532" stroke="black" stroke-width="6"/>
<defs>
<filter id="filter0_d_9_57" x="81" y="0" width="1144" height="256" filterUnits="userSpaceOnUse" color-interpolation-filters="sRGB">
<feFlood flood-opacity="0" result="BackgroundImageFix"/>
<feColorMatrix in="SourceAlpha" type="matrix" values="0 0 0 0 0 0 0 0 0 0 0 0 0 0 0 0 0 0 127 0" result="hardAlpha"/>
<feOffset dx="10" dy="9"/>
<feGaussianBlur stdDeviation="6.5"/>
<feComposite in2="hardAlpha" operator="out"/>
<feColorMatrix type="matrix" values="0 0 0 0 0 0 0 0 0 0 0 0 0 0 0 0 0 0 0.25 0"/>
<feBlend mode="normal" in2="BackgroundImageFix" result="effect1_dropShadow_9_57"/>
<feBlend mode="normal" in="SourceGraphic" in2="effect1_dropShadow_9_57" result="shape"/>
</filter>
<filter id="filter1_d_9_57" x="0" y="601" width="1306" height="149" filterUnits="userSpaceOnUse" color-interpolation-filters="sRGB">
<feFlood flood-opacity="0" result="BackgroundImageFix"/>
<feColorMatrix in="SourceAlpha" type="matrix" values="0 0 0 0 0 0 0 0 0 0 0 0 0 0 0 0 0 0 127 0" result="hardAlpha"/>
<feOffset dx="10" dy="9"/>
<feGaussianBlur stdDeviation="6.5"/>
<feComposite in2="hardAlpha" operator="out"/>
<feColorMatrix type="matrix" values="0 0 0 0 0 0 0 0 0 0 0 0 0 0 0 0 0 0 0.25 0"/>
<feBlend mode="normal" in2="BackgroundImageFix" result="effect1_dropShadow_9_57"/>
<feBlend mode="normal" in="SourceGraphic" in2="effect1_dropShadow_9_57" result="shape"/>
</filter>
<filter id="filter2_d_9_57" x="0" y="772" width="1306" height="149" filterUnits="userSpaceOnUse" color-interpolation-filters="sRGB">
<feFlood flood-opacity="0" result="BackgroundImageFix"/>
<feColorMatrix in="SourceAlpha" type="matrix" values="0 0 0 0 0 0 0 0 0 0 0 0 0 0 0 0 0 0 127 0" result="hardAlpha"/>
<feOffset dx="10" dy="9"/>
<feGaussianBlur stdDeviation="6.5"/>
<feComposite in2="hardAlpha" operator="out"/>
<feColorMatrix type="matrix" values="0 0 0 0 0 0 0 0 0 0 0 0 0 0 0 0 0 0 0.25 0"/>
<feBlend mode="normal" in2="BackgroundImageFix" result="effect1_dropShadow_9_57"/>
<feBlend mode="normal" in="SourceGraphic" in2="effect1_dropShadow_9_57" result="shape"/>
</filter>
<linearGradient id="paint0_linear_9_57" x1="84" y1="119" x2="1202" y2="119" gradientUnits="userSpaceOnUse">
<stop stop-color="#2E8FFB"/>
</linearGradient>
<linearGradient id="paint1_linear_9_57" x1="3" y1="666.5" x2="1283" y2="666.5" gradientUnits="userSpaceOnUse">
<stop stop-color="#6770E6"/>
</linearGradient>
<linearGradient id="paint2_linear_9_57" x1="3" y1="837.5" x2="1283" y2="837.5" gradientUnits="userSpaceOnUse">
<stop stop-color="#6770E6"/>
</linearGradient>
</defs>
</svg>
