<svg width="1306" height="921" viewBox="0 0 1306 921" fill="none" xmlns="http://www.w3.org/2000/svg">
<g filter="url(#filter0_d_9_86)">
<rect x="84" y="4" width="1118" height="230" rx="88" fill="url(#paint0_linear_9_86)"/>
</g>
<path d="M354.851 84.564C354.851 87.508 357.243 89.9 360.187 89.9C363.131 89.9 365.523 87.508 365.523 84.564C365.523 81.62 363.131 79.228 360.187 79.228C357.243 79.228 354.851 81.62 354.851 84.564ZM349.147 84.564C349.147 78.492 354.115 73.524 360.187 73.524C366.259 73.524 371.227 78.492 371.227 84.564C371.227 90.636 366.259 95.604 360.187 95.604C354.115 95.604 349.147 90.636 349.147 84.564ZM360.371 91.832C359.451 93.58 358.807 96.248 358.347 98.18C356.231 107.196 352.183 121.548 344.455 131.76C336.175 142.8 323.939 151.908 307.471 157.152L297.443 146.112C315.751 141.88 326.147 133.876 333.507 124.584C339.671 116.948 343.167 106.46 344.363 98.548C338.751 98.548 308.391 98.548 301.491 98.548C297.259 98.548 292.935 98.824 290.543 99.008V85.944C293.303 86.312 298.455 86.772 301.491 86.772C308.391 86.772 338.935 86.772 344.087 86.772C345.927 86.772 348.871 86.68 351.263 86.036L360.371 91.832ZM390.915 148.412C391.927 146.112 392.111 144.548 392.111 142.432C392.111 135.44 392.111 102.78 392.111 92.476C392.111 89.072 391.559 84.656 391.007 82.08H405.451C404.991 85.576 404.623 88.98 404.623 92.476C404.623 102.688 404.623 133.324 404.623 140.316C419.619 136.084 440.135 124.308 451.911 109.864L458.443 120.352C445.839 135.348 426.703 146.388 404.991 153.472C403.795 153.84 401.771 154.484 399.563 155.956L390.915 148.412ZM491.103 79.964C503.247 81.436 529.743 86.864 541.335 90.912L536.643 102.32C525.879 98.364 499.843 92.568 486.871 90.912L491.103 79.964ZM486.963 104.712C500.119 106.92 523.487 111.98 534.987 115.936L530.479 127.436C519.991 123.388 496.347 118.052 482.639 115.844L486.963 104.712ZM482.179 131.116C498.003 133.508 526.247 140.132 538.943 144.824L533.883 156.324C521.463 151.264 492.299 144.916 477.579 142.616L482.179 131.116ZM644.743 89.808C643.823 91.004 642.075 93.212 641.247 94.5C636.923 101.676 628.183 113.36 619.075 119.8L609.507 112.164C616.959 107.656 624.135 99.56 626.527 95.052C620.915 95.052 584.299 95.052 578.503 95.052C574.731 95.052 571.603 95.236 567.279 95.696V82.816C570.867 83.368 574.731 83.828 578.503 83.828C584.299 83.828 623.307 83.828 628.091 83.828C630.667 83.828 635.727 83.46 637.475 83L644.743 89.808ZM607.299 102.136C607.299 124.952 606.747 143.72 581.723 157.244L570.959 148.504C573.995 147.492 577.307 145.928 580.711 143.352C592.303 135.256 594.511 125.596 594.511 110.508C594.511 107.564 594.419 105.172 593.959 102.136H607.299ZM693.474 82.632C692.278 85.392 690.99 88.796 689.61 92.936C686.206 103.24 676.638 132.864 672.682 142.432L659.158 142.892C664.126 131.116 673.694 100.94 676.73 90.268C678.018 85.668 678.478 82.724 678.846 79.688L693.474 82.632ZM709.942 112.348C716.566 122.284 725.95 140.408 730.182 150.62L717.762 156.14C713.622 145.008 705.066 125.964 698.534 117.132L709.942 112.348ZM658.238 138.752C671.026 138.292 701.11 134.888 713.99 133.14L716.658 144.916C703.042 146.664 671.394 149.976 658.974 151.264C656.674 151.54 653.178 152 650.326 152.368L648.118 138.844C651.246 138.936 655.294 138.844 658.238 138.752ZM802.901 84.564C802.901 87.508 805.293 89.9 808.237 89.9C811.181 89.9 813.573 87.508 813.573 84.564C813.573 81.62 811.181 79.228 808.237 79.228C805.293 79.228 802.901 81.62 802.901 84.564ZM797.197 84.564C797.197 78.492 802.165 73.524 808.237 73.524C814.309 73.524 819.277 78.492 819.277 84.564C819.277 90.636 814.309 95.604 808.237 95.604C802.165 95.604 797.197 90.636 797.197 84.564ZM808.421 91.832C807.501 93.58 806.857 96.248 806.397 98.18C804.281 107.196 800.233 121.548 792.505 131.76C784.225 142.8 771.989 151.908 755.521 157.152L745.493 146.112C763.801 141.88 774.197 133.876 781.557 124.584C787.721 116.948 791.217 106.46 792.413 98.548C786.801 98.548 756.441 98.548 749.541 98.548C745.309 98.548 740.985 98.824 738.593 99.008V85.944C741.353 86.312 746.505 86.772 749.541 86.772C756.441 86.772 786.985 86.772 792.137 86.772C793.977 86.772 796.921 86.68 799.313 86.036L808.421 91.832ZM841.541 81.436C844.025 81.804 847.981 81.988 851.109 81.988C856.905 81.988 881.101 81.988 886.437 81.988C889.381 81.988 893.889 81.804 896.373 81.436V93.396C893.981 93.212 889.657 93.028 886.253 93.028C881.193 93.028 856.537 93.028 851.109 93.028C848.073 93.028 844.209 93.12 841.541 93.396V81.436ZM904.193 108.208C903.549 109.404 902.721 111.06 902.445 111.98C899.593 120.904 895.637 129.92 888.829 137.464C879.537 147.86 867.761 154.024 855.985 157.428L846.785 147.032C860.677 144.088 871.625 138.108 878.709 130.84C883.585 125.872 886.529 120.076 888.093 115.016C883.493 115.016 851.937 115.016 843.749 115.016C841.449 115.016 836.849 115.108 832.985 115.384V103.424C836.941 103.792 840.805 104.068 843.749 104.068C850.005 104.068 882.941 104.068 889.197 104.068C892.233 104.068 894.717 103.7 896.005 103.056L904.193 108.208ZM935.197 82.08C941.545 86.404 953.505 95.972 958.933 101.584L949.549 111.152C944.765 106 933.173 95.972 926.457 91.372L935.197 82.08ZM923.605 143.352C938.049 141.328 949.917 136.636 958.841 131.392C974.573 122.008 986.533 108.024 992.421 95.604L999.505 108.484C992.605 120.996 980.369 133.692 965.557 142.616C956.173 148.228 944.305 153.288 931.425 155.496L923.605 143.352Z" fill="white"/>
<g filter="url(#filter1_d_9_86)">
<rect x="3" y="605" width="1280" height="123" rx="37" fill="url(#paint1_linear_9_86)"/>
</g>
<path d="M169.824 683.752H195.2V688.328H169.824V683.752ZM177.26 651.772H183.292V658.012H177.26V651.772ZM158.072 655.36H203.312V665.708H197.228V660.04H163.948V665.708H158.072V655.36ZM169.616 662.224H195.096V673.872H169.616V669.4H188.856V666.696H169.616V662.224ZM169.876 676.212H199.048V689.732H192.808V680.788H169.876V676.212ZM166.184 662.224H172.112V689.784H166.184V662.224ZM163.324 644.492H179.704V649.38H163.324V644.492ZM184.384 644.492H204.56V649.38H184.384V644.492ZM163.532 640.436L169.356 641.996C167.328 646.676 164 651.408 160.932 654.372C159.736 653.436 157.24 651.772 155.836 651.044C158.956 648.444 161.92 644.388 163.532 640.436ZM184.696 640.436L190.624 641.892C188.752 646.364 185.528 650.68 182.408 653.384C181.16 652.448 178.508 651.096 176.948 650.42C180.276 648.028 183.188 644.232 184.696 640.436ZM165.248 648.288L170.552 646.884C171.852 648.652 173.308 651.148 173.932 652.812L168.316 654.424C167.848 652.812 166.496 650.16 165.248 648.288ZM188.492 648.444L193.952 646.988C195.46 648.704 197.28 651.2 198.112 652.864L192.34 654.476C191.664 652.916 189.948 650.264 188.492 648.444ZM233.16 657.596V662.068H248.916V657.596H233.16ZM233.16 648.34V652.708H248.916V648.34H233.16ZM227.544 643.036H254.844V667.32H227.544V643.036ZM227.18 671.792H255.416V677.408H227.18V671.792ZM223.54 682.4H257.132V688.016H223.54V682.4ZM208.304 643.816H225.568V649.64H208.304V643.816ZM208.824 658.792H224.684V664.564H208.824V658.792ZM207.732 678.552C212.204 677.408 218.86 675.328 225.1 673.3L226.192 679.28C220.368 681.256 214.128 683.284 209.136 684.896L207.732 678.552ZM214.076 646.104H220.004V678.084L214.076 679.02V646.104ZM238.516 645.272H243.768V664.876H244.34V685.052H237.944V664.876H238.516V645.272ZM295.508 646.052H302.06V681.828C302.06 685.572 301.176 687.444 298.68 688.432C296.08 689.524 292.284 689.628 286.928 689.628C286.564 687.756 285.316 684.688 284.328 682.972C288.072 683.232 292.596 683.18 293.844 683.18C295.092 683.128 295.508 682.764 295.508 681.672V646.052ZM265.764 656.452H271.848V680.684H265.764V656.452ZM268.364 656.452H287.968V676.68H268.364V670.752H281.78V662.38H268.364V656.452ZM260.98 644.336H308.092V650.628H260.98V644.336ZM319.896 640.592L326.396 641.996C324.524 646.78 322.184 651.876 320.208 655.204L314.8 653.8C316.672 650.264 318.804 644.752 319.896 640.592ZM312.044 651.252C317.66 651.096 326.084 650.732 334.144 650.368L334.092 655.776C326.448 656.348 318.44 656.816 312.512 657.18L312.044 651.252ZM315.112 659.624H331.648V664.772H320.884V689.628H315.112V659.624ZM328.684 659.624H334.872V683.388C334.872 686.04 334.352 687.6 332.584 688.536C330.764 689.472 328.424 689.576 325.252 689.576C324.94 687.912 324.056 685.52 323.276 684.012C325.096 684.116 327.176 684.116 327.852 684.064C328.476 684.064 328.684 683.908 328.684 683.232V659.624ZM317.764 667.476H332.168V672.104H317.764V667.476ZM317.764 675.12H332.168V679.748H317.764V675.12ZM338.928 641.06H345.168V656.66C345.168 658.48 345.48 658.74 347.456 658.74C348.288 658.74 352.032 658.74 353.124 658.74C354.84 658.74 355.152 657.96 355.36 653.384C356.66 654.372 359.208 655.308 360.924 655.672C360.248 662.432 358.584 664.304 353.748 664.304C352.448 664.304 347.768 664.304 346.572 664.304C340.436 664.304 338.928 662.536 338.928 656.764V641.06ZM354.528 644.128L358.48 648.652C353.852 650.888 347.82 652.864 342.672 654.268C342.412 653.02 341.58 651.148 340.904 649.952C345.74 648.444 351.096 646.104 354.528 644.128ZM338.928 665.344H345.116V681.724C345.116 683.648 345.48 683.856 347.508 683.856C348.392 683.856 352.292 683.856 353.436 683.856C355.256 683.856 355.568 682.92 355.828 677.616C357.128 678.552 359.624 679.54 361.34 679.904C360.664 687.236 359 689.316 354.008 689.316C352.708 689.316 347.872 689.316 346.624 689.316C340.488 689.316 338.928 687.548 338.928 681.776V665.344ZM354.944 667.528L359 672.104C354.268 674.652 347.976 676.836 342.62 678.344C342.308 677.148 341.424 675.172 340.8 673.976C345.844 672.364 351.408 669.816 354.944 667.528ZM326.968 646.312L332.272 644.336C334.82 648.08 337.524 653.02 338.512 656.452L332.844 658.74C331.96 655.412 329.464 650.212 326.968 646.312ZM412.092 649.848C411.572 650.524 410.584 651.772 410.116 652.5C407.672 656.556 402.732 663.16 397.584 666.8L392.176 662.484C396.388 659.936 400.444 655.36 401.796 652.812C398.624 652.812 377.928 652.812 374.652 652.812C372.52 652.812 370.752 652.916 368.308 653.176V645.896C370.336 646.208 372.52 646.468 374.652 646.468C377.928 646.468 399.976 646.468 402.68 646.468C404.136 646.468 406.996 646.26 407.984 646L412.092 649.848ZM390.928 656.816C390.928 669.712 390.616 680.32 376.472 687.964L370.388 683.024C372.104 682.452 373.976 681.568 375.9 680.112C382.452 675.536 383.7 670.076 383.7 661.548C383.7 659.884 383.648 658.532 383.388 656.816H390.928ZM442.148 643.296C441.992 644.544 441.836 646.728 441.784 647.976C441.212 668.62 436.324 679.176 424.832 687.34L418.748 682.452C420.932 681.256 423.532 679.54 425.612 677.408C432.424 670.648 434.816 661.808 434.868 648.08C434.868 646.936 434.66 644.544 434.452 643.296H442.148ZM459.776 654.476C459.62 655.308 459.464 656.608 459.464 657.18C459.256 662.848 458.58 677.356 456.344 682.66C455.252 685.26 453.224 686.664 449.688 686.664C446.672 686.664 443.604 686.404 441.056 686.196L440.224 679.28C442.824 679.696 445.476 680.008 447.556 680.008C449.22 680.008 449.948 679.436 450.468 678.136C451.976 674.86 452.704 664.46 452.704 658.844H427.328C425.56 658.844 422.648 658.896 420.464 659.104V652.24C422.648 652.5 425.3 652.604 427.276 652.604H451.352C452.704 652.604 454.056 652.5 455.304 652.24L459.776 654.476ZM496.228 642.568C495.916 644.804 495.864 645.844 495.864 647.352C495.864 648.704 495.864 652.864 495.864 654.84H488.584C488.584 652.552 488.584 648.704 488.584 647.352C488.584 645.844 488.532 644.804 488.22 642.568H496.228ZM513.7 653.54C513.336 654.684 512.92 656.66 512.712 657.648C511.776 662.64 510.424 667.684 507.824 672.416C503.716 680.06 495.864 685.572 486.608 688.016L481.2 681.776C483.592 681.36 486.4 680.58 488.584 679.696C492.848 678.084 497.424 675.016 500.388 670.856C502.988 667.008 504.34 662.068 504.964 657.44H479.172C479.172 659.26 479.172 663.472 479.172 665.084C479.172 666.228 479.224 667.892 479.38 668.932H472.204C472.36 667.632 472.412 665.968 472.412 664.564C472.412 662.848 472.412 657.492 472.412 655.516C472.412 654.372 472.412 652.292 472.204 651.096C473.972 651.252 475.532 651.304 477.508 651.304H504.912C507.044 651.304 508.292 651.096 509.228 650.784L513.7 653.54ZM531.016 645.48C534.604 647.924 541.364 653.332 544.432 656.504L539.128 661.912C536.424 659 529.872 653.332 526.076 650.732L531.016 645.48ZM524.464 680.112C532.628 678.968 539.336 676.316 544.38 673.352C553.272 668.048 560.032 660.144 563.36 653.124L567.364 660.404C563.464 667.476 556.548 674.652 548.176 679.696C542.872 682.868 536.164 685.728 528.884 686.976L524.464 680.112ZM586.76 680.06C586.76 676.056 586.76 654.528 586.76 650.16C586.76 648.288 586.604 645.74 586.24 643.868H594.352C594.144 645.74 593.884 647.976 593.884 650.16C593.884 655.88 593.936 676.212 593.936 680.06C593.936 681.516 594.144 685.156 594.404 687.288H586.24C586.604 685.26 586.76 682.088 586.76 680.06ZM592.376 657.336C599.292 659.26 610.524 663.368 615.62 665.864L612.708 673.092C606.78 670.024 598.044 666.696 592.376 664.824V657.336ZM623.992 667.996H650.304V672.988H623.992V667.996ZM624.616 649.64H650.148V654.528H624.616V649.64ZM633.352 664.252L639.124 665.5C636.576 670.856 633.196 677.2 630.7 681.36L625.24 679.696C627.684 675.692 631.116 669.192 633.352 664.252ZM640.736 671.48L646.456 671.948C644.584 682.868 639.124 687.236 626.748 689.732C626.384 688.016 625.24 685.832 624.2 684.584C634.548 683.284 639.072 680.008 640.736 671.48ZM644.428 641.476L649.68 643.556C647.964 645.896 646.3 648.288 644.948 649.9L640.944 648.08C642.14 646.26 643.596 643.452 644.428 641.476ZM634.496 640.8H640.216V664.98H634.496V640.8ZM625.864 643.556L630.336 641.684C631.74 643.66 633.04 646.312 633.508 648.184L628.724 650.264C628.36 648.444 627.164 645.688 625.864 643.556ZM634.652 652.084L638.708 654.528C636.108 658.636 631.116 663.16 626.748 665.604C626.02 664.252 624.668 662.172 623.524 661.028C627.736 659.312 632.416 655.62 634.652 652.084ZM639.696 653.592C641.568 654.476 647.496 657.96 648.952 658.948L645.624 663.264C643.7 661.34 639.072 657.648 636.784 656.036L639.696 653.592ZM653.736 650.264H672.82V656.036H653.736V650.264ZM654.308 640.8L660.6 641.684C658.988 652.448 655.868 662.432 651.084 668.776C650.096 667.632 647.548 665.396 646.144 664.356C650.512 659.052 653.06 650.108 654.308 640.8ZM663.72 653.8L670.116 654.372C667.88 672.156 662.524 683.284 649.368 689.888C648.744 688.38 646.924 685.52 645.78 684.168C657.636 678.968 662.16 669.192 663.72 653.8ZM657.272 654.892C659.352 668.048 663.928 679.28 673.496 684.168C672.04 685.416 670.064 687.912 669.128 689.628C658.676 683.388 654.152 671.324 651.604 655.776L657.272 654.892ZM629.816 679.748L633.144 675.484C639.28 677.824 645.78 681.464 649.316 684.272L645 688.692C641.672 685.78 635.64 682.14 629.816 679.748ZM700.484 658.22C697.728 658.22 695.492 656.14 695.492 653.332C695.492 650.472 697.728 648.392 700.484 648.392C703.188 648.392 705.424 650.472 705.424 653.332C705.424 656.14 703.188 658.22 700.484 658.22ZM700.484 683.024C697.728 683.024 695.492 680.944 695.492 678.136C695.492 675.276 697.728 673.196 700.484 673.196C703.188 673.196 705.424 675.276 705.424 678.136C705.424 680.944 703.188 683.024 700.484 683.024ZM746.003 647.182V685H738.007V654.771H737.786L729.125 660.2V653.109L738.487 647.182H746.003ZM761.583 679.83L761.38 681.861C761.22 683.486 760.913 685.105 760.457 686.717C760.014 688.342 759.546 689.813 759.054 691.131C758.574 692.448 758.186 693.482 757.89 694.233H752.794C752.978 693.507 753.231 692.491 753.551 691.186C753.871 689.893 754.172 688.441 754.456 686.828C754.739 685.215 754.917 683.572 754.991 681.898L755.083 679.83H761.583ZM782.007 685.831C778.831 685.819 776.098 685.037 773.808 683.486C771.53 681.935 769.776 679.688 768.545 676.746C767.326 673.804 766.723 670.264 766.735 666.128C766.735 662.004 767.345 658.489 768.564 655.584C769.795 652.679 771.549 650.469 773.826 648.955C776.116 647.428 778.843 646.665 782.007 646.665C785.171 646.665 787.891 647.428 790.169 648.955C792.458 650.481 794.219 652.697 795.45 655.602C796.681 658.495 797.29 662.004 797.278 666.128C797.278 670.277 796.663 673.822 795.431 676.764C794.213 679.706 792.465 681.953 790.187 683.504C787.91 685.055 785.183 685.831 782.007 685.831ZM782.007 679.202C784.173 679.202 785.903 678.112 787.196 675.933C788.488 673.754 789.128 670.486 789.116 666.128C789.116 663.259 788.821 660.871 788.23 658.963C787.651 657.055 786.826 655.621 785.755 654.661C784.697 653.7 783.447 653.22 782.007 653.22C779.852 653.22 778.129 654.297 776.836 656.452C775.544 658.606 774.891 661.831 774.879 666.128C774.879 669.033 775.168 671.458 775.747 673.403C776.338 675.336 777.169 676.789 778.24 677.761C779.311 678.722 780.566 679.202 782.007 679.202ZM817.808 685.831C814.631 685.819 811.898 685.037 809.609 683.486C807.331 681.935 805.577 679.688 804.346 676.746C803.127 673.804 802.524 670.264 802.536 666.128C802.536 662.004 803.146 658.489 804.364 655.584C805.595 652.679 807.35 650.469 809.627 648.955C811.917 647.428 814.644 646.665 817.808 646.665C820.971 646.665 823.692 647.428 825.969 648.955C828.259 650.481 830.02 652.697 831.251 655.602C832.482 658.495 833.091 662.004 833.079 666.128C833.079 670.277 832.463 673.822 831.232 676.764C830.013 679.706 828.265 681.953 825.988 683.504C823.71 685.055 820.984 685.831 817.808 685.831ZM817.808 679.202C819.974 679.202 821.704 678.112 822.996 675.933C824.289 673.754 824.929 670.486 824.917 666.128C824.917 663.259 824.621 660.871 824.031 658.963C823.452 657.055 822.627 655.621 821.556 654.661C820.497 653.7 819.248 653.22 817.808 653.22C815.653 653.22 813.93 654.297 812.637 656.452C811.344 658.606 810.692 661.831 810.68 666.128C810.68 669.033 810.969 671.458 811.548 673.403C812.138 675.336 812.969 676.789 814.04 677.761C815.112 678.722 816.367 679.202 817.808 679.202ZM853.608 685.831C850.432 685.819 847.699 685.037 845.409 683.486C843.132 681.935 841.378 679.688 840.147 676.746C838.928 673.804 838.325 670.264 838.337 666.128C838.337 662.004 838.946 658.489 840.165 655.584C841.396 652.679 843.15 650.469 845.428 648.955C847.718 647.428 850.444 646.665 853.608 646.665C856.772 646.665 859.493 647.428 861.77 648.955C864.06 650.481 865.82 652.697 867.051 655.602C868.283 658.495 868.892 662.004 868.88 666.128C868.88 670.277 868.264 673.822 867.033 676.764C865.814 679.706 864.066 681.953 861.789 683.504C859.511 685.055 856.784 685.831 853.608 685.831ZM853.608 679.202C855.775 679.202 857.505 678.112 858.797 675.933C860.09 673.754 860.73 670.486 860.718 666.128C860.718 663.259 860.422 660.871 859.831 658.963C859.253 657.055 858.428 655.621 857.357 654.661C856.298 653.7 855.049 653.22 853.608 653.22C851.454 653.22 849.73 654.297 848.438 656.452C847.145 658.606 846.493 661.831 846.48 666.128C846.48 669.033 846.77 671.458 847.348 673.403C847.939 675.336 848.77 676.789 849.841 677.761C850.912 678.722 852.168 679.202 853.608 679.202ZM921.124 649.848C920.604 650.524 919.616 651.772 919.148 652.5C916.704 656.556 911.764 663.16 906.616 666.8L901.208 662.484C905.42 659.936 909.476 655.36 910.828 652.812C907.656 652.812 886.96 652.812 883.684 652.812C881.552 652.812 879.784 652.916 877.34 653.176V645.896C879.368 646.208 881.552 646.468 883.684 646.468C886.96 646.468 909.008 646.468 911.712 646.468C913.168 646.468 916.028 646.26 917.016 646L921.124 649.848ZM899.96 656.816C899.96 669.712 899.648 680.32 885.504 687.964L879.42 683.024C881.136 682.452 883.008 681.568 884.932 680.112C891.484 675.536 892.732 670.076 892.732 661.548C892.732 659.884 892.68 658.532 892.42 656.816H899.96ZM951.18 643.296C951.024 644.544 950.868 646.728 950.816 647.976C950.244 668.62 945.356 679.176 933.864 687.34L927.78 682.452C929.964 681.256 932.564 679.54 934.644 677.408C941.456 670.648 943.848 661.808 943.9 648.08C943.9 646.936 943.692 644.544 943.484 643.296H951.18ZM968.808 654.476C968.652 655.308 968.496 656.608 968.496 657.18C968.288 662.848 967.612 677.356 965.376 682.66C964.284 685.26 962.256 686.664 958.72 686.664C955.704 686.664 952.636 686.404 950.088 686.196L949.256 679.28C951.856 679.696 954.508 680.008 956.588 680.008C958.252 680.008 958.98 679.436 959.5 678.136C961.008 674.86 961.736 664.46 961.736 658.844H936.36C934.592 658.844 931.68 658.896 929.496 659.104V652.24C931.68 652.5 934.332 652.604 936.308 652.604H960.384C961.736 652.604 963.088 652.5 964.336 652.24L968.808 654.476ZM1005.26 642.568C1004.95 644.804 1004.9 645.844 1004.9 647.352C1004.9 648.704 1004.9 652.864 1004.9 654.84H997.616C997.616 652.552 997.616 648.704 997.616 647.352C997.616 645.844 997.564 644.804 997.252 642.568H1005.26ZM1022.73 653.54C1022.37 654.684 1021.95 656.66 1021.74 657.648C1020.81 662.64 1019.46 667.684 1016.86 672.416C1012.75 680.06 1004.9 685.572 995.64 688.016L990.232 681.776C992.624 681.36 995.432 680.58 997.616 679.696C1001.88 678.084 1006.46 675.016 1009.42 670.856C1012.02 667.008 1013.37 662.068 1014 657.44H988.204C988.204 659.26 988.204 663.472 988.204 665.084C988.204 666.228 988.256 667.892 988.412 668.932H981.236C981.392 667.632 981.444 665.968 981.444 664.564C981.444 662.848 981.444 657.492 981.444 655.516C981.444 654.372 981.444 652.292 981.236 651.096C983.004 651.252 984.564 651.304 986.54 651.304H1013.94C1016.08 651.304 1017.32 651.096 1018.26 650.784L1022.73 653.54ZM1040.05 645.48C1043.64 647.924 1050.4 653.332 1053.46 656.504L1048.16 661.912C1045.46 659 1038.9 653.332 1035.11 650.732L1040.05 645.48ZM1033.5 680.112C1041.66 678.968 1048.37 676.316 1053.41 673.352C1062.3 668.048 1069.06 660.144 1072.39 653.124L1076.4 660.404C1072.5 667.476 1065.58 674.652 1057.21 679.696C1051.9 682.868 1045.2 685.728 1037.92 686.976L1033.5 680.112ZM1095.79 680.06C1095.79 676.056 1095.79 654.528 1095.79 650.16C1095.79 648.288 1095.64 645.74 1095.27 643.868H1103.38C1103.18 645.74 1102.92 647.976 1102.92 650.16C1102.92 655.88 1102.97 676.212 1102.97 680.06C1102.97 681.516 1103.18 685.156 1103.44 687.288H1095.27C1095.64 685.26 1095.79 682.088 1095.79 680.06ZM1101.41 657.336C1108.32 659.26 1119.56 663.368 1124.65 665.864L1121.74 673.092C1115.81 670.024 1107.08 666.696 1101.41 664.824V657.336Z" fill="white"/>
<g filter="url(#filter2_d_9_86)">
<rect x="3" y="776" width="1280" height="123" rx="37" fill="url(#paint2_linear_9_86)"/>
</g>
<path d="M342.811 825.736H362.051V830.936H342.811V825.736ZM330.019 854.544H374.947V859.64H330.019V854.544ZM333.035 813.776H347.595V818.82H333.035V813.776ZM345.619 813.776H346.659L347.751 813.516L351.807 815.544C347.959 825.736 339.743 833.172 331.007 837.384C330.175 836.084 328.511 833.952 327.263 832.86C335.011 829.584 342.759 822.512 345.619 814.816V813.776ZM357.475 812.008C361.063 820.484 368.343 828.024 377.391 831.456C375.935 832.704 374.115 835.044 373.179 836.656C363.611 832.288 356.487 823.968 352.171 813.672L357.475 812.008ZM330.539 823.136L333.867 819.704C336.207 821.004 339.067 823.032 340.419 824.592L336.935 828.388C335.583 826.828 332.775 824.592 330.539 823.136ZM365.483 812.32L370.163 815.648C367.303 818.092 363.923 820.64 361.323 822.304L357.579 819.392C360.075 817.624 363.507 814.608 365.483 812.32ZM371.359 818.404L375.935 821.628C372.971 824.228 369.383 826.932 366.627 828.648L362.883 825.736C365.587 823.864 369.227 820.796 371.359 818.404ZM343.279 838.892V843.468H361.063V838.892H343.279ZM337.195 833.9H367.511V848.408H337.195V833.9ZM340.211 849.084L345.931 847.628C347.283 849.5 348.427 852.152 348.895 853.92L342.915 855.636C342.551 853.868 341.407 851.112 340.211 849.084ZM358.775 847.576L364.807 848.876C363.507 851.424 362.311 853.764 361.271 855.428L355.811 854.18C356.851 852.36 358.151 849.552 358.775 847.576ZM423.931 835.252L428.819 838.216C426.635 840.608 424.347 843.104 422.475 844.768L418.575 842.168C420.291 840.348 422.631 837.384 423.931 835.252ZM400.791 838.632L404.847 835.98C406.979 837.904 409.267 840.608 410.255 842.584L405.887 845.496C405.055 843.52 402.819 840.66 400.791 838.632ZM403.027 813.62H424.503V831.872H418.731V818.716H403.027V813.62ZM404.171 821.472H422.007V826.256H404.171V821.472ZM400.531 828.908H428.403V834.212H400.531V828.908ZM411.243 831.612H417.015V854.804C417.015 857.352 416.703 858.86 415.039 859.744C413.479 860.628 411.399 860.68 408.539 860.68C408.383 859.12 407.707 856.884 407.031 855.324C408.487 855.376 410.047 855.376 410.567 855.376C411.087 855.376 411.243 855.22 411.243 854.648V831.612ZM399.023 852.152C401.675 850.644 405.575 848.2 409.423 845.704L411.295 850.384C408.227 852.724 404.847 855.168 401.883 857.144L399.023 852.152ZM416.859 835.304C418.523 841.492 422.475 849.24 429.599 852.88C428.351 853.972 426.479 856.416 425.595 857.976C418.783 853.608 415.039 844.664 413.427 838.632L416.859 835.304ZM383.579 824.8H398.971V830H383.579V824.8ZM381.083 833.796H400.063V839.1H381.083V833.796ZM381.603 842.012L385.555 841.024C386.439 843.936 387.167 847.576 387.427 850.072L383.215 851.164C383.111 848.668 382.383 844.924 381.603 842.012ZM380.511 853.92C385.451 853.192 392.835 851.84 399.855 850.592L400.323 855.74C393.823 857.092 386.959 858.548 381.707 859.588L380.511 853.92ZM396.007 840.608L400.479 841.7C399.543 844.664 398.711 847.94 397.931 850.124L394.187 849.084C394.863 846.744 395.643 843.104 396.007 840.608ZM388.207 826.88H393.563V854.908L388.207 855.844V826.88ZM387.947 811.852H391.223V812.996H392.991V814.608C390.963 818.56 387.791 823.916 382.643 828.596C381.811 827.348 380.043 825.372 378.899 824.54C383.267 820.796 386.335 815.908 387.947 811.852ZM388.727 811.852H393.095C396.111 814.452 399.959 818.196 401.831 820.848L397.827 825.632C396.163 822.98 392.627 818.612 389.819 816.272H388.727V811.852ZM467.403 817.052H473.955V852.828C473.955 856.572 473.071 858.444 470.575 859.432C467.975 860.524 464.179 860.628 458.823 860.628C458.459 858.756 457.211 855.688 456.223 853.972C459.967 854.232 464.491 854.18 465.739 854.18C466.987 854.128 467.403 853.764 467.403 852.672V817.052ZM437.659 827.452H443.743V851.684H437.659V827.452ZM440.259 827.452H459.863V847.68H440.259V841.752H453.675V833.38H440.259V827.452ZM432.875 815.336H479.987V821.628H432.875V815.336ZM491.791 811.592L498.291 812.996C496.419 817.78 494.079 822.876 492.103 826.204L486.695 824.8C488.567 821.264 490.699 815.752 491.791 811.592ZM483.939 822.252C489.555 822.096 497.979 821.732 506.039 821.368L505.987 826.776C498.343 827.348 490.335 827.816 484.407 828.18L483.939 822.252ZM487.007 830.624H503.543V835.772H492.779V860.628H487.007V830.624ZM500.579 830.624H506.767V854.388C506.767 857.04 506.247 858.6 504.479 859.536C502.659 860.472 500.319 860.576 497.147 860.576C496.835 858.912 495.951 856.52 495.171 855.012C496.991 855.116 499.071 855.116 499.747 855.064C500.371 855.064 500.579 854.908 500.579 854.232V830.624ZM489.659 838.476H504.063V843.104H489.659V838.476ZM489.659 846.12H504.063V850.748H489.659V846.12ZM510.823 812.06H517.063V827.66C517.063 829.48 517.375 829.74 519.351 829.74C520.183 829.74 523.927 829.74 525.019 829.74C526.735 829.74 527.047 828.96 527.255 824.384C528.555 825.372 531.103 826.308 532.819 826.672C532.143 833.432 530.479 835.304 525.643 835.304C524.343 835.304 519.663 835.304 518.467 835.304C512.331 835.304 510.823 833.536 510.823 827.764V812.06ZM526.423 815.128L530.375 819.652C525.747 821.888 519.715 823.864 514.567 825.268C514.307 824.02 513.475 822.148 512.799 820.952C517.635 819.444 522.991 817.104 526.423 815.128ZM510.823 836.344H517.011V852.724C517.011 854.648 517.375 854.856 519.403 854.856C520.287 854.856 524.187 854.856 525.331 854.856C527.151 854.856 527.463 853.92 527.723 848.616C529.023 849.552 531.519 850.54 533.235 850.904C532.559 858.236 530.895 860.316 525.903 860.316C524.603 860.316 519.767 860.316 518.519 860.316C512.383 860.316 510.823 858.548 510.823 852.776V836.344ZM526.839 838.528L530.895 843.104C526.163 845.652 519.871 847.836 514.515 849.344C514.203 848.148 513.319 846.172 512.695 844.976C517.739 843.364 523.303 840.816 526.839 838.528ZM498.863 817.312L504.167 815.336C506.715 819.08 509.419 824.02 510.407 827.452L504.739 829.74C503.855 826.412 501.359 821.212 498.863 817.312ZM556.947 814.504H583.935V820.432H556.947V814.504ZM555.491 853.036H584.923V858.912H555.491V853.036ZM572.079 832.756H583.623V838.684H572.079V832.756ZM568.491 816.948H574.627V856.468H568.491V816.948ZM558.715 828.284H564.539V855.688H558.715V828.284ZM538.435 828.18H553.463V832.86H538.435V828.18ZM538.747 813.464H553.515V818.196H538.747V813.464ZM538.435 835.46H553.463V840.14H538.435V835.46ZM535.887 820.692H555.335V825.58H535.887V820.692ZM541.295 842.792H553.827V858.6H541.295V853.712H548.471V847.732H541.295V842.792ZM538.279 842.792H543.531V860.68H538.279V842.792ZM593.243 814.712H608.167V846.64H593.243V840.92H602.395V820.328H593.243V814.712ZM593.295 827.712H604.683V833.276H593.295V827.712ZM615.499 813.932H631.463V819.704H615.499V813.932ZM615.499 826.36H631.463V831.976H615.499V826.36ZM615.395 838.684H631.411V844.248H615.395V838.684ZM589.915 814.712H595.687V851.164H589.915V814.712ZM629.123 813.932H635.311V853.556C635.311 856.78 634.635 858.496 632.607 859.484C630.527 860.472 627.563 860.628 623.143 860.628C622.883 858.912 621.895 856.208 621.011 854.596C623.819 854.752 626.991 854.7 627.875 854.7C628.811 854.7 629.123 854.388 629.123 853.452V813.932ZM611.755 813.932H617.891V832.808C617.891 841.804 616.487 854.024 606.867 861.096C605.931 859.848 603.539 857.716 602.187 856.884C610.975 850.488 611.755 840.712 611.755 832.756V813.932ZM647.427 843.884H682.059V860.784H675.767V847.784H653.459V860.836H647.427V843.884ZM650.599 849.708H678.003V853.348H650.599V849.708ZM650.599 855.376H678.003V859.328H650.599V855.376ZM660.999 811.696H667.291V840.712H660.999V811.696ZM646.231 814.972H681.799V830.416H645.659V826.776H675.611V818.612H646.231V814.972ZM640.927 820.484H687.831V824.8H640.927V820.484ZM644.515 832.236H683.983V836.032H644.515V832.236ZM640.823 837.904H687.779V842.22H640.823V837.904ZM691.887 838.996H718.199V843.988H691.887V838.996ZM692.511 820.64H718.043V825.528H692.511V820.64ZM701.247 835.252L707.019 836.5C704.471 841.856 701.091 848.2 698.595 852.36L693.135 850.696C695.579 846.692 699.011 840.192 701.247 835.252ZM708.631 842.48L714.351 842.948C712.479 853.868 707.019 858.236 694.643 860.732C694.279 859.016 693.135 856.832 692.095 855.584C702.443 854.284 706.967 851.008 708.631 842.48ZM712.323 812.476L717.575 814.556C715.859 816.896 714.195 819.288 712.843 820.9L708.839 819.08C710.035 817.26 711.491 814.452 712.323 812.476ZM702.391 811.8H708.111V835.98H702.391V811.8ZM693.759 814.556L698.231 812.684C699.635 814.66 700.935 817.312 701.403 819.184L696.619 821.264C696.255 819.444 695.059 816.688 693.759 814.556ZM702.547 823.084L706.603 825.528C704.003 829.636 699.011 834.16 694.643 836.604C693.915 835.252 692.563 833.172 691.419 832.028C695.631 830.312 700.311 826.62 702.547 823.084ZM707.591 824.592C709.463 825.476 715.391 828.96 716.847 829.948L713.519 834.264C711.595 832.34 706.967 828.648 704.679 827.036L707.591 824.592ZM721.631 821.264H740.715V827.036H721.631V821.264ZM722.203 811.8L728.495 812.684C726.883 823.448 723.763 833.432 718.979 839.776C717.991 838.632 715.443 836.396 714.039 835.356C718.407 830.052 720.955 821.108 722.203 811.8ZM731.615 824.8L738.011 825.372C735.775 843.156 730.419 854.284 717.263 860.888C716.639 859.38 714.819 856.52 713.675 855.168C725.531 849.968 730.055 840.192 731.615 824.8ZM725.167 825.892C727.247 839.048 731.823 850.28 741.391 855.168C739.935 856.416 737.959 858.912 737.023 860.628C726.571 854.388 722.047 842.324 719.499 826.776L725.167 825.892ZM697.711 850.748L701.039 846.484C707.175 848.824 713.675 852.464 717.211 855.272L712.895 859.692C709.567 856.78 703.535 853.14 697.711 850.748ZM768.379 829.22C765.623 829.22 763.387 827.14 763.387 824.332C763.387 821.472 765.623 819.392 768.379 819.392C771.083 819.392 773.319 821.472 773.319 824.332C773.319 827.14 771.083 829.22 768.379 829.22ZM768.379 854.024C765.623 854.024 763.387 851.944 763.387 849.136C763.387 846.276 765.623 844.196 768.379 844.196C771.083 844.196 773.319 846.276 773.319 849.136C773.319 851.944 771.083 854.024 768.379 854.024ZM813.897 818.182V856H805.902V825.771H805.68L797.02 831.2V824.109L806.382 818.182H813.897ZM837.714 856.831C834.538 856.819 831.805 856.037 829.515 854.486C827.237 852.935 825.483 850.688 824.252 847.746C823.033 844.804 822.43 841.264 822.442 837.128C822.442 833.004 823.052 829.489 824.271 826.584C825.502 823.679 827.256 821.469 829.533 819.955C831.823 818.428 834.55 817.665 837.714 817.665C840.878 817.665 843.598 818.428 845.876 819.955C848.165 821.481 849.926 823.697 851.157 826.602C852.388 829.495 852.997 833.004 852.985 837.128C852.985 841.277 852.37 844.822 851.138 847.764C849.92 850.706 848.172 852.953 845.894 854.504C843.617 856.055 840.89 856.831 837.714 856.831ZM837.714 850.202C839.88 850.202 841.61 849.112 842.903 846.933C844.195 844.754 844.835 841.486 844.823 837.128C844.823 834.259 844.528 831.871 843.937 829.963C843.358 828.055 842.533 826.621 841.462 825.661C840.404 824.7 839.154 824.22 837.714 824.22C835.559 824.22 833.836 825.297 832.543 827.452C831.251 829.606 830.598 832.831 830.586 837.128C830.586 840.033 830.875 842.458 831.454 844.403C832.045 846.336 832.876 847.789 833.947 848.761C835.018 849.722 836.273 850.202 837.714 850.202ZM887.809 816.272H893.789V857.456H887.809V816.272ZM876.109 820.952H905.073V825.788H876.109V820.952ZM874.549 854.908H906.165V859.848H874.549V854.908ZM877.461 847.784H904.241V852.516H877.461V847.784ZM901.433 812.268L905.021 816.896C897.481 818.352 886.821 818.976 877.981 819.08C877.877 817.728 877.201 815.648 876.629 814.4C885.209 814.14 895.297 813.464 901.433 812.268ZM883.233 838.476V841.128H898.573V838.476H883.233ZM883.233 832.236V834.836H898.573V832.236H883.233ZM877.825 827.92H904.241V845.444H877.825V827.92ZM865.189 816.688H871.273V860.628H865.189V816.688ZM857.701 826.464H876.785V832.288H857.701V826.464ZM865.553 828.804L869.193 830.416C867.217 837.852 863.525 847.108 859.521 852.256C858.949 850.436 857.597 847.836 856.609 846.276C860.249 842.116 863.889 834.576 865.553 828.804ZM873.301 812.372L877.461 817.208C872.157 819.236 864.929 820.64 858.845 821.42C858.585 820.068 857.805 817.988 857.077 816.688C862.849 815.7 869.297 814.192 873.301 812.372ZM871.117 833.692C872.417 834.784 876.941 839.464 877.929 840.66L874.393 845.548C873.145 843.052 870.025 838.32 868.413 836.136L871.117 833.692ZM909.961 840.4H932.477V845.756H909.961V840.4ZM909.961 820.744H932.061V825.58H909.961V820.744ZM927.173 812.736L932.321 814.088C931.021 816.48 929.773 818.82 928.785 820.432L924.781 819.132C925.665 817.312 926.653 814.608 927.173 812.736ZM918.281 812.476H923.689V835.72H918.281V812.476ZM910.377 814.504L914.537 812.944C915.733 814.816 916.877 817.26 917.241 818.924L912.821 820.64C912.561 818.976 911.521 816.428 910.377 814.504ZM918.853 849.916L922.493 846.172C925.665 848.148 930.085 851.216 932.269 853.192L928.421 857.404C926.393 855.376 922.025 852.1 918.853 849.916ZM923.429 825.424C925.301 826.308 931.333 829.896 932.737 830.884L929.513 835.252C927.485 833.328 922.701 829.636 920.361 828.076L923.429 825.424ZM917.917 823.5L921.921 824.956C919.841 829.376 916.097 834.056 912.405 836.552C911.625 835.356 909.961 833.484 908.817 832.548C912.301 830.624 915.993 826.932 917.917 823.5ZM932.685 813.88H957.489V819.236H932.685V813.88ZM939.757 834.68V837.852H950.209V834.68H939.757ZM939.757 842.168V845.444H950.209V842.168H939.757ZM939.757 827.192V830.364H950.209V827.192H939.757ZM934.141 822.512H956.085V850.072H934.141V822.512ZM941.837 816.74L948.701 817.52C947.505 820.744 946.153 823.968 945.113 826.152L939.913 825.112C940.693 822.72 941.473 819.236 941.837 816.74ZM938.613 850.124L943.709 853.4C941.057 856.104 936.689 859.068 932.945 860.732C931.957 859.536 930.241 857.768 928.889 856.728C932.477 855.22 936.585 852.36 938.613 850.124ZM945.633 853.556L950.053 850.488C952.913 852.412 956.813 855.324 958.789 857.3L954.005 860.628C952.289 858.704 948.493 855.636 945.633 853.556ZM918.125 836.812H923.741V842.48C923.741 848.408 922.233 855.584 911.937 860.004C911.313 858.652 909.701 856.416 908.609 855.376C917.085 851.892 918.125 846.588 918.125 842.324V836.812Z" fill="white"/>
<path d="M259.5 400.545L277.977 445.622L265.179 455.319L240.107 400.545H259.5ZM269.328 445.185L287.586 400.545H306.98L281.777 455.319L269.328 445.185ZM282.65 442.914V490H263.956V442.914H282.65ZM300.297 443.875V454.664H244.912V443.875H300.297ZM300.297 461.172V471.961H244.912V461.172H300.297ZM314.645 474.276V459.381L351.991 400.545H364.832V421.162H357.232L333.689 458.42V459.119H386.759V474.276H314.645ZM357.582 490V469.733L357.931 463.137V400.545H375.665V490H357.582ZM431.727 399.322C436.328 399.322 440.754 400.094 445.005 401.637C449.286 403.181 453.1 405.641 456.449 409.019C459.827 412.397 462.491 416.881 464.442 422.472C466.422 428.034 467.427 434.863 467.456 442.958C467.456 450.558 466.597 457.343 464.879 463.312C463.19 469.252 460.759 474.305 457.585 478.469C454.411 482.633 450.581 485.807 446.097 487.991C441.613 490.146 436.604 491.223 431.072 491.223C425.102 491.223 419.831 490.073 415.26 487.772C410.688 485.443 407.004 482.283 404.209 478.294C401.443 474.276 399.768 469.762 399.186 464.754H417.837C418.565 468.015 420.094 470.548 422.423 472.354C424.753 474.13 427.635 475.018 431.072 475.018C436.895 475.018 441.322 472.485 444.35 467.418C447.378 462.322 448.907 455.348 448.936 446.496H448.325C446.985 449.116 445.18 451.373 442.909 453.266C440.637 455.13 438.031 456.571 435.09 457.59C432.178 458.609 429.077 459.119 425.786 459.119C420.516 459.119 415.813 457.881 411.678 455.406C407.543 452.931 404.282 449.524 401.894 445.185C399.506 440.847 398.312 435.896 398.312 430.335C398.283 424.336 399.666 418.993 402.462 414.304C405.257 409.616 409.159 405.947 414.168 403.297C419.205 400.618 425.058 399.293 431.727 399.322ZM431.858 414.173C428.917 414.173 426.296 414.872 423.996 416.27C421.724 417.668 419.919 419.546 418.579 421.904C417.269 424.263 416.628 426.898 416.657 429.81C416.657 432.751 417.298 435.401 418.579 437.76C419.89 440.089 421.666 441.953 423.908 443.351C426.179 444.719 428.771 445.404 431.683 445.404C433.867 445.404 435.891 444.996 437.754 444.181C439.618 443.365 441.234 442.244 442.603 440.817C444 439.362 445.092 437.687 445.879 435.794C446.665 433.902 447.058 431.892 447.058 429.767C447.029 426.942 446.359 424.35 445.049 421.992C443.738 419.633 441.933 417.74 439.633 416.314C437.332 414.887 434.741 414.173 431.858 414.173ZM497.354 477.77L496.874 482.575C496.495 486.418 495.767 490.248 494.69 494.062C493.642 497.906 492.535 501.386 491.37 504.501C490.235 507.617 489.317 510.063 488.619 511.839H476.563C477 510.121 477.597 507.719 478.354 504.632C479.111 501.575 479.825 498.139 480.494 494.324C481.164 490.51 481.586 486.622 481.761 482.662L481.979 477.77H497.354ZM543.96 491.223C537.233 491.223 531.249 490.131 526.008 487.947C520.795 485.734 516.704 482.72 513.734 478.906C510.764 475.091 509.279 470.767 509.279 465.933C509.279 462.206 510.123 458.784 511.812 455.668C513.53 452.523 515.86 449.917 518.801 447.85C521.742 445.753 525.032 444.414 528.672 443.831V443.22C523.897 442.259 520.024 439.944 517.054 436.275C514.083 432.577 512.598 428.282 512.598 423.39C512.598 418.76 513.952 414.639 516.66 411.028C519.369 407.388 523.081 404.535 527.799 402.467C532.545 400.371 537.932 399.322 543.96 399.322C549.988 399.322 555.36 400.371 560.077 402.467C564.824 404.564 568.551 407.432 571.259 411.072C573.967 414.683 575.336 418.789 575.365 423.39C575.336 428.311 573.822 432.606 570.822 436.275C567.823 439.944 563.979 442.259 559.291 443.22V443.831C562.873 444.414 566.12 445.753 569.032 447.85C571.973 449.917 574.302 452.523 576.02 455.668C577.767 458.784 578.655 462.206 578.685 465.933C578.655 470.767 577.156 475.091 574.186 478.906C571.216 482.72 567.11 485.734 561.868 487.947C556.656 490.131 550.686 491.223 543.96 491.223ZM543.96 477.333C546.959 477.333 549.58 476.794 551.822 475.717C554.064 474.61 555.811 473.096 557.064 471.174C558.345 469.223 558.985 466.981 558.985 464.448C558.985 461.856 558.33 459.57 557.02 457.59C555.709 455.581 553.933 454.009 551.691 452.873C549.449 451.708 546.872 451.126 543.96 451.126C541.077 451.126 538.5 451.708 536.229 452.873C533.957 454.009 532.167 455.581 530.856 457.59C529.575 459.57 528.934 461.856 528.934 464.448C528.934 466.981 529.56 469.223 530.812 471.174C532.065 473.096 533.826 474.61 536.098 475.717C538.369 476.794 540.99 477.333 543.96 477.333ZM543.96 437.367C546.464 437.367 548.692 436.857 550.643 435.838C552.594 434.819 554.122 433.407 555.229 431.601C556.336 429.796 556.889 427.714 556.889 425.355C556.889 423.026 556.336 420.987 555.229 419.24C554.122 417.464 552.608 416.081 550.686 415.091C548.765 414.071 546.522 413.562 543.96 413.562C541.426 413.562 539.184 414.071 537.233 415.091C535.282 416.081 533.754 417.464 532.647 419.24C531.57 420.987 531.031 423.026 531.031 425.355C531.031 427.714 531.584 429.796 532.691 431.601C533.797 433.407 535.326 434.819 537.277 435.838C539.228 436.857 541.456 437.367 543.96 437.367ZM626.983 491.966C619.47 491.936 613.005 490.087 607.589 486.418C602.202 482.749 598.053 477.435 595.141 470.475C592.258 463.516 590.831 455.144 590.86 445.36C590.86 435.605 592.302 427.292 595.184 420.419C598.096 413.547 602.246 408.32 607.633 404.739C613.049 401.128 619.499 399.322 626.983 399.322C634.466 399.322 640.902 401.128 646.289 404.739C651.705 408.349 655.869 413.591 658.781 420.463C661.693 427.306 663.134 435.605 663.105 445.36C663.105 455.173 661.649 463.56 658.737 470.519C655.854 477.479 651.72 482.793 646.332 486.462C640.945 490.131 634.495 491.966 626.983 491.966ZM626.983 476.285C632.108 476.285 636.199 473.708 639.256 468.554C642.314 463.4 643.828 455.668 643.799 445.36C643.799 438.575 643.1 432.926 641.702 428.413C640.334 423.899 638.383 420.507 635.849 418.235C633.345 415.964 630.39 414.828 626.983 414.828C621.887 414.828 617.81 417.376 614.753 422.472C611.695 427.568 610.152 435.197 610.123 445.36C610.123 452.232 610.807 457.969 612.175 462.57C613.573 467.141 615.539 470.577 618.072 472.878C620.606 475.149 623.576 476.285 626.983 476.285ZM711.665 491.966C704.152 491.936 697.688 490.087 692.272 486.418C686.885 482.749 682.735 477.435 679.823 470.475C676.94 463.516 675.514 455.144 675.543 445.36C675.543 435.605 676.984 427.292 679.867 420.419C682.779 413.547 686.928 408.32 692.315 404.739C697.732 401.128 704.182 399.322 711.665 399.322C719.149 399.322 725.584 401.128 730.971 404.739C736.388 408.349 740.552 413.591 743.464 420.463C746.375 427.306 747.817 435.605 747.788 445.36C747.788 455.173 746.332 463.56 743.42 470.519C740.537 477.479 736.402 482.793 731.015 486.462C725.628 490.131 719.178 491.966 711.665 491.966ZM711.665 476.285C716.79 476.285 720.882 473.708 723.939 468.554C726.997 463.4 728.511 455.668 728.482 445.36C728.482 438.575 727.783 432.926 726.385 428.413C725.016 423.899 723.065 420.507 720.532 418.235C718.028 415.964 715.072 414.828 711.665 414.828C706.569 414.828 702.493 417.376 699.435 422.472C696.378 427.568 694.834 435.197 694.805 445.36C694.805 452.232 695.489 457.969 696.858 462.57C698.256 467.141 700.221 470.577 702.755 472.878C705.288 475.149 708.258 476.285 711.665 476.285ZM832.591 459.824H804.623V487.792H795.331V459.824H767.363V450.532H795.331V422.564H804.623V450.532H832.591V459.824ZM886.595 416.032L895.795 412.076C899.199 416.86 902.787 423.208 904.167 427.624L894.415 432.04C893.311 427.716 889.907 421 886.595 416.032ZM920.359 411.8L931.675 415.572C928.455 421.276 924.959 427.164 922.107 431.12L912.723 427.624C915.483 423.3 918.703 416.768 920.359 411.8ZM894.323 459.916H905.179C903.983 476.752 900.671 490.552 883.283 498.464C882.087 495.704 879.051 491.748 876.751 489.724C891.379 483.652 893.403 472.888 894.323 459.916ZM910.055 458.628H920.727V484.112C920.727 486.872 920.911 487.24 922.015 487.24C922.567 487.24 924.499 487.24 925.051 487.24C926.431 487.24 926.799 485.768 926.983 476.2C929.007 477.856 933.515 479.696 936.367 480.432C935.447 493.496 932.779 497.084 926.247 497.084C924.683 497.084 921.647 497.084 920.083 497.084C911.803 497.084 910.055 493.864 910.055 484.204V458.628ZM897.267 439.952V452.464H920.083V439.952H897.267ZM886.779 430.292H931.123V462.032H886.779V430.292ZM862.951 420.448H873.715V498.188H862.951V420.448ZM849.703 437.744H883.467V448.048H849.703V437.744ZM863.595 441.884L870.035 444.736C866.539 457.892 860.007 474.268 852.923 483.376C851.911 480.156 849.519 475.556 847.771 472.796C854.211 465.436 860.651 452.096 863.595 441.884ZM877.303 412.812L884.663 421.368C875.279 424.956 862.491 427.44 851.727 428.82C851.267 426.428 849.887 422.748 848.599 420.448C858.811 418.7 870.219 416.032 877.303 412.812ZM873.439 450.532C875.739 452.464 883.743 460.744 885.491 462.86L879.235 471.508C877.027 467.092 871.507 458.72 868.655 454.856L873.439 450.532Z" fill="#DE4833"/>
<path d="M971.814 416.148L949.08 500.609H939.883L962.617 416.148H971.814ZM992.362 431.762H1030.99V437.164H992.362V431.762ZM992.362 449.596H1031.29V454.924H992.362V449.596ZM991.77 467.504H1030.92V472.832H991.77V467.504ZM988.958 431.762H994.582V454.628C994.582 467.43 992.732 484.894 980.004 495.994C979.19 494.81 976.97 492.812 975.786 491.998C987.7 481.564 988.958 466.542 988.958 454.628V431.762ZM1028.55 431.762H1034.32V487.78C1034.32 491.702 1033.28 493.626 1030.47 494.588C1027.59 495.55 1022.7 495.624 1014.71 495.624C1014.34 493.996 1013.3 491.332 1012.34 489.778C1018.48 490 1024.55 489.926 1026.25 489.926C1027.96 489.852 1028.55 489.334 1028.55 487.706V431.762Z" fill="black"/>
<line x1="140" y1="532" x2="1146" y2="532" stroke="black" stroke-width="6"/>
<defs>
<filter id="filter0_d_9_86" x="81" y="0" width="1144" height="256" filterUnits="userSpaceOnUse" color-interpolation-filters="sRGB">
<feFlood flood-opacity="0" result="BackgroundImageFix"/>
<feColorMatrix in="SourceAlpha" type="matrix" values="0 0 0 0 0 0 0 0 0 0 0 0 0 0 0 0 0 0 127 0" result="hardAlpha"/>
<feOffset dx="10" dy="9"/>
<feGaussianBlur stdDeviation="6.5"/>
<feComposite in2="hardAlpha" operator="out"/>
<feColorMatrix type="matrix" values="0 0 0 0 0 0 0 0 0 0 0 0 0 0 0 0 0 0 0.25 0"/>
<feBlend mode="normal" in2="BackgroundImageFix" result="effect1_dropShadow_9_86"/>
<feBlend mode="normal" in="SourceGraphic" in2="effect1_dropShadow_9_86" result="shape"/>
</filter>
<filter id="filter1_d_9_86" x="0" y="601" width="1306" height="149" filterUnits="userSpaceOnUse" color-interpolation-filters="sRGB">
<feFlood flood-opacity="0" result="BackgroundImageFix"/>
<feColorMatrix in="SourceAlpha" type="matrix" values="0 0 0 0 0 0 0 0 0 0 0 0 0 0 0 0 0 0 127 0" result="hardAlpha"/>
<feOffset dx="10" dy="9"/>
<feGaussianBlur stdDeviation="6.5"/>
<feComposite in2="hardAlpha" operator="out"/>
<feColorMatrix type="matrix" values="0 0 0 0 0 0 0 0 0 0 0 0 0 0 0 0 0 0 0.25 0"/>
<feBlend mode="normal" in2="BackgroundImageFix" result="effect1_dropShadow_9_86"/>
<feBlend mode="normal" in="SourceGraphic" in2="effect1_dropShadow_9_86" result="shape"/>
</filter>
<filter id="filter2_d_9_86" x="0" y="772" width="1306" height="149" filterUnits="userSpaceOnUse" color-interpolation-filters="sRGB">
<feFlood flood-opacity="0" result="BackgroundImageFix"/>
<feColorMatrix in="SourceAlpha" type="matrix" values="0 0 0 0 0 0 0 0 0 0 0 0 0 0 0 0 0 0 127 0" result="hardAlpha"/>
<feOffset dx="10" dy="9"/>
<feGaussianBlur stdDeviation="6.5"/>
<feComposite in2="hardAlpha" operator="out"/>
<feColorMatrix type="matrix" values="0 0 0 0 0 0 0 0 0 0 0 0 0 0 0 0 0 0 0.25 0"/>
<feBlend mode="normal" in2="BackgroundImageFix" result="effect1_dropShadow_9_86"/>
<feBlend mode="normal" in="SourceGraphic" in2="effect1_dropShadow_9_86" result="shape"/>
</filter>
<linearGradient id="paint0_linear_9_86" x1="84" y1="119" x2="1202" y2="119" gradientUnits="userSpaceOnUse">
<stop stop-color="#FFAF50"/>
</linearGradient>
<linearGradient id="paint1_linear_9_86" x1="3" y1="666.5" x2="1283" y2="666.5" gradientUnits="userSpaceOnUse">
<stop stop-color="#6770E6"/>
</linearGradient>
<linearGradient id="paint2_linear_9_86" x1="3" y1="837.5" x2="1283" y2="837.5" gradientUnits="userSpaceOnUse">
<stop stop-color="#6770E6"/>
</linearGradient>
</defs>
</svg>
