<svg width="1306" height="921" viewBox="0 0 1306 921" fill="none" xmlns="http://www.w3.org/2000/svg">
<g filter="url(#filter0_d_9_100)">
<rect x="84" y="4" width="1118" height="230" rx="88" fill="url(#paint0_linear_9_100)"/>
</g>
<path d="M343.543 39.627C343.543 42.219 345.649 44.325 348.241 44.325C350.833 44.325 352.939 42.219 352.939 39.627C352.939 37.035 350.833 34.929 348.241 34.929C345.649 34.929 343.543 37.035 343.543 39.627ZM338.521 39.627C338.521 34.281 342.895 29.907 348.241 29.907C353.587 29.907 357.961 34.281 357.961 39.627C357.961 44.973 353.587 49.347 348.241 49.347C342.895 49.347 338.521 44.973 338.521 39.627ZM348.403 46.026C347.593 47.565 347.026 49.914 346.621 51.615C344.758 59.553 341.194 72.189 334.39 81.18C327.1 90.9 316.327 98.919 301.828 103.536L292.999 93.816C309.118 90.09 318.271 83.043 324.751 74.862C330.178 68.139 333.256 58.905 334.309 51.939C329.368 51.939 302.638 51.939 296.563 51.939C292.837 51.939 289.03 52.182 286.924 52.344V40.842C289.354 41.166 293.89 41.571 296.563 41.571C302.638 41.571 329.53 41.571 334.066 41.571C335.686 41.571 338.278 41.49 340.384 40.923L348.403 46.026ZM369.706 41.571C372.946 41.652 376.024 41.733 378.211 41.733C384.124 41.733 417.01 41.733 422.842 41.733C424.867 41.733 427.864 41.733 430.861 41.652C430.699 44.082 430.699 46.998 430.699 49.509C430.699 54.45 430.699 84.258 430.699 89.199C430.699 92.358 430.78 100.134 430.861 100.458H419.602C419.602 100.134 419.845 93.816 419.845 89.361C419.845 84.663 419.845 52.101 419.845 52.101H380.641C380.641 52.101 380.641 84.582 380.641 89.361C380.641 93.249 380.722 100.053 380.722 100.458H369.625C369.625 100.053 369.787 92.925 369.787 89.037C369.787 84.177 369.787 54.207 369.787 49.509C369.787 47.16 369.787 43.92 369.706 41.571ZM423.814 85.716V96.003H375.133V85.716H423.814ZM512.509 45.135C511.699 46.674 511.132 49.023 510.727 50.724C508.864 58.662 505.3 71.217 498.496 80.289C491.206 89.928 480.433 98.028 465.934 102.645L457.105 92.925C473.224 89.199 482.296 82.152 488.857 73.971C494.284 67.167 497.281 58.014 498.415 51.048C493.474 51.048 466.744 51.048 460.669 51.048C456.943 51.048 453.136 51.291 451.03 51.372V39.951C453.46 40.275 457.996 40.599 460.669 40.599C466.744 40.599 493.636 40.599 498.172 40.599C499.711 40.599 502.303 40.518 504.49 40.032L512.509 45.135ZM537.376 55.179C539.158 55.422 542.074 55.584 543.856 55.584H580.873C582.898 55.584 585.247 55.422 587.191 55.179V65.304C585.166 65.142 582.736 65.061 580.873 65.061H543.856C542.074 65.061 539.158 65.142 537.376 65.304V55.179ZM556.411 96.57V60.687H567.022V96.57H556.411ZM533.326 90.576C535.351 90.9 537.862 91.062 539.968 91.062H584.68C586.948 91.062 589.135 90.819 590.836 90.576V101.187C589.135 100.944 586.138 100.863 584.68 100.863H539.968C537.943 100.863 535.432 100.944 533.326 101.187V90.576ZM643.324 50.967C644.863 54.369 648.832 64.98 649.966 68.706L640.327 72.027C639.274 68.139 635.71 58.338 633.766 54.126L643.324 50.967ZM673.213 56.799C672.322 59.472 671.836 61.173 671.35 62.793C669.244 70.974 665.761 79.398 660.253 86.445C652.72 96.246 642.676 102.969 633.199 106.614L624.694 97.947C633.523 95.517 644.863 89.361 651.505 80.937C657.013 74.133 660.982 63.36 661.873 53.154L673.213 56.799ZM624.532 55.179C626.557 59.31 630.526 69.192 632.065 73.728L622.183 77.373C620.887 73.08 616.756 62.226 614.812 58.743L624.532 55.179ZM708.448 34.929C713.794 37.845 722.704 43.515 726.916 46.512L720.922 55.422C716.386 52.263 707.962 46.836 702.616 43.839L708.448 34.929ZM693.463 92.439C702.535 90.9 712.174 88.146 721.003 83.286C734.773 75.591 746.113 64.494 752.512 52.911L758.749 63.927C751.297 75.186 739.795 85.392 726.592 93.087C718.33 97.704 706.666 101.754 699.538 103.05L693.463 92.439ZM695.974 53.397C701.401 56.313 710.311 61.821 714.523 64.818L708.529 73.89C703.993 70.65 695.569 65.223 690.142 62.307L695.974 53.397ZM781.672 53.316C783.778 53.478 788.719 53.64 791.716 53.64C798.358 53.64 815.692 53.64 822.415 53.64C824.278 53.64 827.275 53.559 828.571 53.478C828.49 54.612 828.49 57.285 828.49 58.986C828.49 62.226 828.49 93.168 828.49 99.567C828.49 100.863 828.571 103.698 828.571 105.075H818.446C818.527 103.779 818.527 100.701 818.527 99.081C818.527 90.819 818.527 65.466 818.527 62.793C815.368 62.793 798.277 62.793 791.716 62.793C788.719 62.793 783.697 62.955 781.672 63.036V53.316ZM783.778 72.27C785.884 72.432 789.61 72.513 792.688 72.513C796.657 72.513 821.038 72.513 823.225 72.513V81.747C820.957 81.747 796.657 81.747 792.688 81.747C789.61 81.747 785.722 81.747 783.778 81.909V72.27ZM780.862 92.115C782.158 92.277 784.912 92.439 787.828 92.439C792.85 92.439 819.823 92.439 823.306 92.439V101.916C818.851 101.916 792.85 101.916 787.828 101.916C785.479 101.916 782.158 102.078 780.862 102.078V92.115ZM882.598 44.406C882.598 41.733 882.274 37.521 881.545 34.929H894.343C893.938 37.521 893.695 41.976 893.695 44.487C893.695 49.023 893.695 55.098 893.695 60.525C893.695 78.102 889.159 92.52 870.61 103.617L860.485 96.165C877.576 88.308 882.598 75.591 882.598 60.525C882.598 55.098 882.598 48.942 882.598 44.406ZM852.466 52.749C854.977 53.073 858.298 53.316 861.538 53.316C866.155 53.316 906.979 53.316 911.92 53.316C915.646 53.316 919.129 53.073 920.83 52.83V63.927C919.129 63.765 915.079 63.603 911.839 63.603C906.979 63.603 866.155 63.603 861.781 63.603C858.298 63.603 855.058 63.765 852.466 64.008V52.749ZM967.162 97.218C967.567 95.679 967.81 93.492 967.81 91.305C967.81 87.012 967.81 50.643 967.81 44.082C967.81 40.437 967.243 37.278 967.243 37.116H979.231C979.231 37.278 978.664 40.518 978.664 44.163C978.664 50.643 978.664 81.504 978.664 86.445C985.306 83.61 993.244 77.211 998.752 69.354L1004.91 78.345C998.185 87.093 986.602 95.841 977.449 100.458C975.748 101.349 974.776 102.24 973.966 102.807L967.162 97.218ZM929.659 96.084C936.868 91.062 941.242 83.61 943.429 76.644C945.778 69.759 945.859 54.369 945.859 44.649C945.859 41.328 945.535 39.222 945.049 37.197H956.956C956.956 37.521 956.389 41.166 956.389 44.487C956.389 54.126 956.146 71.217 954.04 79.398C951.529 88.47 946.507 96.489 939.541 102.645L929.659 96.084ZM586.543 137.627C586.543 140.219 588.649 142.325 591.241 142.325C593.833 142.325 595.939 140.219 595.939 137.627C595.939 135.035 593.833 132.929 591.241 132.929C588.649 132.929 586.543 135.035 586.543 137.627ZM581.521 137.627C581.521 132.281 585.895 127.907 591.241 127.907C596.587 127.907 600.961 132.281 600.961 137.627C600.961 142.973 596.587 147.347 591.241 147.347C585.895 147.347 581.521 142.973 581.521 137.627ZM591.403 144.026C590.593 145.565 590.026 147.914 589.621 149.615C587.758 157.553 584.194 170.189 577.39 179.18C570.1 188.9 559.327 196.919 544.828 201.536L535.999 191.816C552.118 188.09 561.271 181.043 567.751 172.862C573.178 166.139 576.256 156.905 577.309 149.939C572.368 149.939 545.638 149.939 539.563 149.939C535.837 149.939 532.03 150.182 529.924 150.344V138.842C532.354 139.166 536.89 139.571 539.563 139.571C545.638 139.571 572.53 139.571 577.066 139.571C578.686 139.571 581.278 139.49 583.384 138.923L591.403 144.026ZM620.563 134.873C622.75 135.197 626.233 135.359 628.987 135.359C634.09 135.359 655.393 135.359 660.091 135.359C662.683 135.359 666.652 135.197 668.839 134.873V145.403C666.733 145.241 662.926 145.079 659.929 145.079C655.474 145.079 633.766 145.079 628.987 145.079C626.314 145.079 622.912 145.16 620.563 145.403V134.873ZM675.724 158.444C675.157 159.497 674.428 160.955 674.185 161.765C671.674 169.622 668.191 177.56 662.197 184.202C654.016 193.355 643.648 198.782 633.28 201.779L625.18 192.626C637.411 190.034 647.05 184.769 653.287 178.37C657.58 173.996 660.172 168.893 661.549 164.438C657.499 164.438 629.716 164.438 622.507 164.438C620.482 164.438 616.432 164.519 613.03 164.762V154.232C616.513 154.556 619.915 154.799 622.507 154.799C628.015 154.799 657.013 154.799 662.521 154.799C665.194 154.799 667.381 154.475 668.515 153.908L675.724 158.444ZM703.021 135.44C708.61 139.247 719.14 147.671 723.919 152.612L715.657 161.036C711.445 156.5 701.239 147.671 695.326 143.621L703.021 135.44ZM692.815 189.386C705.532 187.604 715.981 183.473 723.838 178.856C737.689 170.594 748.219 158.282 753.403 147.347L759.64 158.687C753.565 169.703 742.792 180.881 729.751 188.738C721.489 193.679 711.04 198.134 699.7 200.078L692.815 189.386Z" fill="white"/>
<g filter="url(#filter1_d_9_100)">
<rect x="3" y="605" width="1280" height="123" rx="37" fill="url(#paint1_linear_9_100)"/>
</g>
<path d="M143.824 683.752H169.2V688.328H143.824V683.752ZM151.26 651.772H157.292V658.012H151.26V651.772ZM132.072 655.36H177.312V665.708H171.228V660.04H137.948V665.708H132.072V655.36ZM143.616 662.224H169.096V673.872H143.616V669.4H162.856V666.696H143.616V662.224ZM143.876 676.212H173.048V689.732H166.808V680.788H143.876V676.212ZM140.184 662.224H146.112V689.784H140.184V662.224ZM137.324 644.492H153.704V649.38H137.324V644.492ZM158.384 644.492H178.56V649.38H158.384V644.492ZM137.532 640.436L143.356 641.996C141.328 646.676 138 651.408 134.932 654.372C133.736 653.436 131.24 651.772 129.836 651.044C132.956 648.444 135.92 644.388 137.532 640.436ZM158.696 640.436L164.624 641.892C162.752 646.364 159.528 650.68 156.408 653.384C155.16 652.448 152.508 651.096 150.948 650.42C154.276 648.028 157.188 644.232 158.696 640.436ZM139.248 648.288L144.552 646.884C145.852 648.652 147.308 651.148 147.932 652.812L142.316 654.424C141.848 652.812 140.496 650.16 139.248 648.288ZM162.492 648.444L167.952 646.988C169.46 648.704 171.28 651.2 172.112 652.864L166.34 654.476C165.664 652.916 163.948 650.264 162.492 648.444ZM207.16 657.596V662.068H222.916V657.596H207.16ZM207.16 648.34V652.708H222.916V648.34H207.16ZM201.544 643.036H228.844V667.32H201.544V643.036ZM201.18 671.792H229.416V677.408H201.18V671.792ZM197.54 682.4H231.132V688.016H197.54V682.4ZM182.304 643.816H199.568V649.64H182.304V643.816ZM182.824 658.792H198.684V664.564H182.824V658.792ZM181.732 678.552C186.204 677.408 192.86 675.328 199.1 673.3L200.192 679.28C194.368 681.256 188.128 683.284 183.136 684.896L181.732 678.552ZM188.076 646.104H194.004V678.084L188.076 679.02V646.104ZM212.516 645.272H217.768V664.876H218.34V685.052H211.944V664.876H212.516V645.272ZM269.508 646.052H276.06V681.828C276.06 685.572 275.176 687.444 272.68 688.432C270.08 689.524 266.284 689.628 260.928 689.628C260.564 687.756 259.316 684.688 258.328 682.972C262.072 683.232 266.596 683.18 267.844 683.18C269.092 683.128 269.508 682.764 269.508 681.672V646.052ZM239.764 656.452H245.848V680.684H239.764V656.452ZM242.364 656.452H261.968V676.68H242.364V670.752H255.78V662.38H242.364V656.452ZM234.98 644.336H282.092V650.628H234.98V644.336ZM293.896 640.592L300.396 641.996C298.524 646.78 296.184 651.876 294.208 655.204L288.8 653.8C290.672 650.264 292.804 644.752 293.896 640.592ZM286.044 651.252C291.66 651.096 300.084 650.732 308.144 650.368L308.092 655.776C300.448 656.348 292.44 656.816 286.512 657.18L286.044 651.252ZM289.112 659.624H305.648V664.772H294.884V689.628H289.112V659.624ZM302.684 659.624H308.872V683.388C308.872 686.04 308.352 687.6 306.584 688.536C304.764 689.472 302.424 689.576 299.252 689.576C298.94 687.912 298.056 685.52 297.276 684.012C299.096 684.116 301.176 684.116 301.852 684.064C302.476 684.064 302.684 683.908 302.684 683.232V659.624ZM291.764 667.476H306.168V672.104H291.764V667.476ZM291.764 675.12H306.168V679.748H291.764V675.12ZM312.928 641.06H319.168V656.66C319.168 658.48 319.48 658.74 321.456 658.74C322.288 658.74 326.032 658.74 327.124 658.74C328.84 658.74 329.152 657.96 329.36 653.384C330.66 654.372 333.208 655.308 334.924 655.672C334.248 662.432 332.584 664.304 327.748 664.304C326.448 664.304 321.768 664.304 320.572 664.304C314.436 664.304 312.928 662.536 312.928 656.764V641.06ZM328.528 644.128L332.48 648.652C327.852 650.888 321.82 652.864 316.672 654.268C316.412 653.02 315.58 651.148 314.904 649.952C319.74 648.444 325.096 646.104 328.528 644.128ZM312.928 665.344H319.116V681.724C319.116 683.648 319.48 683.856 321.508 683.856C322.392 683.856 326.292 683.856 327.436 683.856C329.256 683.856 329.568 682.92 329.828 677.616C331.128 678.552 333.624 679.54 335.34 679.904C334.664 687.236 333 689.316 328.008 689.316C326.708 689.316 321.872 689.316 320.624 689.316C314.488 689.316 312.928 687.548 312.928 681.776V665.344ZM328.944 667.528L333 672.104C328.268 674.652 321.976 676.836 316.62 678.344C316.308 677.148 315.424 675.172 314.8 673.976C319.844 672.364 325.408 669.816 328.944 667.528ZM300.968 646.312L306.272 644.336C308.82 648.08 311.524 653.02 312.512 656.452L306.844 658.74C305.96 655.412 303.464 650.212 300.968 646.312ZM386.092 649.848C385.572 650.524 384.584 651.772 384.116 652.5C381.672 656.556 376.732 663.16 371.584 666.8L366.176 662.484C370.388 659.936 374.444 655.36 375.796 652.812C372.624 652.812 351.928 652.812 348.652 652.812C346.52 652.812 344.752 652.916 342.308 653.176V645.896C344.336 646.208 346.52 646.468 348.652 646.468C351.928 646.468 373.976 646.468 376.68 646.468C378.136 646.468 380.996 646.26 381.984 646L386.092 649.848ZM364.928 656.816C364.928 669.712 364.616 680.32 350.472 687.964L344.388 683.024C346.104 682.452 347.976 681.568 349.9 680.112C356.452 675.536 357.7 670.076 357.7 661.548C357.7 659.884 357.648 658.532 357.388 656.816H364.928ZM416.148 643.296C415.992 644.544 415.836 646.728 415.784 647.976C415.212 668.62 410.324 679.176 398.832 687.34L392.748 682.452C394.932 681.256 397.532 679.54 399.612 677.408C406.424 670.648 408.816 661.808 408.868 648.08C408.868 646.936 408.66 644.544 408.452 643.296H416.148ZM433.776 654.476C433.62 655.308 433.464 656.608 433.464 657.18C433.256 662.848 432.58 677.356 430.344 682.66C429.252 685.26 427.224 686.664 423.688 686.664C420.672 686.664 417.604 686.404 415.056 686.196L414.224 679.28C416.824 679.696 419.476 680.008 421.556 680.008C423.22 680.008 423.948 679.436 424.468 678.136C425.976 674.86 426.704 664.46 426.704 658.844H401.328C399.56 658.844 396.648 658.896 394.464 659.104V652.24C396.648 652.5 399.3 652.604 401.276 652.604H425.352C426.704 652.604 428.056 652.5 429.304 652.24L433.776 654.476ZM470.228 642.568C469.916 644.804 469.864 645.844 469.864 647.352C469.864 648.704 469.864 652.864 469.864 654.84H462.584C462.584 652.552 462.584 648.704 462.584 647.352C462.584 645.844 462.532 644.804 462.22 642.568H470.228ZM487.7 653.54C487.336 654.684 486.92 656.66 486.712 657.648C485.776 662.64 484.424 667.684 481.824 672.416C477.716 680.06 469.864 685.572 460.608 688.016L455.2 681.776C457.592 681.36 460.4 680.58 462.584 679.696C466.848 678.084 471.424 675.016 474.388 670.856C476.988 667.008 478.34 662.068 478.964 657.44H453.172C453.172 659.26 453.172 663.472 453.172 665.084C453.172 666.228 453.224 667.892 453.38 668.932H446.204C446.36 667.632 446.412 665.968 446.412 664.564C446.412 662.848 446.412 657.492 446.412 655.516C446.412 654.372 446.412 652.292 446.204 651.096C447.972 651.252 449.532 651.304 451.508 651.304H478.912C481.044 651.304 482.292 651.096 483.228 650.784L487.7 653.54ZM505.016 645.48C508.604 647.924 515.364 653.332 518.432 656.504L513.128 661.912C510.424 659 503.872 653.332 500.076 650.732L505.016 645.48ZM498.464 680.112C506.628 678.968 513.336 676.316 518.38 673.352C527.272 668.048 534.032 660.144 537.36 653.124L541.364 660.404C537.464 667.476 530.548 674.652 522.176 679.696C516.872 682.868 510.164 685.728 502.884 686.976L498.464 680.112ZM560.76 680.06C560.76 676.056 560.76 654.528 560.76 650.16C560.76 648.288 560.604 645.74 560.24 643.868H568.352C568.144 645.74 567.884 647.976 567.884 650.16C567.884 655.88 567.936 676.212 567.936 680.06C567.936 681.516 568.144 685.156 568.404 687.288H560.24C560.604 685.26 560.76 682.088 560.76 680.06ZM566.376 657.336C573.292 659.26 584.524 663.368 589.62 665.864L586.708 673.092C580.78 670.024 572.044 666.696 566.376 664.824V657.336ZM597.992 667.996H624.304V672.988H597.992V667.996ZM598.616 649.64H624.148V654.528H598.616V649.64ZM607.352 664.252L613.124 665.5C610.576 670.856 607.196 677.2 604.7 681.36L599.24 679.696C601.684 675.692 605.116 669.192 607.352 664.252ZM614.736 671.48L620.456 671.948C618.584 682.868 613.124 687.236 600.748 689.732C600.384 688.016 599.24 685.832 598.2 684.584C608.548 683.284 613.072 680.008 614.736 671.48ZM618.428 641.476L623.68 643.556C621.964 645.896 620.3 648.288 618.948 649.9L614.944 648.08C616.14 646.26 617.596 643.452 618.428 641.476ZM608.496 640.8H614.216V664.98H608.496V640.8ZM599.864 643.556L604.336 641.684C605.74 643.66 607.04 646.312 607.508 648.184L602.724 650.264C602.36 648.444 601.164 645.688 599.864 643.556ZM608.652 652.084L612.708 654.528C610.108 658.636 605.116 663.16 600.748 665.604C600.02 664.252 598.668 662.172 597.524 661.028C601.736 659.312 606.416 655.62 608.652 652.084ZM613.696 653.592C615.568 654.476 621.496 657.96 622.952 658.948L619.624 663.264C617.7 661.34 613.072 657.648 610.784 656.036L613.696 653.592ZM627.736 650.264H646.82V656.036H627.736V650.264ZM628.308 640.8L634.6 641.684C632.988 652.448 629.868 662.432 625.084 668.776C624.096 667.632 621.548 665.396 620.144 664.356C624.512 659.052 627.06 650.108 628.308 640.8ZM637.72 653.8L644.116 654.372C641.88 672.156 636.524 683.284 623.368 689.888C622.744 688.38 620.924 685.52 619.78 684.168C631.636 678.968 636.16 669.192 637.72 653.8ZM631.272 654.892C633.352 668.048 637.928 679.28 647.496 684.168C646.04 685.416 644.064 687.912 643.128 689.628C632.676 683.388 628.152 671.324 625.604 655.776L631.272 654.892ZM603.816 679.748L607.144 675.484C613.28 677.824 619.78 681.464 623.316 684.272L619 688.692C615.672 685.78 609.64 682.14 603.816 679.748ZM674.484 658.22C671.728 658.22 669.492 656.14 669.492 653.332C669.492 650.472 671.728 648.392 674.484 648.392C677.188 648.392 679.424 650.472 679.424 653.332C679.424 656.14 677.188 658.22 674.484 658.22ZM674.484 683.024C671.728 683.024 669.492 680.944 669.492 678.136C669.492 675.276 671.728 673.196 674.484 673.196C677.188 673.196 679.424 675.276 679.424 678.136C679.424 680.944 677.188 683.024 674.484 683.024ZM720.003 647.182V685H712.007V654.771H711.786L703.125 660.2V653.109L712.487 647.182H720.003ZM735.583 679.83L735.38 681.861C735.22 683.486 734.913 685.105 734.457 686.717C734.014 688.342 733.546 689.813 733.054 691.131C732.574 692.448 732.186 693.482 731.89 694.233H726.794C726.978 693.507 727.231 692.491 727.551 691.186C727.871 689.893 728.172 688.441 728.456 686.828C728.739 685.215 728.917 683.572 728.991 681.898L729.083 679.83H735.583ZM756.007 685.831C752.831 685.819 750.098 685.037 747.808 683.486C745.53 681.935 743.776 679.688 742.545 676.746C741.326 673.804 740.723 670.264 740.735 666.128C740.735 662.004 741.345 658.489 742.564 655.584C743.795 652.679 745.549 650.469 747.826 648.955C750.116 647.428 752.843 646.665 756.007 646.665C759.171 646.665 761.891 647.428 764.169 648.955C766.458 650.481 768.219 652.697 769.45 655.602C770.681 658.495 771.29 662.004 771.278 666.128C771.278 670.277 770.663 673.822 769.431 676.764C768.213 679.706 766.465 681.953 764.187 683.504C761.91 685.055 759.183 685.831 756.007 685.831ZM756.007 679.202C758.173 679.202 759.903 678.112 761.196 675.933C762.488 673.754 763.128 670.486 763.116 666.128C763.116 663.259 762.821 660.871 762.23 658.963C761.651 657.055 760.826 655.621 759.755 654.661C758.697 653.7 757.447 653.22 756.007 653.22C753.852 653.22 752.129 654.297 750.836 656.452C749.544 658.606 748.891 661.831 748.879 666.128C748.879 669.033 749.168 671.458 749.747 673.403C750.338 675.336 751.169 676.789 752.24 677.761C753.311 678.722 754.566 679.202 756.007 679.202ZM791.808 685.831C788.631 685.819 785.898 685.037 783.609 683.486C781.331 681.935 779.577 679.688 778.346 676.746C777.127 673.804 776.524 670.264 776.536 666.128C776.536 662.004 777.146 658.489 778.364 655.584C779.595 652.679 781.35 650.469 783.627 648.955C785.917 647.428 788.644 646.665 791.808 646.665C794.971 646.665 797.692 647.428 799.969 648.955C802.259 650.481 804.02 652.697 805.251 655.602C806.482 658.495 807.091 662.004 807.079 666.128C807.079 670.277 806.463 673.822 805.232 676.764C804.013 679.706 802.265 681.953 799.988 683.504C797.71 685.055 794.984 685.831 791.808 685.831ZM791.808 679.202C793.974 679.202 795.704 678.112 796.996 675.933C798.289 673.754 798.929 670.486 798.917 666.128C798.917 663.259 798.621 660.871 798.031 658.963C797.452 657.055 796.627 655.621 795.556 654.661C794.497 653.7 793.248 653.22 791.808 653.22C789.653 653.22 787.93 654.297 786.637 656.452C785.344 658.606 784.692 661.831 784.68 666.128C784.68 669.033 784.969 671.458 785.548 673.403C786.138 675.336 786.969 676.789 788.04 677.761C789.112 678.722 790.367 679.202 791.808 679.202ZM827.608 685.831C824.432 685.819 821.699 685.037 819.409 683.486C817.132 681.935 815.378 679.688 814.147 676.746C812.928 673.804 812.325 670.264 812.337 666.128C812.337 662.004 812.946 658.489 814.165 655.584C815.396 652.679 817.15 650.469 819.428 648.955C821.718 647.428 824.444 646.665 827.608 646.665C830.772 646.665 833.493 647.428 835.77 648.955C838.06 650.481 839.82 652.697 841.051 655.602C842.283 658.495 842.892 662.004 842.88 666.128C842.88 670.277 842.264 673.822 841.033 676.764C839.814 679.706 838.066 681.953 835.789 683.504C833.511 685.055 830.784 685.831 827.608 685.831ZM827.608 679.202C829.775 679.202 831.505 678.112 832.797 675.933C834.09 673.754 834.73 670.486 834.718 666.128C834.718 663.259 834.422 660.871 833.831 658.963C833.253 657.055 832.428 655.621 831.357 654.661C830.298 653.7 829.049 653.22 827.608 653.22C825.454 653.22 823.73 654.297 822.438 656.452C821.145 658.606 820.493 661.831 820.48 666.128C820.48 669.033 820.77 671.458 821.348 673.403C821.939 675.336 822.77 676.789 823.841 677.761C824.912 678.722 826.168 679.202 827.608 679.202ZM895.124 649.848C894.604 650.524 893.616 651.772 893.148 652.5C890.704 656.556 885.764 663.16 880.616 666.8L875.208 662.484C879.42 659.936 883.476 655.36 884.828 652.812C881.656 652.812 860.96 652.812 857.684 652.812C855.552 652.812 853.784 652.916 851.34 653.176V645.896C853.368 646.208 855.552 646.468 857.684 646.468C860.96 646.468 883.008 646.468 885.712 646.468C887.168 646.468 890.028 646.26 891.016 646L895.124 649.848ZM873.96 656.816C873.96 669.712 873.648 680.32 859.504 687.964L853.42 683.024C855.136 682.452 857.008 681.568 858.932 680.112C865.484 675.536 866.732 670.076 866.732 661.548C866.732 659.884 866.68 658.532 866.42 656.816H873.96ZM925.18 643.296C925.024 644.544 924.868 646.728 924.816 647.976C924.244 668.62 919.356 679.176 907.864 687.34L901.78 682.452C903.964 681.256 906.564 679.54 908.644 677.408C915.456 670.648 917.848 661.808 917.9 648.08C917.9 646.936 917.692 644.544 917.484 643.296H925.18ZM942.808 654.476C942.652 655.308 942.496 656.608 942.496 657.18C942.288 662.848 941.612 677.356 939.376 682.66C938.284 685.26 936.256 686.664 932.72 686.664C929.704 686.664 926.636 686.404 924.088 686.196L923.256 679.28C925.856 679.696 928.508 680.008 930.588 680.008C932.252 680.008 932.98 679.436 933.5 678.136C935.008 674.86 935.736 664.46 935.736 658.844H910.36C908.592 658.844 905.68 658.896 903.496 659.104V652.24C905.68 652.5 908.332 652.604 910.308 652.604H934.384C935.736 652.604 937.088 652.5 938.336 652.24L942.808 654.476ZM979.26 642.568C978.948 644.804 978.896 645.844 978.896 647.352C978.896 648.704 978.896 652.864 978.896 654.84H971.616C971.616 652.552 971.616 648.704 971.616 647.352C971.616 645.844 971.564 644.804 971.252 642.568H979.26ZM996.732 653.54C996.368 654.684 995.952 656.66 995.744 657.648C994.808 662.64 993.456 667.684 990.856 672.416C986.748 680.06 978.896 685.572 969.64 688.016L964.232 681.776C966.624 681.36 969.432 680.58 971.616 679.696C975.88 678.084 980.456 675.016 983.42 670.856C986.02 667.008 987.372 662.068 987.996 657.44H962.204C962.204 659.26 962.204 663.472 962.204 665.084C962.204 666.228 962.256 667.892 962.412 668.932H955.236C955.392 667.632 955.444 665.968 955.444 664.564C955.444 662.848 955.444 657.492 955.444 655.516C955.444 654.372 955.444 652.292 955.236 651.096C957.004 651.252 958.564 651.304 960.54 651.304H987.944C990.076 651.304 991.324 651.096 992.26 650.784L996.732 653.54ZM1014.05 645.48C1017.64 647.924 1024.4 653.332 1027.46 656.504L1022.16 661.912C1019.46 659 1012.9 653.332 1009.11 650.732L1014.05 645.48ZM1007.5 680.112C1015.66 678.968 1022.37 676.316 1027.41 673.352C1036.3 668.048 1043.06 660.144 1046.39 653.124L1050.4 660.404C1046.5 667.476 1039.58 674.652 1031.21 679.696C1025.9 682.868 1019.2 685.728 1011.92 686.976L1007.5 680.112ZM1069.79 680.06C1069.79 676.056 1069.79 654.528 1069.79 650.16C1069.79 648.288 1069.64 645.74 1069.27 643.868H1077.38C1077.18 645.74 1076.92 647.976 1076.92 650.16C1076.92 655.88 1076.97 676.212 1076.97 680.06C1076.97 681.516 1077.18 685.156 1077.44 687.288H1069.27C1069.64 685.26 1069.79 682.088 1069.79 680.06ZM1075.41 657.336C1082.32 659.26 1093.56 663.368 1098.65 665.864L1095.74 673.092C1089.81 670.024 1081.08 666.696 1075.41 664.824V657.336ZM1129.12 667.476C1126.89 665.188 1125.02 663.784 1121.43 663.784C1118.05 663.784 1115.08 666.28 1113.11 669.972L1107.44 666.904C1110.92 660.456 1115.97 657.284 1121.53 657.284C1126.52 657.284 1130.27 659.156 1133.86 663.056C1136.09 665.396 1138.02 666.748 1141.55 666.748C1144.93 666.748 1147.9 664.252 1149.87 660.56L1155.54 663.628C1152.06 670.076 1147.01 673.248 1141.45 673.248C1136.46 673.248 1132.71 671.376 1129.12 667.476Z" fill="white"/>
<g filter="url(#filter2_d_9_100)">
<rect x="3" y="776" width="1280" height="123" rx="37" fill="url(#paint2_linear_9_100)"/>
</g>
<path d="M316.811 825.736H336.051V830.936H316.811V825.736ZM304.019 854.544H348.947V859.64H304.019V854.544ZM307.035 813.776H321.595V818.82H307.035V813.776ZM319.619 813.776H320.659L321.751 813.516L325.807 815.544C321.959 825.736 313.743 833.172 305.007 837.384C304.175 836.084 302.511 833.952 301.263 832.86C309.011 829.584 316.759 822.512 319.619 814.816V813.776ZM331.475 812.008C335.063 820.484 342.343 828.024 351.391 831.456C349.935 832.704 348.115 835.044 347.179 836.656C337.611 832.288 330.487 823.968 326.171 813.672L331.475 812.008ZM304.539 823.136L307.867 819.704C310.207 821.004 313.067 823.032 314.419 824.592L310.935 828.388C309.583 826.828 306.775 824.592 304.539 823.136ZM339.483 812.32L344.163 815.648C341.303 818.092 337.923 820.64 335.323 822.304L331.579 819.392C334.075 817.624 337.507 814.608 339.483 812.32ZM345.359 818.404L349.935 821.628C346.971 824.228 343.383 826.932 340.627 828.648L336.883 825.736C339.587 823.864 343.227 820.796 345.359 818.404ZM317.279 838.892V843.468H335.063V838.892H317.279ZM311.195 833.9H341.511V848.408H311.195V833.9ZM314.211 849.084L319.931 847.628C321.283 849.5 322.427 852.152 322.895 853.92L316.915 855.636C316.551 853.868 315.407 851.112 314.211 849.084ZM332.775 847.576L338.807 848.876C337.507 851.424 336.311 853.764 335.271 855.428L329.811 854.18C330.851 852.36 332.151 849.552 332.775 847.576ZM397.931 835.252L402.819 838.216C400.635 840.608 398.347 843.104 396.475 844.768L392.575 842.168C394.291 840.348 396.631 837.384 397.931 835.252ZM374.791 838.632L378.847 835.98C380.979 837.904 383.267 840.608 384.255 842.584L379.887 845.496C379.055 843.52 376.819 840.66 374.791 838.632ZM377.027 813.62H398.503V831.872H392.731V818.716H377.027V813.62ZM378.171 821.472H396.007V826.256H378.171V821.472ZM374.531 828.908H402.403V834.212H374.531V828.908ZM385.243 831.612H391.015V854.804C391.015 857.352 390.703 858.86 389.039 859.744C387.479 860.628 385.399 860.68 382.539 860.68C382.383 859.12 381.707 856.884 381.031 855.324C382.487 855.376 384.047 855.376 384.567 855.376C385.087 855.376 385.243 855.22 385.243 854.648V831.612ZM373.023 852.152C375.675 850.644 379.575 848.2 383.423 845.704L385.295 850.384C382.227 852.724 378.847 855.168 375.883 857.144L373.023 852.152ZM390.859 835.304C392.523 841.492 396.475 849.24 403.599 852.88C402.351 853.972 400.479 856.416 399.595 857.976C392.783 853.608 389.039 844.664 387.427 838.632L390.859 835.304ZM357.579 824.8H372.971V830H357.579V824.8ZM355.083 833.796H374.063V839.1H355.083V833.796ZM355.603 842.012L359.555 841.024C360.439 843.936 361.167 847.576 361.427 850.072L357.215 851.164C357.111 848.668 356.383 844.924 355.603 842.012ZM354.511 853.92C359.451 853.192 366.835 851.84 373.855 850.592L374.323 855.74C367.823 857.092 360.959 858.548 355.707 859.588L354.511 853.92ZM370.007 840.608L374.479 841.7C373.543 844.664 372.711 847.94 371.931 850.124L368.187 849.084C368.863 846.744 369.643 843.104 370.007 840.608ZM362.207 826.88H367.563V854.908L362.207 855.844V826.88ZM361.947 811.852H365.223V812.996H366.991V814.608C364.963 818.56 361.791 823.916 356.643 828.596C355.811 827.348 354.043 825.372 352.899 824.54C357.267 820.796 360.335 815.908 361.947 811.852ZM362.727 811.852H367.095C370.111 814.452 373.959 818.196 375.831 820.848L371.827 825.632C370.163 822.98 366.627 818.612 363.819 816.272H362.727V811.852ZM441.403 817.052H447.955V852.828C447.955 856.572 447.071 858.444 444.575 859.432C441.975 860.524 438.179 860.628 432.823 860.628C432.459 858.756 431.211 855.688 430.223 853.972C433.967 854.232 438.491 854.18 439.739 854.18C440.987 854.128 441.403 853.764 441.403 852.672V817.052ZM411.659 827.452H417.743V851.684H411.659V827.452ZM414.259 827.452H433.863V847.68H414.259V841.752H427.675V833.38H414.259V827.452ZM406.875 815.336H453.987V821.628H406.875V815.336ZM465.791 811.592L472.291 812.996C470.419 817.78 468.079 822.876 466.103 826.204L460.695 824.8C462.567 821.264 464.699 815.752 465.791 811.592ZM457.939 822.252C463.555 822.096 471.979 821.732 480.039 821.368L479.987 826.776C472.343 827.348 464.335 827.816 458.407 828.18L457.939 822.252ZM461.007 830.624H477.543V835.772H466.779V860.628H461.007V830.624ZM474.579 830.624H480.767V854.388C480.767 857.04 480.247 858.6 478.479 859.536C476.659 860.472 474.319 860.576 471.147 860.576C470.835 858.912 469.951 856.52 469.171 855.012C470.991 855.116 473.071 855.116 473.747 855.064C474.371 855.064 474.579 854.908 474.579 854.232V830.624ZM463.659 838.476H478.063V843.104H463.659V838.476ZM463.659 846.12H478.063V850.748H463.659V846.12ZM484.823 812.06H491.063V827.66C491.063 829.48 491.375 829.74 493.351 829.74C494.183 829.74 497.927 829.74 499.019 829.74C500.735 829.74 501.047 828.96 501.255 824.384C502.555 825.372 505.103 826.308 506.819 826.672C506.143 833.432 504.479 835.304 499.643 835.304C498.343 835.304 493.663 835.304 492.467 835.304C486.331 835.304 484.823 833.536 484.823 827.764V812.06ZM500.423 815.128L504.375 819.652C499.747 821.888 493.715 823.864 488.567 825.268C488.307 824.02 487.475 822.148 486.799 820.952C491.635 819.444 496.991 817.104 500.423 815.128ZM484.823 836.344H491.011V852.724C491.011 854.648 491.375 854.856 493.403 854.856C494.287 854.856 498.187 854.856 499.331 854.856C501.151 854.856 501.463 853.92 501.723 848.616C503.023 849.552 505.519 850.54 507.235 850.904C506.559 858.236 504.895 860.316 499.903 860.316C498.603 860.316 493.767 860.316 492.519 860.316C486.383 860.316 484.823 858.548 484.823 852.776V836.344ZM500.839 838.528L504.895 843.104C500.163 845.652 493.871 847.836 488.515 849.344C488.203 848.148 487.319 846.172 486.695 844.976C491.739 843.364 497.303 840.816 500.839 838.528ZM472.863 817.312L478.167 815.336C480.715 819.08 483.419 824.02 484.407 827.452L478.739 829.74C477.855 826.412 475.359 821.212 472.863 817.312ZM530.947 814.504H557.935V820.432H530.947V814.504ZM529.491 853.036H558.923V858.912H529.491V853.036ZM546.079 832.756H557.623V838.684H546.079V832.756ZM542.491 816.948H548.627V856.468H542.491V816.948ZM532.715 828.284H538.539V855.688H532.715V828.284ZM512.435 828.18H527.463V832.86H512.435V828.18ZM512.747 813.464H527.515V818.196H512.747V813.464ZM512.435 835.46H527.463V840.14H512.435V835.46ZM509.887 820.692H529.335V825.58H509.887V820.692ZM515.295 842.792H527.827V858.6H515.295V853.712H522.471V847.732H515.295V842.792ZM512.279 842.792H517.531V860.68H512.279V842.792ZM567.243 814.712H582.167V846.64H567.243V840.92H576.395V820.328H567.243V814.712ZM567.295 827.712H578.683V833.276H567.295V827.712ZM589.499 813.932H605.463V819.704H589.499V813.932ZM589.499 826.36H605.463V831.976H589.499V826.36ZM589.395 838.684H605.411V844.248H589.395V838.684ZM563.915 814.712H569.687V851.164H563.915V814.712ZM603.123 813.932H609.311V853.556C609.311 856.78 608.635 858.496 606.607 859.484C604.527 860.472 601.563 860.628 597.143 860.628C596.883 858.912 595.895 856.208 595.011 854.596C597.819 854.752 600.991 854.7 601.875 854.7C602.811 854.7 603.123 854.388 603.123 853.452V813.932ZM585.755 813.932H591.891V832.808C591.891 841.804 590.487 854.024 580.867 861.096C579.931 859.848 577.539 857.716 576.187 856.884C584.975 850.488 585.755 840.712 585.755 832.756V813.932ZM621.427 843.884H656.059V860.784H649.767V847.784H627.459V860.836H621.427V843.884ZM624.599 849.708H652.003V853.348H624.599V849.708ZM624.599 855.376H652.003V859.328H624.599V855.376ZM634.999 811.696H641.291V840.712H634.999V811.696ZM620.231 814.972H655.799V830.416H619.659V826.776H649.611V818.612H620.231V814.972ZM614.927 820.484H661.831V824.8H614.927V820.484ZM618.515 832.236H657.983V836.032H618.515V832.236ZM614.823 837.904H661.779V842.22H614.823V837.904ZM665.887 838.996H692.199V843.988H665.887V838.996ZM666.511 820.64H692.043V825.528H666.511V820.64ZM675.247 835.252L681.019 836.5C678.471 841.856 675.091 848.2 672.595 852.36L667.135 850.696C669.579 846.692 673.011 840.192 675.247 835.252ZM682.631 842.48L688.351 842.948C686.479 853.868 681.019 858.236 668.643 860.732C668.279 859.016 667.135 856.832 666.095 855.584C676.443 854.284 680.967 851.008 682.631 842.48ZM686.323 812.476L691.575 814.556C689.859 816.896 688.195 819.288 686.843 820.9L682.839 819.08C684.035 817.26 685.491 814.452 686.323 812.476ZM676.391 811.8H682.111V835.98H676.391V811.8ZM667.759 814.556L672.231 812.684C673.635 814.66 674.935 817.312 675.403 819.184L670.619 821.264C670.255 819.444 669.059 816.688 667.759 814.556ZM676.547 823.084L680.603 825.528C678.003 829.636 673.011 834.16 668.643 836.604C667.915 835.252 666.563 833.172 665.419 832.028C669.631 830.312 674.311 826.62 676.547 823.084ZM681.591 824.592C683.463 825.476 689.391 828.96 690.847 829.948L687.519 834.264C685.595 832.34 680.967 828.648 678.679 827.036L681.591 824.592ZM695.631 821.264H714.715V827.036H695.631V821.264ZM696.203 811.8L702.495 812.684C700.883 823.448 697.763 833.432 692.979 839.776C691.991 838.632 689.443 836.396 688.039 835.356C692.407 830.052 694.955 821.108 696.203 811.8ZM705.615 824.8L712.011 825.372C709.775 843.156 704.419 854.284 691.263 860.888C690.639 859.38 688.819 856.52 687.675 855.168C699.531 849.968 704.055 840.192 705.615 824.8ZM699.167 825.892C701.247 839.048 705.823 850.28 715.391 855.168C713.935 856.416 711.959 858.912 711.023 860.628C700.571 854.388 696.047 842.324 693.499 826.776L699.167 825.892ZM671.711 850.748L675.039 846.484C681.175 848.824 687.675 852.464 691.211 855.272L686.895 859.692C683.567 856.78 677.535 853.14 671.711 850.748ZM742.379 829.22C739.623 829.22 737.387 827.14 737.387 824.332C737.387 821.472 739.623 819.392 742.379 819.392C745.083 819.392 747.319 821.472 747.319 824.332C747.319 827.14 745.083 829.22 742.379 829.22ZM742.379 854.024C739.623 854.024 737.387 851.944 737.387 849.136C737.387 846.276 739.623 844.196 742.379 844.196C745.083 844.196 747.319 846.276 747.319 849.136C747.319 851.944 745.083 854.024 742.379 854.024ZM787.897 818.182V856H779.902V825.771H779.68L771.02 831.2V824.109L780.382 818.182H787.897ZM811.714 856.831C808.538 856.819 805.805 856.037 803.515 854.486C801.237 852.935 799.483 850.688 798.252 847.746C797.033 844.804 796.43 841.264 796.442 837.128C796.442 833.004 797.052 829.489 798.271 826.584C799.502 823.679 801.256 821.469 803.533 819.955C805.823 818.428 808.55 817.665 811.714 817.665C814.878 817.665 817.598 818.428 819.876 819.955C822.165 821.481 823.926 823.697 825.157 826.602C826.388 829.495 826.997 833.004 826.985 837.128C826.985 841.277 826.37 844.822 825.138 847.764C823.92 850.706 822.172 852.953 819.894 854.504C817.617 856.055 814.89 856.831 811.714 856.831ZM811.714 850.202C813.88 850.202 815.61 849.112 816.903 846.933C818.195 844.754 818.835 841.486 818.823 837.128C818.823 834.259 818.528 831.871 817.937 829.963C817.358 828.055 816.533 826.621 815.462 825.661C814.404 824.7 813.154 824.22 811.714 824.22C809.559 824.22 807.836 825.297 806.543 827.452C805.251 829.606 804.598 832.831 804.586 837.128C804.586 840.033 804.875 842.458 805.454 844.403C806.045 846.336 806.876 847.789 807.947 848.761C809.018 849.722 810.273 850.202 811.714 850.202ZM861.809 816.272H867.789V857.456H861.809V816.272ZM850.109 820.952H879.073V825.788H850.109V820.952ZM848.549 854.908H880.165V859.848H848.549V854.908ZM851.461 847.784H878.241V852.516H851.461V847.784ZM875.433 812.268L879.021 816.896C871.481 818.352 860.821 818.976 851.981 819.08C851.877 817.728 851.201 815.648 850.629 814.4C859.209 814.14 869.297 813.464 875.433 812.268ZM857.233 838.476V841.128H872.573V838.476H857.233ZM857.233 832.236V834.836H872.573V832.236H857.233ZM851.825 827.92H878.241V845.444H851.825V827.92ZM839.189 816.688H845.273V860.628H839.189V816.688ZM831.701 826.464H850.785V832.288H831.701V826.464ZM839.553 828.804L843.193 830.416C841.217 837.852 837.525 847.108 833.521 852.256C832.949 850.436 831.597 847.836 830.609 846.276C834.249 842.116 837.889 834.576 839.553 828.804ZM847.301 812.372L851.461 817.208C846.157 819.236 838.929 820.64 832.845 821.42C832.585 820.068 831.805 817.988 831.077 816.688C836.849 815.7 843.297 814.192 847.301 812.372ZM845.117 833.692C846.417 834.784 850.941 839.464 851.929 840.66L848.393 845.548C847.145 843.052 844.025 838.32 842.413 836.136L845.117 833.692ZM883.961 840.4H906.477V845.756H883.961V840.4ZM883.961 820.744H906.061V825.58H883.961V820.744ZM901.173 812.736L906.321 814.088C905.021 816.48 903.773 818.82 902.785 820.432L898.781 819.132C899.665 817.312 900.653 814.608 901.173 812.736ZM892.281 812.476H897.689V835.72H892.281V812.476ZM884.377 814.504L888.537 812.944C889.733 814.816 890.877 817.26 891.241 818.924L886.821 820.64C886.561 818.976 885.521 816.428 884.377 814.504ZM892.853 849.916L896.493 846.172C899.665 848.148 904.085 851.216 906.269 853.192L902.421 857.404C900.393 855.376 896.025 852.1 892.853 849.916ZM897.429 825.424C899.301 826.308 905.333 829.896 906.737 830.884L903.513 835.252C901.485 833.328 896.701 829.636 894.361 828.076L897.429 825.424ZM891.917 823.5L895.921 824.956C893.841 829.376 890.097 834.056 886.405 836.552C885.625 835.356 883.961 833.484 882.817 832.548C886.301 830.624 889.993 826.932 891.917 823.5ZM906.685 813.88H931.489V819.236H906.685V813.88ZM913.757 834.68V837.852H924.209V834.68H913.757ZM913.757 842.168V845.444H924.209V842.168H913.757ZM913.757 827.192V830.364H924.209V827.192H913.757ZM908.141 822.512H930.085V850.072H908.141V822.512ZM915.837 816.74L922.701 817.52C921.505 820.744 920.153 823.968 919.113 826.152L913.913 825.112C914.693 822.72 915.473 819.236 915.837 816.74ZM912.613 850.124L917.709 853.4C915.057 856.104 910.689 859.068 906.945 860.732C905.957 859.536 904.241 857.768 902.889 856.728C906.477 855.22 910.585 852.36 912.613 850.124ZM919.633 853.556L924.053 850.488C926.913 852.412 930.813 855.324 932.789 857.3L928.005 860.628C926.289 858.704 922.493 855.636 919.633 853.556ZM892.125 836.812H897.741V842.48C897.741 848.408 896.233 855.584 885.937 860.004C885.313 858.652 883.701 856.416 882.609 855.376C891.085 851.892 892.125 846.588 892.125 842.324V836.812ZM957.229 838.476C954.993 836.188 953.121 834.784 949.533 834.784C946.153 834.784 943.189 837.28 941.213 840.972L935.545 837.904C939.029 831.456 944.073 828.284 949.637 828.284C954.629 828.284 958.373 830.156 961.961 834.056C964.197 836.396 966.121 837.748 969.657 837.748C973.037 837.748 976.001 835.252 977.977 831.56L983.645 834.628C980.161 841.076 975.117 844.248 969.553 844.248C964.561 844.248 960.817 842.376 957.229 838.476Z" fill="white"/>
<path d="M340.543 452.239H453.457V464.17H340.543V452.239ZM342.88 389.878H450.505V402.67H342.88V389.878ZM381.502 440.431L396.016 444.121C388.144 457.159 377.689 472.657 370.186 482.497L355.918 478.192C363.544 468.352 374.368 452.485 381.502 440.431ZM417.172 456.667L431.44 460.357C419.263 489.385 393.925 497.749 348.292 501.316C347.308 497.011 345.094 491.845 342.757 488.647C384.208 486.925 407.332 480.283 417.172 456.667ZM364.405 479.176L371.908 468.598C400.198 474.379 430.825 482.866 449.275 489.631L440.419 501.562C422.584 494.305 393.802 485.449 364.405 479.176ZM375.229 394.921H389.128V436.987H375.229V394.921ZM403.15 394.921H417.049V436.987H403.15V394.921ZM362.314 421.243V432.805H431.809V421.243H362.314ZM348.538 409.681H446.569V444.367H348.538V409.681ZM494.17 421.858V429.484H545.83V421.858H494.17ZM494.17 441.538V449.164H545.83V441.538H494.17ZM494.17 402.301V409.927H545.83V402.301H494.17ZM479.902 389.386H560.836V462.079H479.902V389.386ZM525.658 452.116H540.664V481.636C540.664 485.572 541.525 486.187 545.953 486.187C548.044 486.187 556.285 486.187 558.868 486.187C563.173 486.187 563.911 484.096 564.526 469.582C567.478 472.042 573.997 474.502 578.056 475.486C576.457 495.043 572.521 500.086 560.221 500.086C557.146 500.086 546.814 500.086 543.985 500.086C529.225 500.086 525.658 495.658 525.658 481.636V452.116ZM495.523 457.159H511.39C509.299 479.545 503.518 494.059 470.308 501.562C469.078 497.626 465.142 491.599 462.067 488.401C490.603 483.112 493.924 473.641 495.523 457.159ZM603.394 397.012H617.785V500.947H603.394V397.012ZM586.789 419.152H629.962V432.928H586.789V419.152ZM604.624 425.671L613.234 429.484C608.56 447.073 599.95 468.967 590.602 481.144C589.249 476.839 585.928 470.689 583.714 466.999C592.201 457.159 600.811 439.324 604.624 425.671ZM622.459 386.803L632.299 398.242C619.999 402.793 603.394 405.745 589.372 407.221C588.88 404.146 586.912 399.103 585.313 395.905C598.597 394.06 613.357 390.739 622.459 386.803ZM616.555 435.88C619.63 438.463 630.331 449.533 632.668 452.362L624.181 463.924C621.352 458.02 613.972 446.827 610.159 441.661L616.555 435.88ZM657.145 385.573H671.782V424.933H657.145V385.573ZM633.037 391.231H697.489V400.21H633.037V391.231ZM635.251 404.392H694.66V412.879H635.251V404.392ZM629.224 417.061H699.949V426.286H629.224V417.061ZM650.134 453.1V458.389H680.023V453.1H650.134ZM650.134 466.753V472.042H680.023V466.753H650.134ZM650.134 439.57V444.613H680.023V439.57H650.134ZM636.85 430.468H693.922V481.144H636.85V430.468ZM668.584 486.802L678.424 479.668C686.419 484.465 696.259 490.369 701.794 494.305L689.002 501.193C684.328 497.503 675.841 491.353 668.584 486.802ZM650.626 479.053L662.065 486.679C654.562 492.46 642.262 498.487 632.299 501.685C630.085 498.979 626.026 494.92 623.197 492.46C633.037 489.631 644.722 483.85 650.626 479.053ZM762.187 391.477C761.08 396.028 760.588 399.226 759.973 402.424C758.497 413.002 752.716 453.592 752.716 466.015C752.716 476.224 758.866 481.759 770.92 481.759C788.14 481.759 797.611 473.764 797.611 463.678C797.611 455.437 792.937 447.442 784.942 439.939L802.162 436.249C810.403 446.581 814.093 455.191 814.093 465.646C814.093 484.219 797.488 497.626 770.551 497.626C751.117 497.626 737.464 489.262 737.464 468.598C737.464 456.052 743.368 418.66 744.598 401.44C745.09 395.782 745.09 393.322 744.844 390.493L762.187 391.477ZM718.276 406.729C728.977 410.296 744.229 411.895 756.775 411.895C766.246 411.895 774.979 411.28 781.129 410.173L780.637 424.933C773.38 425.671 766.615 426.04 756.283 426.04C743.86 426.04 728.854 424.072 717.538 420.874L718.276 406.729ZM715.57 437.233C728.854 441.784 743.122 442.768 755.545 442.768C763.048 442.768 772.15 442.276 780.145 441.292L779.776 455.929C773.011 456.667 765.754 457.036 758.005 457.036C741.646 457.036 726.025 455.314 714.832 452.116L715.57 437.233ZM871.903 391.231C870.181 397.258 867.598 409.927 866.86 416.815C872.764 407.344 883.588 396.889 897.364 396.889C914.461 396.889 927.745 413.74 927.745 440.8C927.745 475.609 906.466 492.091 873.871 498.118L864.523 483.85C891.952 479.668 911.14 470.566 911.14 440.8C911.14 421.858 904.744 411.28 894.535 411.28C880.021 411.28 867.229 433.174 866.737 449.287C866.491 452.731 866.614 456.667 867.229 462.325L852.1 463.432C851.362 458.635 850.624 451.132 850.624 442.891C850.624 431.329 852.223 416.2 854.068 403.408C854.56 398.857 854.929 393.937 855.052 390.616L871.903 391.231Z" fill="#DE4833"/>
<line x1="140" y1="532" x2="1146" y2="532" stroke="black" stroke-width="6"/>
<defs>
<filter id="filter0_d_9_100" x="81" y="0" width="1144" height="256" filterUnits="userSpaceOnUse" color-interpolation-filters="sRGB">
<feFlood flood-opacity="0" result="BackgroundImageFix"/>
<feColorMatrix in="SourceAlpha" type="matrix" values="0 0 0 0 0 0 0 0 0 0 0 0 0 0 0 0 0 0 127 0" result="hardAlpha"/>
<feOffset dx="10" dy="9"/>
<feGaussianBlur stdDeviation="6.5"/>
<feComposite in2="hardAlpha" operator="out"/>
<feColorMatrix type="matrix" values="0 0 0 0 0 0 0 0 0 0 0 0 0 0 0 0 0 0 0.25 0"/>
<feBlend mode="normal" in2="BackgroundImageFix" result="effect1_dropShadow_9_100"/>
<feBlend mode="normal" in="SourceGraphic" in2="effect1_dropShadow_9_100" result="shape"/>
</filter>
<filter id="filter1_d_9_100" x="0" y="601" width="1306" height="149" filterUnits="userSpaceOnUse" color-interpolation-filters="sRGB">
<feFlood flood-opacity="0" result="BackgroundImageFix"/>
<feColorMatrix in="SourceAlpha" type="matrix" values="0 0 0 0 0 0 0 0 0 0 0 0 0 0 0 0 0 0 127 0" result="hardAlpha"/>
<feOffset dx="10" dy="9"/>
<feGaussianBlur stdDeviation="6.5"/>
<feComposite in2="hardAlpha" operator="out"/>
<feColorMatrix type="matrix" values="0 0 0 0 0 0 0 0 0 0 0 0 0 0 0 0 0 0 0.25 0"/>
<feBlend mode="normal" in2="BackgroundImageFix" result="effect1_dropShadow_9_100"/>
<feBlend mode="normal" in="SourceGraphic" in2="effect1_dropShadow_9_100" result="shape"/>
</filter>
<filter id="filter2_d_9_100" x="0" y="772" width="1306" height="149" filterUnits="userSpaceOnUse" color-interpolation-filters="sRGB">
<feFlood flood-opacity="0" result="BackgroundImageFix"/>
<feColorMatrix in="SourceAlpha" type="matrix" values="0 0 0 0 0 0 0 0 0 0 0 0 0 0 0 0 0 0 127 0" result="hardAlpha"/>
<feOffset dx="10" dy="9"/>
<feGaussianBlur stdDeviation="6.5"/>
<feComposite in2="hardAlpha" operator="out"/>
<feColorMatrix type="matrix" values="0 0 0 0 0 0 0 0 0 0 0 0 0 0 0 0 0 0 0.25 0"/>
<feBlend mode="normal" in2="BackgroundImageFix" result="effect1_dropShadow_9_100"/>
<feBlend mode="normal" in="SourceGraphic" in2="effect1_dropShadow_9_100" result="shape"/>
</filter>
<linearGradient id="paint0_linear_9_100" x1="84" y1="119" x2="1202" y2="119" gradientUnits="userSpaceOnUse">
<stop stop-color="#FF4C66"/>
</linearGradient>
<linearGradient id="paint1_linear_9_100" x1="3" y1="666.5" x2="1283" y2="666.5" gradientUnits="userSpaceOnUse">
<stop stop-color="#6770E6"/>
</linearGradient>
<linearGradient id="paint2_linear_9_100" x1="3" y1="837.5" x2="1283" y2="837.5" gradientUnits="userSpaceOnUse">
<stop stop-color="#6770E6"/>
</linearGradient>
</defs>
</svg>
