<svg width="1306" height="921" viewBox="0 0 1306 921" fill="none" xmlns="http://www.w3.org/2000/svg">
<g filter="url(#filter0_d_9_72)">
<rect x="84" y="4" width="1118" height="230" rx="88" fill="url(#paint0_linear_9_72)"/>
</g>
<path d="M305.636 89.716C304.9 90.728 303.244 93.488 302.416 95.42C298.644 104.16 291.836 116.672 283.924 125.872C273.62 137.74 259.728 149.148 245.468 155.864L235.9 145.928C250.804 140.408 264.972 129.184 273.62 119.616C279.692 112.716 285.304 103.608 287.42 97.076C283.556 97.076 260.096 97.076 256.14 97.076C252.368 97.076 247.308 97.536 245.284 97.72V84.564C247.768 84.932 253.472 85.208 256.14 85.208C261.016 85.208 284.568 85.208 288.616 85.208C292.664 85.208 296.252 84.748 298.184 84.104L305.636 89.716ZM285.12 118.236C294.596 125.964 307.66 139.672 313.64 147.032L303.152 156.14C296.344 146.664 286.316 135.716 276.472 126.792L285.12 118.236ZM360.376 108.944C371.692 115.476 388.712 127.252 397.268 134.06L388.436 144.548C380.432 137.004 362.952 124.124 352.188 117.316L360.376 108.944ZM403.708 93.304C402.604 95.052 401.408 97.628 400.58 99.928C397.82 108.392 392.208 120.168 383.928 130.38C375.28 141.144 363.504 151.448 345.932 158.072L335.26 148.872C354.488 142.892 365.436 133.232 373.348 124.032C379.512 116.764 385.216 106.184 386.964 99.008H355.868L360.1 88.612H386.32C389.172 88.612 392.208 88.152 394.324 87.508L403.708 93.304ZM373.256 79.136C371.048 82.356 368.656 86.588 367.552 88.52C361.388 99.652 349.612 113.728 336.364 122.836L326.52 115.2C342.62 105.264 351.084 92.66 355.776 84.656C357.156 82.448 359.088 78.216 359.916 74.996L373.256 79.136ZM435.172 82.08C441.52 86.404 453.48 95.972 458.908 101.584L449.524 111.152C444.74 106 433.148 95.972 426.432 91.372L435.172 82.08ZM423.58 143.352C438.024 141.328 449.892 136.636 458.816 131.392C474.548 122.008 486.508 108.024 492.396 95.604L499.48 108.484C492.58 120.996 480.344 133.692 465.532 142.616C456.148 148.228 444.28 153.288 431.4 155.496L423.58 143.352ZM576.668 76.468C578.968 79.872 582.188 85.668 583.936 89.072L576.576 92.2C574.644 88.52 571.792 83 569.308 79.504L576.668 76.468ZM587.524 72.328C589.916 75.732 593.32 81.62 594.976 84.84L587.616 87.968C585.684 84.104 582.74 78.768 580.256 75.272L587.524 72.328ZM542.168 111.152C553.484 117.684 570.596 129.46 579.06 136.268L570.32 146.664C562.224 139.12 544.836 126.332 534.072 119.524L542.168 111.152ZM585.5 95.512C584.488 97.26 583.292 99.836 582.464 102.136C579.612 110.6 574 122.376 565.812 132.588C557.164 143.352 545.296 153.656 527.724 160.28L517.052 151.08C536.28 145.1 547.32 135.44 555.14 126.24C561.396 118.88 567.1 108.392 568.848 101.216H537.66L541.984 90.82H568.112C570.964 90.82 574.092 90.36 576.116 89.716L585.5 95.512ZM555.048 81.344C552.84 84.564 550.54 88.796 549.436 90.728C543.18 101.86 531.404 115.936 518.248 125.044L508.312 117.408C524.412 107.472 532.968 94.776 537.568 86.864C538.948 84.564 540.972 80.332 541.8 77.204L555.048 81.344ZM605.372 109.404C608.776 109.68 615.4 110.048 620.184 110.048C631.04 110.048 661.4 110.048 669.588 110.048C673.912 110.048 677.96 109.588 680.444 109.404V123.94C678.236 123.848 673.544 123.388 669.68 123.388C661.308 123.388 631.04 123.388 620.184 123.388C615.032 123.388 608.868 123.664 605.372 123.94V109.404ZM751.652 83.552C754.228 87.416 758 93.304 760.024 97.536L752.112 101.032C749.352 95.236 747.328 91.556 743.924 86.864L751.652 83.552ZM763.704 78.584C766.464 82.264 770.328 87.968 772.352 92.108L764.624 95.972C761.68 90.084 759.472 86.68 756.068 82.172L763.704 78.584ZM715.036 144.548C715.036 137.556 715.036 99.468 715.036 91.648C715.036 88.336 714.668 83.828 714.024 80.608H728.468C728.1 83.828 727.64 87.876 727.64 91.648C727.64 101.86 727.64 137.74 727.64 144.548C727.64 147.216 728.1 153.656 728.468 157.336H714.116C714.668 153.748 715.036 148.228 715.036 144.548ZM724.88 104.344C737.208 107.748 756.988 115.016 766.096 119.524L760.852 132.22C750.456 126.792 734.908 120.904 724.88 117.592V104.344ZM854.876 84.564C854.876 87.508 857.268 89.9 860.212 89.9C863.156 89.9 865.548 87.508 865.548 84.564C865.548 81.62 863.156 79.228 860.212 79.228C857.268 79.228 854.876 81.62 854.876 84.564ZM849.172 84.564C849.172 78.492 854.14 73.524 860.212 73.524C866.284 73.524 871.252 78.492 871.252 84.564C871.252 90.636 866.284 95.604 860.212 95.604C854.14 95.604 849.172 90.636 849.172 84.564ZM860.396 91.832C859.476 93.58 858.832 96.248 858.372 98.18C856.256 107.196 852.208 121.548 844.48 131.76C836.2 142.8 823.964 151.908 807.496 157.152L797.468 146.112C815.776 141.88 826.172 133.876 833.532 124.584C839.696 116.948 843.192 106.46 844.388 98.548C838.776 98.548 808.416 98.548 801.516 98.548C797.284 98.548 792.96 98.824 790.568 99.008V85.944C793.328 86.312 798.48 86.772 801.516 86.772C808.416 86.772 838.96 86.772 844.112 86.772C845.952 86.772 848.896 86.68 851.288 86.036L860.396 91.832ZM893.516 81.436C896 81.804 899.956 81.988 903.084 81.988C908.88 81.988 933.076 81.988 938.412 81.988C941.356 81.988 945.864 81.804 948.348 81.436V93.396C945.956 93.212 941.632 93.028 938.228 93.028C933.168 93.028 908.512 93.028 903.084 93.028C900.048 93.028 896.184 93.12 893.516 93.396V81.436ZM956.168 108.208C955.524 109.404 954.696 111.06 954.42 111.98C951.568 120.904 947.612 129.92 940.804 137.464C931.512 147.86 919.736 154.024 907.96 157.428L898.76 147.032C912.652 144.088 923.6 138.108 930.684 130.84C935.56 125.872 938.504 120.076 940.068 115.016C935.468 115.016 903.912 115.016 895.724 115.016C893.424 115.016 888.824 115.108 884.96 115.384V103.424C888.916 103.792 892.78 104.068 895.724 104.068C901.98 104.068 934.916 104.068 941.172 104.068C944.208 104.068 946.692 103.7 947.98 103.056L956.168 108.208ZM987.172 82.08C993.52 86.404 1005.48 95.972 1010.91 101.584L1001.52 111.152C996.74 106 985.148 95.972 978.432 91.372L987.172 82.08ZM975.58 143.352C990.024 141.328 1001.89 136.636 1010.82 131.392C1026.55 122.008 1038.51 108.024 1044.4 95.604L1051.48 108.484C1044.58 120.996 1032.34 133.692 1017.53 142.616C1008.15 148.228 996.28 153.288 983.4 155.496L975.58 143.352Z" fill="white"/>
<g filter="url(#filter1_d_9_72)">
<rect x="3" y="605" width="1280" height="123" rx="37" fill="url(#paint1_linear_9_72)"/>
</g>
<path d="M189.781 683.752H215.157V688.328H189.781V683.752ZM197.217 651.772H203.249V658.012H197.217V651.772ZM178.029 655.36H223.269V665.708H217.185V660.04H183.905V665.708H178.029V655.36ZM189.573 662.224H215.053V673.872H189.573V669.4H208.813V666.696H189.573V662.224ZM189.833 676.212H219.005V689.732H212.765V680.788H189.833V676.212ZM186.141 662.224H192.069V689.784H186.141V662.224ZM183.281 644.492H199.661V649.38H183.281V644.492ZM204.341 644.492H224.517V649.38H204.341V644.492ZM183.489 640.436L189.313 641.996C187.285 646.676 183.957 651.408 180.889 654.372C179.693 653.436 177.197 651.772 175.793 651.044C178.913 648.444 181.877 644.388 183.489 640.436ZM204.653 640.436L210.581 641.892C208.709 646.364 205.485 650.68 202.365 653.384C201.117 652.448 198.465 651.096 196.905 650.42C200.233 648.028 203.145 644.232 204.653 640.436ZM185.205 648.288L190.509 646.884C191.809 648.652 193.265 651.148 193.889 652.812L188.273 654.424C187.805 652.812 186.453 650.16 185.205 648.288ZM208.449 648.444L213.909 646.988C215.417 648.704 217.237 651.2 218.069 652.864L212.297 654.476C211.621 652.916 209.905 650.264 208.449 648.444ZM253.117 657.596V662.068H268.873V657.596H253.117ZM253.117 648.34V652.708H268.873V648.34H253.117ZM247.501 643.036H274.801V667.32H247.501V643.036ZM247.137 671.792H275.373V677.408H247.137V671.792ZM243.497 682.4H277.089V688.016H243.497V682.4ZM228.261 643.816H245.525V649.64H228.261V643.816ZM228.781 658.792H244.641V664.564H228.781V658.792ZM227.689 678.552C232.161 677.408 238.817 675.328 245.057 673.3L246.149 679.28C240.325 681.256 234.085 683.284 229.093 684.896L227.689 678.552ZM234.033 646.104H239.961V678.084L234.033 679.02V646.104ZM258.473 645.272H263.725V664.876H264.297V685.052H257.901V664.876H258.473V645.272ZM315.465 646.052H322.017V681.828C322.017 685.572 321.133 687.444 318.637 688.432C316.037 689.524 312.241 689.628 306.885 689.628C306.521 687.756 305.273 684.688 304.285 682.972C308.029 683.232 312.553 683.18 313.801 683.18C315.049 683.128 315.465 682.764 315.465 681.672V646.052ZM285.721 656.452H291.805V680.684H285.721V656.452ZM288.321 656.452H307.925V676.68H288.321V670.752H301.737V662.38H288.321V656.452ZM280.937 644.336H328.049V650.628H280.937V644.336ZM339.853 640.592L346.353 641.996C344.481 646.78 342.141 651.876 340.165 655.204L334.757 653.8C336.629 650.264 338.761 644.752 339.853 640.592ZM332.001 651.252C337.617 651.096 346.041 650.732 354.101 650.368L354.049 655.776C346.405 656.348 338.397 656.816 332.469 657.18L332.001 651.252ZM335.069 659.624H351.605V664.772H340.841V689.628H335.069V659.624ZM348.641 659.624H354.829V683.388C354.829 686.04 354.309 687.6 352.541 688.536C350.721 689.472 348.381 689.576 345.209 689.576C344.897 687.912 344.013 685.52 343.233 684.012C345.053 684.116 347.133 684.116 347.809 684.064C348.433 684.064 348.641 683.908 348.641 683.232V659.624ZM337.721 667.476H352.125V672.104H337.721V667.476ZM337.721 675.12H352.125V679.748H337.721V675.12ZM358.885 641.06H365.125V656.66C365.125 658.48 365.437 658.74 367.413 658.74C368.245 658.74 371.989 658.74 373.081 658.74C374.797 658.74 375.109 657.96 375.317 653.384C376.617 654.372 379.165 655.308 380.881 655.672C380.205 662.432 378.541 664.304 373.705 664.304C372.405 664.304 367.725 664.304 366.529 664.304C360.393 664.304 358.885 662.536 358.885 656.764V641.06ZM374.485 644.128L378.437 648.652C373.809 650.888 367.777 652.864 362.629 654.268C362.369 653.02 361.537 651.148 360.861 649.952C365.697 648.444 371.053 646.104 374.485 644.128ZM358.885 665.344H365.073V681.724C365.073 683.648 365.437 683.856 367.465 683.856C368.349 683.856 372.249 683.856 373.393 683.856C375.213 683.856 375.525 682.92 375.785 677.616C377.085 678.552 379.581 679.54 381.297 679.904C380.621 687.236 378.957 689.316 373.965 689.316C372.665 689.316 367.829 689.316 366.581 689.316C360.445 689.316 358.885 687.548 358.885 681.776V665.344ZM374.901 667.528L378.957 672.104C374.225 674.652 367.933 676.836 362.577 678.344C362.265 677.148 361.381 675.172 360.757 673.976C365.801 672.364 371.365 669.816 374.901 667.528ZM346.925 646.312L352.229 644.336C354.777 648.08 357.481 653.02 358.469 656.452L352.801 658.74C351.917 655.412 349.421 650.212 346.925 646.312ZM432.049 649.848C431.529 650.524 430.541 651.772 430.073 652.5C427.629 656.556 422.689 663.16 417.541 666.8L412.133 662.484C416.345 659.936 420.401 655.36 421.753 652.812C418.581 652.812 397.885 652.812 394.609 652.812C392.477 652.812 390.709 652.916 388.265 653.176V645.896C390.293 646.208 392.477 646.468 394.609 646.468C397.885 646.468 419.933 646.468 422.637 646.468C424.093 646.468 426.953 646.26 427.941 646L432.049 649.848ZM410.885 656.816C410.885 669.712 410.573 680.32 396.429 687.964L390.345 683.024C392.061 682.452 393.933 681.568 395.857 680.112C402.409 675.536 403.657 670.076 403.657 661.548C403.657 659.884 403.605 658.532 403.345 656.816H410.885ZM462.105 643.296C461.949 644.544 461.793 646.728 461.741 647.976C461.169 668.62 456.281 679.176 444.789 687.34L438.705 682.452C440.889 681.256 443.489 679.54 445.569 677.408C452.381 670.648 454.773 661.808 454.825 648.08C454.825 646.936 454.617 644.544 454.409 643.296H462.105ZM479.733 654.476C479.577 655.308 479.421 656.608 479.421 657.18C479.213 662.848 478.537 677.356 476.301 682.66C475.209 685.26 473.181 686.664 469.645 686.664C466.629 686.664 463.561 686.404 461.013 686.196L460.181 679.28C462.781 679.696 465.433 680.008 467.513 680.008C469.177 680.008 469.905 679.436 470.425 678.136C471.933 674.86 472.661 664.46 472.661 658.844H447.285C445.517 658.844 442.605 658.896 440.421 659.104V652.24C442.605 652.5 445.257 652.604 447.233 652.604H471.309C472.661 652.604 474.013 652.5 475.261 652.24L479.733 654.476ZM516.185 642.568C515.873 644.804 515.821 645.844 515.821 647.352C515.821 648.704 515.821 652.864 515.821 654.84H508.541C508.541 652.552 508.541 648.704 508.541 647.352C508.541 645.844 508.489 644.804 508.177 642.568H516.185ZM533.657 653.54C533.293 654.684 532.877 656.66 532.669 657.648C531.733 662.64 530.381 667.684 527.781 672.416C523.673 680.06 515.821 685.572 506.565 688.016L501.157 681.776C503.549 681.36 506.357 680.58 508.541 679.696C512.805 678.084 517.381 675.016 520.345 670.856C522.945 667.008 524.297 662.068 524.921 657.44H499.129C499.129 659.26 499.129 663.472 499.129 665.084C499.129 666.228 499.181 667.892 499.337 668.932H492.161C492.317 667.632 492.369 665.968 492.369 664.564C492.369 662.848 492.369 657.492 492.369 655.516C492.369 654.372 492.369 652.292 492.161 651.096C493.929 651.252 495.489 651.304 497.465 651.304H524.869C527.001 651.304 528.249 651.096 529.185 650.784L533.657 653.54ZM550.973 645.48C554.561 647.924 561.321 653.332 564.389 656.504L559.085 661.912C556.381 659 549.829 653.332 546.033 650.732L550.973 645.48ZM544.421 680.112C552.585 678.968 559.293 676.316 564.337 673.352C573.229 668.048 579.989 660.144 583.317 653.124L587.321 660.404C583.421 667.476 576.505 674.652 568.133 679.696C562.829 682.868 556.121 685.728 548.841 686.976L544.421 680.112ZM606.717 680.06C606.717 676.056 606.717 654.528 606.717 650.16C606.717 648.288 606.561 645.74 606.197 643.868H614.309C614.101 645.74 613.841 647.976 613.841 650.16C613.841 655.88 613.893 676.212 613.893 680.06C613.893 681.516 614.101 685.156 614.361 687.288H606.197C606.561 685.26 606.717 682.088 606.717 680.06ZM612.333 657.336C619.249 659.26 630.481 663.368 635.577 665.864L632.665 673.092C626.737 670.024 618.001 666.696 612.333 664.824V657.336ZM643.949 667.996H670.261V672.988H643.949V667.996ZM644.573 649.64H670.105V654.528H644.573V649.64ZM653.309 664.252L659.081 665.5C656.533 670.856 653.153 677.2 650.657 681.36L645.197 679.696C647.641 675.692 651.073 669.192 653.309 664.252ZM660.693 671.48L666.413 671.948C664.541 682.868 659.081 687.236 646.705 689.732C646.341 688.016 645.197 685.832 644.157 684.584C654.505 683.284 659.029 680.008 660.693 671.48ZM664.385 641.476L669.637 643.556C667.921 645.896 666.257 648.288 664.905 649.9L660.901 648.08C662.097 646.26 663.553 643.452 664.385 641.476ZM654.453 640.8H660.173V664.98H654.453V640.8ZM645.821 643.556L650.293 641.684C651.697 643.66 652.997 646.312 653.465 648.184L648.681 650.264C648.317 648.444 647.121 645.688 645.821 643.556ZM654.609 652.084L658.665 654.528C656.065 658.636 651.073 663.16 646.705 665.604C645.977 664.252 644.625 662.172 643.481 661.028C647.693 659.312 652.373 655.62 654.609 652.084ZM659.653 653.592C661.525 654.476 667.453 657.96 668.909 658.948L665.581 663.264C663.657 661.34 659.029 657.648 656.741 656.036L659.653 653.592ZM673.693 650.264H692.777V656.036H673.693V650.264ZM674.265 640.8L680.557 641.684C678.945 652.448 675.825 662.432 671.041 668.776C670.053 667.632 667.505 665.396 666.101 664.356C670.469 659.052 673.017 650.108 674.265 640.8ZM683.677 653.8L690.073 654.372C687.837 672.156 682.481 683.284 669.325 689.888C668.701 688.38 666.881 685.52 665.737 684.168C677.593 678.968 682.117 669.192 683.677 653.8ZM677.229 654.892C679.309 668.048 683.885 679.28 693.453 684.168C691.997 685.416 690.021 687.912 689.085 689.628C678.633 683.388 674.109 671.324 671.561 655.776L677.229 654.892ZM649.773 679.748L653.101 675.484C659.237 677.824 665.737 681.464 669.273 684.272L664.957 688.692C661.629 685.78 655.597 682.14 649.773 679.748ZM720.441 658.22C717.685 658.22 715.449 656.14 715.449 653.332C715.449 650.472 717.685 648.392 720.441 648.392C723.145 648.392 725.381 650.472 725.381 653.332C725.381 656.14 723.145 658.22 720.441 658.22ZM720.441 683.024C717.685 683.024 715.449 680.944 715.449 678.136C715.449 675.276 717.685 673.196 720.441 673.196C723.145 673.196 725.381 675.276 725.381 678.136C725.381 680.944 723.145 683.024 720.441 683.024ZM763.319 685.517C760.709 685.517 758.383 685.037 756.339 684.077C754.308 683.116 752.695 681.793 751.501 680.107C750.307 678.42 749.685 676.487 749.636 674.308H757.392C757.478 675.773 758.093 676.961 759.238 677.872C760.383 678.783 761.743 679.239 763.319 679.239C764.575 679.239 765.683 678.962 766.643 678.408C767.616 677.841 768.373 677.06 768.914 676.062C769.468 675.053 769.745 673.896 769.745 672.591C769.745 671.261 769.462 670.092 768.896 669.082C768.342 668.073 767.573 667.285 766.588 666.719C765.603 666.152 764.476 665.863 763.208 665.851C762.1 665.851 761.023 666.079 759.977 666.534C758.943 666.99 758.136 667.611 757.558 668.399L750.449 667.125L752.24 647.182H775.359V653.719H758.832L757.853 663.192H758.075C758.74 662.256 759.743 661.481 761.085 660.865C762.427 660.25 763.929 659.942 765.591 659.942C767.868 659.942 769.899 660.477 771.684 661.548C773.469 662.619 774.879 664.09 775.913 665.962C776.947 667.821 777.458 669.963 777.446 672.388C777.458 674.936 776.867 677.201 775.673 679.183C774.491 681.153 772.835 682.704 770.706 683.837C768.588 684.957 766.126 685.517 763.319 685.517ZM797.85 685.831C794.674 685.819 791.941 685.037 789.652 683.486C787.374 681.935 785.62 679.688 784.389 676.746C783.17 673.804 782.567 670.264 782.579 666.128C782.579 662.004 783.189 658.489 784.407 655.584C785.638 652.679 787.393 650.469 789.67 648.955C791.96 647.428 794.687 646.665 797.85 646.665C801.014 646.665 803.735 647.428 806.012 648.955C808.302 650.481 810.063 652.697 811.294 655.602C812.525 658.495 813.134 662.004 813.122 666.128C813.122 670.277 812.506 673.822 811.275 676.764C810.056 679.706 808.308 681.953 806.031 683.504C803.753 685.055 801.027 685.831 797.85 685.831ZM797.85 679.202C800.017 679.202 801.747 678.112 803.039 675.933C804.332 673.754 804.972 670.486 804.96 666.128C804.96 663.259 804.664 660.871 804.074 658.963C803.495 657.055 802.67 655.621 801.599 654.661C800.54 653.7 799.291 653.22 797.85 653.22C795.696 653.22 793.973 654.297 792.68 656.452C791.387 658.606 790.735 661.831 790.723 666.128C790.723 669.033 791.012 671.458 791.591 673.403C792.181 675.336 793.012 676.789 794.083 677.761C795.154 678.722 796.41 679.202 797.85 679.202ZM833.651 685.831C830.475 685.819 827.742 685.037 825.452 683.486C823.175 681.935 821.421 679.688 820.19 676.746C818.971 673.804 818.368 670.264 818.38 666.128C818.38 662.004 818.989 658.489 820.208 655.584C821.439 652.679 823.193 650.469 825.471 648.955C827.761 647.428 830.487 646.665 833.651 646.665C836.815 646.665 839.536 647.428 841.813 648.955C844.103 650.481 845.863 652.697 847.094 655.602C848.326 658.495 848.935 662.004 848.923 666.128C848.923 670.277 848.307 673.822 847.076 676.764C845.857 679.706 844.109 681.953 841.832 683.504C839.554 685.055 836.827 685.831 833.651 685.831ZM833.651 679.202C835.818 679.202 837.548 678.112 838.84 675.933C840.133 673.754 840.773 670.486 840.761 666.128C840.761 663.259 840.465 660.871 839.874 658.963C839.296 657.055 838.471 655.621 837.4 654.661C836.341 653.7 835.092 653.22 833.651 653.22C831.497 653.22 829.773 654.297 828.481 656.452C827.188 658.606 826.536 661.831 826.523 666.128C826.523 669.033 826.813 671.458 827.391 673.403C827.982 675.336 828.813 676.789 829.884 677.761C830.955 678.722 832.211 679.202 833.651 679.202ZM901.167 649.848C900.647 650.524 899.659 651.772 899.191 652.5C896.747 656.556 891.807 663.16 886.659 666.8L881.251 662.484C885.463 659.936 889.519 655.36 890.871 652.812C887.699 652.812 867.003 652.812 863.727 652.812C861.595 652.812 859.827 652.916 857.383 653.176V645.896C859.411 646.208 861.595 646.468 863.727 646.468C867.003 646.468 889.051 646.468 891.755 646.468C893.211 646.468 896.071 646.26 897.059 646L901.167 649.848ZM880.003 656.816C880.003 669.712 879.691 680.32 865.547 687.964L859.463 683.024C861.179 682.452 863.051 681.568 864.975 680.112C871.527 675.536 872.775 670.076 872.775 661.548C872.775 659.884 872.723 658.532 872.463 656.816H880.003ZM931.223 643.296C931.067 644.544 930.911 646.728 930.859 647.976C930.287 668.62 925.399 679.176 913.907 687.34L907.823 682.452C910.007 681.256 912.607 679.54 914.687 677.408C921.499 670.648 923.891 661.808 923.943 648.08C923.943 646.936 923.735 644.544 923.527 643.296H931.223ZM948.851 654.476C948.695 655.308 948.539 656.608 948.539 657.18C948.331 662.848 947.655 677.356 945.419 682.66C944.327 685.26 942.299 686.664 938.763 686.664C935.747 686.664 932.679 686.404 930.131 686.196L929.299 679.28C931.899 679.696 934.551 680.008 936.631 680.008C938.295 680.008 939.023 679.436 939.543 678.136C941.051 674.86 941.779 664.46 941.779 658.844H916.403C914.635 658.844 911.723 658.896 909.539 659.104V652.24C911.723 652.5 914.375 652.604 916.351 652.604H940.427C941.779 652.604 943.131 652.5 944.379 652.24L948.851 654.476ZM985.303 642.568C984.991 644.804 984.939 645.844 984.939 647.352C984.939 648.704 984.939 652.864 984.939 654.84H977.659C977.659 652.552 977.659 648.704 977.659 647.352C977.659 645.844 977.607 644.804 977.295 642.568H985.303ZM1002.77 653.54C1002.41 654.684 1001.99 656.66 1001.79 657.648C1000.85 662.64 999.499 667.684 996.899 672.416C992.791 680.06 984.939 685.572 975.683 688.016L970.275 681.776C972.667 681.36 975.475 680.58 977.659 679.696C981.923 678.084 986.499 675.016 989.463 670.856C992.063 667.008 993.415 662.068 994.039 657.44H968.247C968.247 659.26 968.247 663.472 968.247 665.084C968.247 666.228 968.299 667.892 968.455 668.932H961.279C961.435 667.632 961.487 665.968 961.487 664.564C961.487 662.848 961.487 657.492 961.487 655.516C961.487 654.372 961.487 652.292 961.279 651.096C963.047 651.252 964.607 651.304 966.583 651.304H993.987C996.119 651.304 997.367 651.096 998.303 650.784L1002.77 653.54ZM1020.09 645.48C1023.68 647.924 1030.44 653.332 1033.51 656.504L1028.2 661.912C1025.5 659 1018.95 653.332 1015.15 650.732L1020.09 645.48ZM1013.54 680.112C1021.7 678.968 1028.41 676.316 1033.45 673.352C1042.35 668.048 1049.11 660.144 1052.43 653.124L1056.44 660.404C1052.54 667.476 1045.62 674.652 1037.25 679.696C1031.95 682.868 1025.24 685.728 1017.96 686.976L1013.54 680.112ZM1075.83 680.06C1075.83 676.056 1075.83 654.528 1075.83 650.16C1075.83 648.288 1075.68 645.74 1075.31 643.868H1083.43C1083.22 645.74 1082.96 647.976 1082.96 650.16C1082.96 655.88 1083.01 676.212 1083.01 680.06C1083.01 681.516 1083.22 685.156 1083.48 687.288H1075.31C1075.68 685.26 1075.83 682.088 1075.83 680.06ZM1081.45 657.336C1088.37 659.26 1099.6 663.368 1104.69 665.864L1101.78 673.092C1095.85 670.024 1087.12 666.696 1081.45 664.824V657.336Z" fill="white"/>
<g filter="url(#filter2_d_9_72)">
<rect x="3" y="776" width="1280" height="123" rx="37" fill="url(#paint2_linear_9_72)"/>
</g>
<path d="M356.674 825.736H375.914V830.936H356.674V825.736ZM343.882 854.544H388.81V859.64H343.882V854.544ZM346.898 813.776H361.458V818.82H346.898V813.776ZM359.482 813.776H360.522L361.614 813.516L365.67 815.544C361.822 825.736 353.606 833.172 344.87 837.384C344.038 836.084 342.374 833.952 341.126 832.86C348.874 829.584 356.622 822.512 359.482 814.816V813.776ZM371.338 812.008C374.926 820.484 382.206 828.024 391.254 831.456C389.798 832.704 387.978 835.044 387.042 836.656C377.474 832.288 370.35 823.968 366.034 813.672L371.338 812.008ZM344.402 823.136L347.73 819.704C350.07 821.004 352.93 823.032 354.282 824.592L350.798 828.388C349.446 826.828 346.638 824.592 344.402 823.136ZM379.346 812.32L384.026 815.648C381.166 818.092 377.786 820.64 375.186 822.304L371.442 819.392C373.938 817.624 377.37 814.608 379.346 812.32ZM385.222 818.404L389.798 821.628C386.834 824.228 383.246 826.932 380.49 828.648L376.746 825.736C379.45 823.864 383.09 820.796 385.222 818.404ZM357.142 838.892V843.468H374.926V838.892H357.142ZM351.058 833.9H381.374V848.408H351.058V833.9ZM354.074 849.084L359.794 847.628C361.146 849.5 362.29 852.152 362.758 853.92L356.778 855.636C356.414 853.868 355.27 851.112 354.074 849.084ZM372.638 847.576L378.67 848.876C377.37 851.424 376.174 853.764 375.134 855.428L369.674 854.18C370.714 852.36 372.014 849.552 372.638 847.576ZM437.794 835.252L442.682 838.216C440.498 840.608 438.21 843.104 436.338 844.768L432.438 842.168C434.154 840.348 436.494 837.384 437.794 835.252ZM414.654 838.632L418.71 835.98C420.842 837.904 423.13 840.608 424.118 842.584L419.75 845.496C418.918 843.52 416.682 840.66 414.654 838.632ZM416.89 813.62H438.366V831.872H432.594V818.716H416.89V813.62ZM418.034 821.472H435.87V826.256H418.034V821.472ZM414.394 828.908H442.266V834.212H414.394V828.908ZM425.106 831.612H430.878V854.804C430.878 857.352 430.566 858.86 428.902 859.744C427.342 860.628 425.262 860.68 422.402 860.68C422.246 859.12 421.57 856.884 420.894 855.324C422.35 855.376 423.91 855.376 424.43 855.376C424.95 855.376 425.106 855.22 425.106 854.648V831.612ZM412.886 852.152C415.538 850.644 419.438 848.2 423.286 845.704L425.158 850.384C422.09 852.724 418.71 855.168 415.746 857.144L412.886 852.152ZM430.722 835.304C432.386 841.492 436.338 849.24 443.462 852.88C442.214 853.972 440.342 856.416 439.458 857.976C432.646 853.608 428.902 844.664 427.29 838.632L430.722 835.304ZM397.442 824.8H412.834V830H397.442V824.8ZM394.946 833.796H413.926V839.1H394.946V833.796ZM395.466 842.012L399.418 841.024C400.302 843.936 401.03 847.576 401.29 850.072L397.078 851.164C396.974 848.668 396.246 844.924 395.466 842.012ZM394.374 853.92C399.314 853.192 406.698 851.84 413.718 850.592L414.186 855.74C407.686 857.092 400.822 858.548 395.57 859.588L394.374 853.92ZM409.87 840.608L414.342 841.7C413.406 844.664 412.574 847.94 411.794 850.124L408.05 849.084C408.726 846.744 409.506 843.104 409.87 840.608ZM402.07 826.88H407.426V854.908L402.07 855.844V826.88ZM401.81 811.852H405.086V812.996H406.854V814.608C404.826 818.56 401.654 823.916 396.506 828.596C395.674 827.348 393.906 825.372 392.762 824.54C397.13 820.796 400.198 815.908 401.81 811.852ZM402.59 811.852H406.958C409.974 814.452 413.822 818.196 415.694 820.848L411.69 825.632C410.026 822.98 406.49 818.612 403.682 816.272H402.59V811.852ZM481.266 817.052H487.818V852.828C487.818 856.572 486.934 858.444 484.438 859.432C481.838 860.524 478.042 860.628 472.686 860.628C472.322 858.756 471.074 855.688 470.086 853.972C473.83 854.232 478.354 854.18 479.602 854.18C480.85 854.128 481.266 853.764 481.266 852.672V817.052ZM451.522 827.452H457.606V851.684H451.522V827.452ZM454.122 827.452H473.726V847.68H454.122V841.752H467.538V833.38H454.122V827.452ZM446.738 815.336H493.85V821.628H446.738V815.336ZM505.654 811.592L512.154 812.996C510.282 817.78 507.942 822.876 505.966 826.204L500.558 824.8C502.43 821.264 504.562 815.752 505.654 811.592ZM497.802 822.252C503.418 822.096 511.842 821.732 519.902 821.368L519.85 826.776C512.206 827.348 504.198 827.816 498.27 828.18L497.802 822.252ZM500.87 830.624H517.406V835.772H506.642V860.628H500.87V830.624ZM514.442 830.624H520.63V854.388C520.63 857.04 520.11 858.6 518.342 859.536C516.522 860.472 514.182 860.576 511.01 860.576C510.698 858.912 509.814 856.52 509.034 855.012C510.854 855.116 512.934 855.116 513.61 855.064C514.234 855.064 514.442 854.908 514.442 854.232V830.624ZM503.522 838.476H517.926V843.104H503.522V838.476ZM503.522 846.12H517.926V850.748H503.522V846.12ZM524.686 812.06H530.926V827.66C530.926 829.48 531.238 829.74 533.214 829.74C534.046 829.74 537.79 829.74 538.882 829.74C540.598 829.74 540.91 828.96 541.118 824.384C542.418 825.372 544.966 826.308 546.682 826.672C546.006 833.432 544.342 835.304 539.506 835.304C538.206 835.304 533.526 835.304 532.33 835.304C526.194 835.304 524.686 833.536 524.686 827.764V812.06ZM540.286 815.128L544.238 819.652C539.61 821.888 533.578 823.864 528.43 825.268C528.17 824.02 527.338 822.148 526.662 820.952C531.498 819.444 536.854 817.104 540.286 815.128ZM524.686 836.344H530.874V852.724C530.874 854.648 531.238 854.856 533.266 854.856C534.15 854.856 538.05 854.856 539.194 854.856C541.014 854.856 541.326 853.92 541.586 848.616C542.886 849.552 545.382 850.54 547.098 850.904C546.422 858.236 544.758 860.316 539.766 860.316C538.466 860.316 533.63 860.316 532.382 860.316C526.246 860.316 524.686 858.548 524.686 852.776V836.344ZM540.702 838.528L544.758 843.104C540.026 845.652 533.734 847.836 528.378 849.344C528.066 848.148 527.182 846.172 526.558 844.976C531.602 843.364 537.166 840.816 540.702 838.528ZM512.726 817.312L518.03 815.336C520.578 819.08 523.282 824.02 524.27 827.452L518.602 829.74C517.718 826.412 515.222 821.212 512.726 817.312ZM570.81 814.504H597.798V820.432H570.81V814.504ZM569.354 853.036H598.786V858.912H569.354V853.036ZM585.942 832.756H597.486V838.684H585.942V832.756ZM582.354 816.948H588.49V856.468H582.354V816.948ZM572.578 828.284H578.402V855.688H572.578V828.284ZM552.298 828.18H567.326V832.86H552.298V828.18ZM552.61 813.464H567.378V818.196H552.61V813.464ZM552.298 835.46H567.326V840.14H552.298V835.46ZM549.75 820.692H569.198V825.58H549.75V820.692ZM555.158 842.792H567.69V858.6H555.158V853.712H562.334V847.732H555.158V842.792ZM552.142 842.792H557.394V860.68H552.142V842.792ZM607.106 814.712H622.03V846.64H607.106V840.92H616.258V820.328H607.106V814.712ZM607.158 827.712H618.546V833.276H607.158V827.712ZM629.362 813.932H645.326V819.704H629.362V813.932ZM629.362 826.36H645.326V831.976H629.362V826.36ZM629.258 838.684H645.274V844.248H629.258V838.684ZM603.778 814.712H609.55V851.164H603.778V814.712ZM642.986 813.932H649.174V853.556C649.174 856.78 648.498 858.496 646.47 859.484C644.39 860.472 641.426 860.628 637.006 860.628C636.746 858.912 635.758 856.208 634.874 854.596C637.682 854.752 640.854 854.7 641.738 854.7C642.674 854.7 642.986 854.388 642.986 853.452V813.932ZM625.618 813.932H631.754V832.808C631.754 841.804 630.35 854.024 620.73 861.096C619.794 859.848 617.402 857.716 616.05 856.884C624.838 850.488 625.618 840.712 625.618 832.756V813.932ZM661.29 843.884H695.922V860.784H689.63V847.784H667.322V860.836H661.29V843.884ZM664.462 849.708H691.866V853.348H664.462V849.708ZM664.462 855.376H691.866V859.328H664.462V855.376ZM674.862 811.696H681.154V840.712H674.862V811.696ZM660.094 814.972H695.662V830.416H659.522V826.776H689.474V818.612H660.094V814.972ZM654.79 820.484H701.694V824.8H654.79V820.484ZM658.378 832.236H697.846V836.032H658.378V832.236ZM654.686 837.904H701.642V842.22H654.686V837.904ZM705.75 838.996H732.062V843.988H705.75V838.996ZM706.374 820.64H731.906V825.528H706.374V820.64ZM715.11 835.252L720.882 836.5C718.334 841.856 714.954 848.2 712.458 852.36L706.998 850.696C709.442 846.692 712.874 840.192 715.11 835.252ZM722.494 842.48L728.214 842.948C726.342 853.868 720.882 858.236 708.506 860.732C708.142 859.016 706.998 856.832 705.958 855.584C716.306 854.284 720.83 851.008 722.494 842.48ZM726.186 812.476L731.438 814.556C729.722 816.896 728.058 819.288 726.706 820.9L722.702 819.08C723.898 817.26 725.354 814.452 726.186 812.476ZM716.254 811.8H721.974V835.98H716.254V811.8ZM707.622 814.556L712.094 812.684C713.498 814.66 714.798 817.312 715.266 819.184L710.482 821.264C710.118 819.444 708.922 816.688 707.622 814.556ZM716.41 823.084L720.466 825.528C717.866 829.636 712.874 834.16 708.506 836.604C707.778 835.252 706.426 833.172 705.282 832.028C709.494 830.312 714.174 826.62 716.41 823.084ZM721.454 824.592C723.326 825.476 729.254 828.96 730.71 829.948L727.382 834.264C725.458 832.34 720.83 828.648 718.542 827.036L721.454 824.592ZM735.494 821.264H754.578V827.036H735.494V821.264ZM736.066 811.8L742.358 812.684C740.746 823.448 737.626 833.432 732.842 839.776C731.854 838.632 729.306 836.396 727.902 835.356C732.27 830.052 734.818 821.108 736.066 811.8ZM745.478 824.8L751.874 825.372C749.638 843.156 744.282 854.284 731.126 860.888C730.502 859.38 728.682 856.52 727.538 855.168C739.394 849.968 743.918 840.192 745.478 824.8ZM739.03 825.892C741.11 839.048 745.686 850.28 755.254 855.168C753.798 856.416 751.822 858.912 750.886 860.628C740.434 854.388 735.91 842.324 733.362 826.776L739.03 825.892ZM711.574 850.748L714.902 846.484C721.038 848.824 727.538 852.464 731.074 855.272L726.758 859.692C723.43 856.78 717.398 853.14 711.574 850.748ZM782.242 829.22C779.486 829.22 777.25 827.14 777.25 824.332C777.25 821.472 779.486 819.392 782.242 819.392C784.946 819.392 787.182 821.472 787.182 824.332C787.182 827.14 784.946 829.22 782.242 829.22ZM782.242 854.024C779.486 854.024 777.25 851.944 777.25 849.136C777.25 846.276 779.486 844.196 782.242 844.196C784.946 844.196 787.182 846.276 787.182 849.136C787.182 851.944 784.946 854.024 782.242 854.024ZM825.12 856.517C822.51 856.517 820.183 856.037 818.14 855.077C816.109 854.116 814.496 852.793 813.302 851.107C812.108 849.42 811.486 847.487 811.437 845.308H819.192C819.279 846.773 819.894 847.961 821.039 848.872C822.184 849.783 823.544 850.239 825.12 850.239C826.376 850.239 827.484 849.962 828.444 849.408C829.416 848.841 830.174 848.06 830.715 847.062C831.269 846.053 831.546 844.896 831.546 843.591C831.546 842.261 831.263 841.092 830.697 840.082C830.143 839.073 829.373 838.285 828.388 837.719C827.404 837.152 826.277 836.863 825.009 836.851C823.901 836.851 822.824 837.079 821.778 837.534C820.744 837.99 819.937 838.611 819.359 839.399L812.249 838.125L814.04 818.182H837.16V824.719H820.633L819.654 834.192H819.876C820.54 833.256 821.544 832.481 822.886 831.865C824.228 831.25 825.729 830.942 827.391 830.942C829.669 830.942 831.7 831.477 833.485 832.548C835.27 833.619 836.68 835.09 837.714 836.962C838.748 838.821 839.259 840.963 839.246 843.388C839.259 845.936 838.668 848.201 837.474 850.183C836.292 852.153 834.636 853.704 832.506 854.837C830.389 855.957 827.927 856.517 825.12 856.517ZM873.946 816.272H879.926V857.456H873.946V816.272ZM862.246 820.952H891.21V825.788H862.246V820.952ZM860.686 854.908H892.302V859.848H860.686V854.908ZM863.598 847.784H890.378V852.516H863.598V847.784ZM887.57 812.268L891.158 816.896C883.618 818.352 872.958 818.976 864.118 819.08C864.014 817.728 863.338 815.648 862.766 814.4C871.346 814.14 881.434 813.464 887.57 812.268ZM869.37 838.476V841.128H884.71V838.476H869.37ZM869.37 832.236V834.836H884.71V832.236H869.37ZM863.962 827.92H890.378V845.444H863.962V827.92ZM851.326 816.688H857.41V860.628H851.326V816.688ZM843.838 826.464H862.922V832.288H843.838V826.464ZM851.69 828.804L855.33 830.416C853.354 837.852 849.662 847.108 845.658 852.256C845.086 850.436 843.734 847.836 842.746 846.276C846.386 842.116 850.026 834.576 851.69 828.804ZM859.438 812.372L863.598 817.208C858.294 819.236 851.066 820.64 844.982 821.42C844.722 820.068 843.942 817.988 843.214 816.688C848.986 815.7 855.434 814.192 859.438 812.372ZM857.254 833.692C858.554 834.784 863.078 839.464 864.066 840.66L860.53 845.548C859.282 843.052 856.162 838.32 854.55 836.136L857.254 833.692ZM896.098 840.4H918.614V845.756H896.098V840.4ZM896.098 820.744H918.198V825.58H896.098V820.744ZM913.31 812.736L918.458 814.088C917.158 816.48 915.91 818.82 914.922 820.432L910.918 819.132C911.802 817.312 912.79 814.608 913.31 812.736ZM904.418 812.476H909.826V835.72H904.418V812.476ZM896.514 814.504L900.674 812.944C901.87 814.816 903.014 817.26 903.378 818.924L898.958 820.64C898.698 818.976 897.658 816.428 896.514 814.504ZM904.99 849.916L908.63 846.172C911.802 848.148 916.222 851.216 918.406 853.192L914.558 857.404C912.53 855.376 908.162 852.1 904.99 849.916ZM909.566 825.424C911.438 826.308 917.47 829.896 918.874 830.884L915.65 835.252C913.622 833.328 908.838 829.636 906.498 828.076L909.566 825.424ZM904.054 823.5L908.058 824.956C905.978 829.376 902.234 834.056 898.542 836.552C897.762 835.356 896.098 833.484 894.954 832.548C898.438 830.624 902.13 826.932 904.054 823.5ZM918.822 813.88H943.626V819.236H918.822V813.88ZM925.894 834.68V837.852H936.346V834.68H925.894ZM925.894 842.168V845.444H936.346V842.168H925.894ZM925.894 827.192V830.364H936.346V827.192H925.894ZM920.278 822.512H942.222V850.072H920.278V822.512ZM927.974 816.74L934.838 817.52C933.642 820.744 932.29 823.968 931.25 826.152L926.05 825.112C926.83 822.72 927.61 819.236 927.974 816.74ZM924.75 850.124L929.846 853.4C927.194 856.104 922.826 859.068 919.082 860.732C918.094 859.536 916.378 857.768 915.026 856.728C918.614 855.22 922.722 852.36 924.75 850.124ZM931.77 853.556L936.19 850.488C939.05 852.412 942.95 855.324 944.926 857.3L940.142 860.628C938.426 858.704 934.63 855.636 931.77 853.556ZM904.262 836.812H909.878V842.48C909.878 848.408 908.37 855.584 898.074 860.004C897.45 858.652 895.838 856.416 894.746 855.376C903.222 851.892 904.262 846.588 904.262 842.324V836.812Z" fill="white"/>
<path d="M262.443 400.545L280.92 445.622L268.122 455.319L243.05 400.545H262.443ZM272.271 445.185L290.529 400.545H309.922L284.72 455.319L272.271 445.185ZM285.593 442.914V490H266.899V442.914H285.593ZM303.24 443.875V454.664H247.855V443.875H303.24ZM303.24 461.172V471.961H247.855V461.172H303.24ZM318.942 490V476.372L350.784 446.889C353.492 444.268 355.763 441.909 357.598 439.813C359.462 437.716 360.874 435.663 361.835 433.654C362.796 431.616 363.276 429.417 363.276 427.059C363.276 424.438 362.679 422.181 361.485 420.288C360.292 418.366 358.661 416.896 356.593 415.877C354.526 414.828 352.182 414.304 349.561 414.304C346.824 414.304 344.436 414.858 342.398 415.964C340.359 417.071 338.787 418.658 337.68 420.725C336.574 422.793 336.021 425.253 336.021 428.107H318.069C318.069 422.254 319.393 417.173 322.043 412.863C324.693 408.553 328.406 405.219 333.181 402.86C337.957 400.502 343.461 399.322 349.692 399.322C356.098 399.322 361.675 400.458 366.421 402.729C371.197 404.972 374.909 408.087 377.559 412.077C380.209 416.066 381.534 420.638 381.534 425.792C381.534 429.17 380.864 432.504 379.525 435.794C378.214 439.085 375.87 442.739 372.493 446.758C369.115 450.747 364.354 455.537 358.21 461.128L345.15 473.926V474.538H382.713V490H318.942ZM428.784 399.322C433.385 399.322 437.811 400.094 442.062 401.637C446.343 403.181 450.157 405.641 453.506 409.019C456.884 412.397 459.548 416.881 461.499 422.472C463.479 428.034 464.484 434.863 464.513 442.958C464.513 450.558 463.654 457.343 461.936 463.312C460.247 469.252 457.816 474.305 454.642 478.469C451.468 482.633 447.639 485.807 443.154 487.991C438.67 490.146 433.661 491.223 428.129 491.223C422.159 491.223 416.889 490.073 412.317 487.772C407.745 485.443 404.062 482.283 401.266 478.294C398.5 474.276 396.825 469.762 396.243 464.754H414.894C415.622 468.015 417.151 470.548 419.48 472.354C421.81 474.13 424.693 475.018 428.129 475.018C433.953 475.018 438.379 472.485 441.407 467.418C444.435 462.322 445.964 455.348 445.993 446.496H445.382C444.042 449.116 442.237 451.373 439.966 453.266C437.694 455.13 435.088 456.571 432.147 457.59C429.235 458.609 426.134 459.119 422.843 459.119C417.573 459.119 412.87 457.881 408.735 455.406C404.6 452.931 401.339 449.524 398.951 445.185C396.563 440.847 395.369 435.896 395.369 430.335C395.34 424.336 396.723 418.993 399.519 414.304C402.314 409.616 406.216 405.947 411.225 403.297C416.263 400.618 422.116 399.293 428.784 399.322ZM428.915 414.173C425.974 414.173 423.353 414.872 421.053 416.27C418.781 417.668 416.976 419.546 415.636 421.904C414.326 424.263 413.685 426.898 413.715 429.81C413.715 432.751 414.355 435.401 415.636 437.76C416.947 440.089 418.723 441.953 420.965 443.351C423.237 444.719 425.828 445.404 428.74 445.404C430.924 445.404 432.948 444.996 434.812 444.181C436.675 443.365 438.291 442.244 439.66 440.817C441.058 439.362 442.15 437.687 442.936 435.794C443.722 433.902 444.115 431.892 444.115 429.767C444.086 426.942 443.416 424.35 442.106 421.992C440.796 419.633 438.99 417.74 436.69 416.314C434.389 414.887 431.798 414.173 428.915 414.173ZM494.411 477.77L493.931 482.575C493.552 486.418 492.824 490.248 491.747 494.062C490.699 497.906 489.592 501.386 488.427 504.501C487.292 507.617 486.375 510.063 485.676 511.839H473.62C474.057 510.121 474.654 507.719 475.411 504.632C476.168 501.575 476.882 498.139 477.551 494.324C478.221 490.51 478.643 486.622 478.818 482.662L479.036 477.77H494.411ZM541.017 491.223C534.29 491.223 528.306 490.131 523.065 487.947C517.853 485.734 513.761 482.72 510.791 478.906C507.821 475.091 506.336 470.767 506.336 465.933C506.336 462.206 507.18 458.784 508.869 455.668C510.587 452.523 512.917 449.917 515.858 447.85C518.799 445.753 522.089 444.414 525.729 443.831V443.22C520.954 442.259 517.081 439.944 514.111 436.275C511.141 432.577 509.655 428.282 509.655 423.39C509.655 418.76 511.009 414.639 513.718 411.028C516.426 407.388 520.138 404.535 524.856 402.467C529.602 400.371 534.989 399.322 541.017 399.322C547.045 399.322 552.417 400.371 557.135 402.467C561.881 404.564 565.608 407.432 568.316 411.072C571.024 414.683 572.393 418.789 572.422 423.39C572.393 428.311 570.879 432.606 567.88 436.275C564.88 439.944 561.036 442.259 556.348 443.22V443.831C559.93 444.414 563.177 445.753 566.089 447.85C569.03 449.917 571.359 452.523 573.077 455.668C574.824 458.784 575.713 462.206 575.742 465.933C575.713 470.767 574.213 475.091 571.243 478.906C568.273 482.72 564.167 485.734 558.925 487.947C553.713 490.131 547.744 491.223 541.017 491.223ZM541.017 477.333C544.016 477.333 546.637 476.794 548.879 475.717C551.121 474.61 552.869 473.096 554.121 471.174C555.402 469.223 556.043 466.981 556.043 464.448C556.043 461.856 555.387 459.57 554.077 457.59C552.767 455.581 550.99 454.009 548.748 452.873C546.506 451.708 543.929 451.126 541.017 451.126C538.134 451.126 535.557 451.708 533.286 452.873C531.014 454.009 529.224 455.581 527.913 457.59C526.632 459.57 525.991 461.856 525.991 464.448C525.991 466.981 526.617 469.223 527.87 471.174C529.122 473.096 530.883 474.61 533.155 475.717C535.426 476.794 538.047 477.333 541.017 477.333ZM541.017 437.367C543.521 437.367 545.749 436.857 547.7 435.838C549.651 434.819 551.18 433.407 552.286 431.601C553.393 429.796 553.946 427.714 553.946 425.355C553.946 423.026 553.393 420.987 552.286 419.24C551.18 417.464 549.665 416.081 547.744 415.091C545.822 414.071 543.579 413.562 541.017 413.562C538.484 413.562 536.241 414.071 534.29 415.091C532.339 416.081 530.811 417.464 529.704 419.24C528.627 420.987 528.088 423.026 528.088 425.355C528.088 427.714 528.641 429.796 529.748 431.601C530.854 433.407 532.383 434.819 534.334 435.838C536.285 436.857 538.513 437.367 541.017 437.367ZM624.04 491.966C616.527 491.936 610.063 490.087 604.646 486.418C599.259 482.749 595.11 477.435 592.198 470.475C589.315 463.516 587.888 455.144 587.917 445.36C587.917 435.605 589.359 427.292 592.241 420.419C595.153 413.547 599.303 408.32 604.69 404.739C610.106 401.128 616.556 399.322 624.04 399.322C631.523 399.322 637.959 401.128 643.346 404.739C648.762 408.349 652.926 413.591 655.838 420.463C658.75 427.306 660.191 435.605 660.162 445.36C660.162 455.173 658.706 463.56 655.794 470.519C652.912 477.479 648.777 482.793 643.39 486.462C638.002 490.131 631.553 491.966 624.04 491.966ZM624.04 476.285C629.165 476.285 633.256 473.708 636.314 468.554C639.371 463.4 640.885 455.668 640.856 445.36C640.856 438.575 640.157 432.926 638.76 428.413C637.391 423.899 635.44 420.507 632.907 418.235C630.402 415.964 627.447 414.828 624.04 414.828C618.944 414.828 614.867 417.376 611.81 422.472C608.752 427.568 607.209 435.197 607.18 445.36C607.18 452.232 607.864 457.969 609.233 462.57C610.63 467.141 612.596 470.577 615.129 472.878C617.663 475.149 620.633 476.285 624.04 476.285ZM708.722 491.966C701.21 491.936 694.745 490.087 689.329 486.418C683.942 482.749 679.792 477.435 676.88 470.475C673.998 463.516 672.571 455.144 672.6 445.36C672.6 435.605 674.041 427.292 676.924 420.419C679.836 413.547 683.986 408.32 689.373 404.739C694.789 401.128 701.239 399.322 708.722 399.322C716.206 399.322 722.641 401.128 728.029 404.739C733.445 408.349 737.609 413.591 740.521 420.463C743.433 427.306 744.874 435.605 744.845 445.36C744.845 455.173 743.389 463.56 740.477 470.519C737.594 477.479 733.459 482.793 728.072 486.462C722.685 490.131 716.235 491.966 708.722 491.966ZM708.722 476.285C713.847 476.285 717.939 473.708 720.996 468.554C724.054 463.4 725.568 455.668 725.539 445.36C725.539 438.575 724.84 432.926 723.442 428.413C722.074 423.899 720.123 420.507 717.589 418.235C715.085 415.964 712.129 414.828 708.722 414.828C703.627 414.828 699.55 417.376 696.492 422.472C693.435 427.568 691.891 435.197 691.862 445.36C691.862 452.232 692.547 457.969 693.915 462.57C695.313 467.141 697.278 470.577 699.812 472.878C702.345 475.149 705.315 476.285 708.722 476.285ZM829.648 459.824H801.68V487.792H792.388V459.824H764.42V450.532H792.388V422.564H801.68V450.532H829.648V459.824ZM883.652 416.032L892.852 412.076C896.256 416.86 899.844 423.208 901.224 427.624L891.472 432.04C890.368 427.716 886.964 421 883.652 416.032ZM917.416 411.8L928.732 415.572C925.512 421.276 922.016 427.164 919.164 431.12L909.78 427.624C912.54 423.3 915.76 416.768 917.416 411.8ZM891.38 459.916H902.236C901.04 476.752 897.728 490.552 880.34 498.464C879.144 495.704 876.108 491.748 873.808 489.724C888.436 483.652 890.46 472.888 891.38 459.916ZM907.112 458.628H917.784V484.112C917.784 486.872 917.968 487.24 919.072 487.24C919.624 487.24 921.556 487.24 922.108 487.24C923.488 487.24 923.856 485.768 924.04 476.2C926.064 477.856 930.572 479.696 933.424 480.432C932.504 493.496 929.836 497.084 923.304 497.084C921.74 497.084 918.704 497.084 917.14 497.084C908.86 497.084 907.112 493.864 907.112 484.204V458.628ZM894.324 439.952V452.464H917.14V439.952H894.324ZM883.836 430.292H928.18V462.032H883.836V430.292ZM860.008 420.448H870.772V498.188H860.008V420.448ZM846.76 437.744H880.524V448.048H846.76V437.744ZM860.652 441.884L867.092 444.736C863.596 457.892 857.064 474.268 849.98 483.376C848.968 480.156 846.576 475.556 844.828 472.796C851.268 465.436 857.708 452.096 860.652 441.884ZM874.36 412.812L881.72 421.368C872.336 424.956 859.548 427.44 848.784 428.82C848.324 426.428 846.944 422.748 845.656 420.448C855.868 418.7 867.276 416.032 874.36 412.812ZM870.496 450.532C872.796 452.464 880.8 460.744 882.548 462.86L876.292 471.508C874.084 467.092 868.564 458.72 865.712 454.856L870.496 450.532Z" fill="#DE4833"/>
<path d="M968.872 416.148L946.137 500.609H936.94L959.675 416.148H968.872ZM989.419 431.762H1028.05V437.164H989.419V431.762ZM989.419 449.596H1028.34V454.924H989.419V449.596ZM988.827 467.504H1027.97V472.832H988.827V467.504ZM986.015 431.762H991.639V454.628C991.639 467.43 989.789 484.894 977.061 495.994C976.247 494.81 974.027 492.812 972.843 491.998C984.757 481.564 986.015 466.542 986.015 454.628V431.762ZM1025.61 431.762H1031.38V487.78C1031.38 491.702 1030.34 493.626 1027.53 494.588C1024.64 495.55 1019.76 495.624 1011.77 495.624C1011.4 493.996 1010.36 491.332 1009.4 489.778C1015.54 490 1021.61 489.926 1023.31 489.926C1025.01 489.852 1025.61 489.334 1025.61 487.706V431.762Z" fill="black"/>
<line x1="140" y1="532" x2="1146" y2="532" stroke="black" stroke-width="6"/>
<defs>
<filter id="filter0_d_9_72" x="81" y="0" width="1144" height="256" filterUnits="userSpaceOnUse" color-interpolation-filters="sRGB">
<feFlood flood-opacity="0" result="BackgroundImageFix"/>
<feColorMatrix in="SourceAlpha" type="matrix" values="0 0 0 0 0 0 0 0 0 0 0 0 0 0 0 0 0 0 127 0" result="hardAlpha"/>
<feOffset dx="10" dy="9"/>
<feGaussianBlur stdDeviation="6.5"/>
<feComposite in2="hardAlpha" operator="out"/>
<feColorMatrix type="matrix" values="0 0 0 0 0 0 0 0 0 0 0 0 0 0 0 0 0 0 0.25 0"/>
<feBlend mode="normal" in2="BackgroundImageFix" result="effect1_dropShadow_9_72"/>
<feBlend mode="normal" in="SourceGraphic" in2="effect1_dropShadow_9_72" result="shape"/>
</filter>
<filter id="filter1_d_9_72" x="0" y="601" width="1306" height="149" filterUnits="userSpaceOnUse" color-interpolation-filters="sRGB">
<feFlood flood-opacity="0" result="BackgroundImageFix"/>
<feColorMatrix in="SourceAlpha" type="matrix" values="0 0 0 0 0 0 0 0 0 0 0 0 0 0 0 0 0 0 127 0" result="hardAlpha"/>
<feOffset dx="10" dy="9"/>
<feGaussianBlur stdDeviation="6.5"/>
<feComposite in2="hardAlpha" operator="out"/>
<feColorMatrix type="matrix" values="0 0 0 0 0 0 0 0 0 0 0 0 0 0 0 0 0 0 0.25 0"/>
<feBlend mode="normal" in2="BackgroundImageFix" result="effect1_dropShadow_9_72"/>
<feBlend mode="normal" in="SourceGraphic" in2="effect1_dropShadow_9_72" result="shape"/>
</filter>
<filter id="filter2_d_9_72" x="0" y="772" width="1306" height="149" filterUnits="userSpaceOnUse" color-interpolation-filters="sRGB">
<feFlood flood-opacity="0" result="BackgroundImageFix"/>
<feColorMatrix in="SourceAlpha" type="matrix" values="0 0 0 0 0 0 0 0 0 0 0 0 0 0 0 0 0 0 127 0" result="hardAlpha"/>
<feOffset dx="10" dy="9"/>
<feGaussianBlur stdDeviation="6.5"/>
<feComposite in2="hardAlpha" operator="out"/>
<feColorMatrix type="matrix" values="0 0 0 0 0 0 0 0 0 0 0 0 0 0 0 0 0 0 0.25 0"/>
<feBlend mode="normal" in2="BackgroundImageFix" result="effect1_dropShadow_9_72"/>
<feBlend mode="normal" in="SourceGraphic" in2="effect1_dropShadow_9_72" result="shape"/>
</filter>
<linearGradient id="paint0_linear_9_72" x1="84" y1="119" x2="1202" y2="119" gradientUnits="userSpaceOnUse">
<stop stop-color="#00D3AF"/>
</linearGradient>
<linearGradient id="paint1_linear_9_72" x1="3" y1="666.5" x2="1283" y2="666.5" gradientUnits="userSpaceOnUse">
<stop stop-color="#6770E6"/>
</linearGradient>
<linearGradient id="paint2_linear_9_72" x1="3" y1="837.5" x2="1283" y2="837.5" gradientUnits="userSpaceOnUse">
<stop stop-color="#6770E6"/>
</linearGradient>
</defs>
</svg>
